SplineFontDB: 3.2
FontName: SeriousSans
FullName: Serious Sans
FamilyName: Serious Sans
Weight: Book
Copyright: https://github.com/kaBeech/serious-sans/blob/main/LICENSE
Version: 0.1.0
ItalicAngle: 0
UnderlinePosition: 0
UnderlineWidth: 0
Ascent: 1638
Descent: 410
InvalidEm: 0
LayerCount: 2
Layer: 0 1 "Back" 1
Layer: 1 1 "Fore" 0
XUID: [1021 107 -322497659 2235226]
StyleMap: 0x0040
FSType: 4
OS2Version: 3
OS2_WeightWidthSlopeOnly: 0
OS2_UseTypoMetrics: 0
CreationTime: 1532631502
ModificationTime: 1679106114
PfmFamily: 81
TTFWeight: 400
TTFWidth: 5
LineGap: 0
VLineGap: 0
Panose: 0 0 0 0 0 0 0 0 0 0
OS2TypoAscent: 1255
OS2TypoAOffset: 0
OS2TypoDescent: -386
OS2TypoDOffset: 0
OS2TypoLinegap: 200
OS2WinAscent: 1594
OS2WinAOffset: 0
OS2WinDescent: 631
OS2WinDOffset: 0
HheadAscent: 1630
HheadAOffset: 0
HheadDescent: -650
HheadDOffset: 0
OS2SubXSize: 650
OS2SubYSize: 600
OS2SubXOff: 0
OS2SubYOff: 75
OS2SupXSize: 650
OS2SupYSize: 600
OS2SupXOff: 0
OS2SupYOff: 350
OS2StrikeYSize: 0
OS2StrikeYPos: 270
OS2CapHeight: 1180
OS2XHeight: 993
OS2Vendor: 'NONE'
OS2CodePages: 00000001.00000000
OS2UnicodeRanges: 00000001.00000000.00000000.00000000
MarkAttachClasses: 1
DEI: 91125
TtTable: prep
PUSHW_1
 511
SCANCTRL
PUSHB_1
 1
SCANTYPE
SVTCA[y-axis]
MPPEM
PUSHB_1
 8
LT
IF
PUSHB_2
 1
 1
INSTCTRL
EIF
PUSHB_2
 70
 6
CALL
IF
POP
PUSHB_1
 16
EIF
MPPEM
PUSHB_1
 20
GT
IF
POP
PUSHB_1
 128
EIF
SCVTCI
PUSHB_1
 6
CALL
NOT
IF
EIF
PUSHB_1
 20
CALL
EndTTInstrs
TtTable: fpgm
PUSHB_1
 0
FDEF
PUSHB_1
 0
SZP0
MPPEM
PUSHB_1
 42
LT
IF
PUSHB_1
 74
SROUND
EIF
PUSHB_1
 0
SWAP
MIAP[rnd]
RTG
PUSHB_1
 6
CALL
IF
RTDG
EIF
MPPEM
PUSHB_1
 42
LT
IF
RDTG
EIF
DUP
MDRP[rp0,rnd,grey]
PUSHB_1
 1
SZP0
MDAP[no-rnd]
RTG
ENDF
PUSHB_1
 1
FDEF
DUP
MDRP[rp0,min,white]
PUSHB_1
 12
CALL
ENDF
PUSHB_1
 2
FDEF
MPPEM
GT
IF
RCVT
SWAP
EIF
POP
ENDF
PUSHB_1
 3
FDEF
ROUND[Black]
RTG
DUP
PUSHB_1
 64
LT
IF
POP
PUSHB_1
 64
EIF
ENDF
PUSHB_1
 4
FDEF
PUSHB_1
 6
CALL
IF
POP
SWAP
POP
ROFF
IF
MDRP[rp0,min,rnd,black]
ELSE
MDRP[min,rnd,black]
EIF

StartChar: .notdef
Encoding: 65536 -1 0
Width: 1116
GlyphClass: 1
Flags: W
LayerCount: 2
Fore
SplineSet
120 -548 m 1,0,-1
 120 1534 l 1,1,-1
 997 1534 l 1,2,-1
 997 -548 l 1,3,-1
 120 -548 l 1,0,-1
230 -438 m 1,4,-1
 887 -438 l 1,5,-1
 887 1424 l 1,6,-1
 230 1424 l 1,7,-1
 230 -438 l 1,4,-1
EndSplineSet
Validated: 1
EndChar

StartChar: exclam
Encoding: 33 33 4
Width: 1116
GlyphClass: 2
Flags: W
LayerCount: 2
Fore
SplineSet
679 1512 m 0,0,1
 679 1493 679 1493 670.5 1242 c 128,-1,2
 662 991 662 991 666 833 c 0,3,4
 670 679 670 679 666 649.5 c 128,-1,5
 662 620 662 620 664 554 c 1,6,7
 659 509 659 509 628 483.5 c 128,-1,8
 597 458 597 458 554 460 c 0,9,10
 513 460 513 460 486.5 487.5 c 128,-1,11
 460 515 460 515 464 565 c 0,12,13
 467 595 467 595 472 624.5 c 128,-1,14
 477 654 477 654 478.5 673.5 c 128,-1,15
 480 693 480 693 481.5 765.5 c 128,-1,16
 483 838 483 838 478 953 c 0,17,18
 475 1032 475 1032 474.5 1121.5 c 128,-1,19
 474 1211 474 1211 475.5 1270 c 128,-1,20
 477 1329 477 1329 479.5 1404.5 c 128,-1,21
 482 1480 482 1480 482 1505 c 0,22,23
 484 1561 484 1561 512.5 1589 c 128,-1,24
 541 1617 541 1617 583 1617 c 0,25,26
 627 1619 627 1619 653 1593.5 c 128,-1,27
 679 1568 679 1568 679 1512 c 0,0,1
565 -50 m 0,28,29
 490 -58 490 -58 442 -8.5 c 128,-1,30
 394 41 394 41 394 110 c 0,31,32
 394 172 394 172 446.5 217 c 128,-1,33
 499 262 499 262 565 265 c 0,34,35
 637 268 637 268 682 223 c 128,-1,36
 727 178 727 178 727 112 c 0,37,38
 727 47 727 47 683 2.5 c 128,-1,39
 639 -42 639 -42 565 -50 c 0,28,29
EndSplineSet
Validated: 33
EndChar

StartChar: quotedbl
Encoding: 34 34 5
Width: 1116
GlyphClass: 2
Flags: W
LayerCount: 2
Fore
SplineSet
502 1512 m 0,0,1
 504 1428 504 1428 499.5 1236.5 c 128,-1,2
 495 1045 495 1045 486 973 c 0,3,4
 480 932 480 932 450.5 911 c 128,-1,5
 421 890 421 890 388 892 c 0,6,7
 347 894 347 894 314.5 918 c 128,-1,8
 282 942 282 942 287 986 c 0,9,10
 294 1090 294 1090 292 1253.5 c 128,-1,11
 290 1417 290 1417 285 1523 c 0,12,13
 283 1548 283 1548 294 1566 c 128,-1,14
 305 1584 305 1584 324 1591.5 c 128,-1,15
 343 1599 343 1599 361.5 1602 c 128,-1,16
 380 1605 380 1605 399 1604 c 0,17,18
 417 1604 417 1604 433.5 1599.5 c 128,-1,19
 450 1595 450 1595 465.5 1585.5 c 128,-1,20
 481 1576 481 1576 491 1557 c 128,-1,21
 501 1538 501 1538 502 1512 c 0,0,1
830 1512 m 0,22,23
 832 1429 832 1429 828 1237 c 128,-1,24
 824 1045 824 1045 815 973 c 0,25,26
 809 932 809 932 779.5 911 c 128,-1,27
 750 890 750 890 716 892 c 0,28,29
 676 894 676 894 643.5 918 c 128,-1,30
 611 942 611 942 616 986 c 0,31,32
 622 1090 622 1090 620 1253.5 c 128,-1,33
 618 1417 618 1417 613 1523 c 0,34,35
 612 1548 612 1548 623 1566 c 128,-1,36
 634 1584 634 1584 653 1591.5 c 128,-1,37
 672 1599 672 1599 690 1602 c 128,-1,38
 708 1605 708 1605 727 1604 c 0,39,40
 746 1604 746 1604 762 1599.5 c 128,-1,41
 778 1595 778 1595 794 1585.5 c 128,-1,42
 810 1576 810 1576 820 1557 c 128,-1,43
 830 1538 830 1538 830 1512 c 0,22,23
EndSplineSet
Validated: 33
EndChar

StartChar: numbersign
Encoding: 35 35 6
Width: 1116
GlyphClass: 2
Flags: W
LayerCount: 2
Fore
SplineSet
331 85 m 1,0,1
 316 42 316 42 271.5 14.5 c 128,-1,2
 227 -13 227 -13 188 0 c 1,3,4
 150 8 150 8 131.5 52 c 128,-1,5
 113 96 113 96 129 149 c 0,6,7
 145 204 145 204 186 388 c 1,8,-1
 125 388 l 2,9,10
 73 388 73 388 46.5 408 c 128,-1,11
 20 428 20 428 20 462 c 0,12,13
 18 499 18 499 42.5 524 c 128,-1,14
 67 549 67 549 120 552 c 0,15,16
 136 553 136 553 170 554 c 128,-1,17
 204 555 204 555 221 556 c 1,18,-1
 291 909 l 1,19,20
 274 909 274 909 245.5 908 c 128,-1,21
 217 907 217 907 206 907 c 0,22,23
 155 905 155 905 128 929 c 128,-1,24
 101 953 101 953 101 988 c 0,25,26
 99 1024 99 1024 125 1050 c 128,-1,27
 151 1076 151 1076 204 1078 c 0,28,29
 243 1080 243 1080 324 1080 c 1,30,31
 382 1390 382 1390 383 1398 c 0,32,33
 399 1450 399 1450 433.5 1470 c 128,-1,34
 468 1490 468 1490 506 1481 c 0,35,36
 550 1472 550 1472 573 1439.5 c 128,-1,37
 596 1407 596 1407 585 1354 c 2,38,-1
 530 1084 l 1,39,-1
 762 1084 l 1,40,-1
 817 1382 l 1,41,42
 833 1436 833 1436 867.5 1456 c 128,-1,43
 902 1476 902 1476 942 1466 c 0,44,45
 987 1457 987 1457 1010 1425 c 128,-1,46
 1033 1393 1033 1393 1019 1339 c 0,47,48
 997 1254 997 1254 968 1087 c 1,49,-1
 992 1087 l 2,50,51
 1042 1087 1042 1087 1074.5 1060 c 128,-1,52
 1107 1033 1107 1033 1109 1001 c 0,53,54
 1109 964 1109 964 1084.5 938.5 c 128,-1,55
 1060 913 1060 913 1010 911 c 2,56,-1
 935 911 l 1,57,-1
 876 561 l 1,58,-1
 960 561 l 2,59,60
 1008 561 1008 561 1026.5 540 c 128,-1,61
 1045 519 1045 519 1047 484 c 0,62,63
 1047 394 1047 394 960 394 c 2,64,-1
 846 394 l 1,65,66
 805 161 805 161 787 77 c 1,67,68
 770 33 770 33 728 10.5 c 128,-1,69
 686 -12 686 -12 646 0 c 0,70,71
 608 8 608 8 589 48.5 c 128,-1,72
 570 89 570 89 585 140 c 0,73,74
 606 222 606 222 638 392 c 1,75,76
 596 392 596 392 514 391 c 128,-1,77
 432 390 432 390 394 390 c 1,78,79
 349 167 349 167 331 85 c 1,0,1
497 911 m 1,80,-1
 427 561 l 1,81,82
 510 563 510 563 668 563 c 1,83,84
 701 730 701 730 732 911 c 1,85,-1
 497 911 l 1,80,-1
EndSplineSet
Validated: 33
EndChar

StartChar: dollar
Encoding: 36 36 7
Width: 1116
GlyphClass: 2
Flags: W
LayerCount: 2
Fore
SplineSet
662 -202 m 1,0,1
 657 -247 657 -247 626.5 -272 c 128,-1,2
 596 -297 596 -297 554 -296 c 0,3,4
 516 -296 516 -296 496.5 -269 c 128,-1,5
 477 -242 477 -242 482 -191 c 0,6,7
 486 -142 486 -142 486 -59 c 1,8,-1
 478 -59 l 2,9,10
 405 -59 405 -59 340.5 -41 c 128,-1,11
 276 -23 276 -23 229 7.5 c 128,-1,12
 182 38 182 38 148.5 73.5 c 128,-1,13
 115 109 115 109 94 149 c 0,14,15
 69 204 69 204 77 239 c 128,-1,16
 85 274 85 274 120 291 c 0,17,18
 144 302 144 302 159 305.5 c 128,-1,19
 174 309 174 309 191.5 307 c 128,-1,20
 209 305 209 305 225.5 291 c 128,-1,21
 242 277 242 277 261 250 c 0,22,23
 302 187 302 187 354.5 150.5 c 128,-1,24
 407 114 407 114 486 114 c 2,25,-1
 491 114 l 1,26,27
 495 456 495 456 495 725 c 1,28,29
 484 726 484 726 459.5 729.5 c 128,-1,30
 435 733 435 733 421 734 c 0,31,32
 348 742 348 742 288 772.5 c 128,-1,33
 228 803 228 803 190.5 846.5 c 128,-1,34
 153 890 153 890 132.5 939 c 128,-1,35
 112 988 112 988 112 1036 c 0,36,37
 112 1110 112 1110 135 1177.5 c 128,-1,38
 158 1245 158 1245 204 1303 c 128,-1,39
 250 1361 250 1361 325 1403 c 128,-1,40
 400 1445 400 1445 497 1463 c 1,41,42
 500 1512 500 1512 500 1582 c 0,43,44
 503 1694 503 1694 583 1694 c 0,45,46
 675 1697 675 1697 675 1588 c 2,47,-1
 675 1479 l 1,48,49
 721 1476 721 1476 801.5 1457.5 c 128,-1,50
 882 1439 882 1439 922 1424 c 0,51,52
 961 1410 961 1410 978.5 1379 c 128,-1,53
 996 1348 996 1348 990 1312 c 0,54,55
 987 1288 987 1288 973.5 1274.5 c 128,-1,56
 960 1261 960 1261 940.5 1258.5 c 128,-1,57
 921 1256 921 1256 903.5 1257.5 c 128,-1,58
 886 1259 886 1259 868 1264 c 0,59,60
 849 1268 849 1268 821 1281.5 c 128,-1,61
 793 1295 793 1295 758 1305 c 128,-1,62
 723 1315 723 1315 673 1317 c 1,63,64
 670 1153 670 1153 666 883 c 1,65,66
 760 870 760 870 833.5 838.5 c 128,-1,67
 907 807 907 807 952 766 c 128,-1,68
 997 725 997 725 1026.5 672 c 128,-1,69
 1056 619 1056 619 1067 567.5 c 128,-1,70
 1078 516 1078 516 1078 460 c 0,71,72
 1078 366 1078 366 1045.5 282.5 c 128,-1,73
 1013 199 1013 199 956 137 c 128,-1,74
 899 75 899 75 823.5 30.5 c 128,-1,75
 748 -14 748 -14 659 -37 c 1,76,77
 659 -160 659 -160 662 -202 c 1,0,1
302 1087 m 0,78,79
 302 1022 302 1022 353.5 973 c 128,-1,80
 405 924 405 924 495 903 c 1,81,82
 497 1045 497 1045 497 1297 c 1,83,84
 409 1271 409 1271 355.5 1216.5 c 128,-1,85
 302 1162 302 1162 302 1087 c 0,78,79
887 425 m 0,86,87
 887 464 887 464 878 497 c 128,-1,88
 869 530 869 530 846.5 566 c 128,-1,89
 824 602 824 602 778 632.5 c 128,-1,90
 732 663 732 663 664 686 c 1,91,92
 663 595 663 595 662 414.5 c 128,-1,93
 661 234 661 234 659 151 c 1,94,95
 758 192 758 192 822.5 263.5 c 128,-1,96
 887 335 887 335 887 425 c 0,86,87
EndSplineSet
Validated: 33
EndChar

StartChar: percent
Encoding: 37 37 8
Width: 1116
GlyphClass: 2
Flags: W
LayerCount: 2
Fore
SplineSet
274 885 m 0,0,1
 202 886 202 886 146.5 925 c 128,-1,2
 91 964 91 964 63.5 1024.5 c 128,-1,3
 36 1085 36 1085 37 1155 c 0,4,5
 37 1281 37 1281 107.5 1362.5 c 128,-1,6
 178 1444 178 1444 307 1444 c 0,7,8
 358 1444 358 1444 402 1427 c 128,-1,9
 446 1410 446 1410 481.5 1375 c 128,-1,10
 517 1340 517 1340 535 1279.5 c 128,-1,11
 553 1219 553 1219 548 1139 c 0,12,13
 541 1014 541 1014 475.5 949 c 128,-1,14
 410 884 410 884 274 885 c 0,0,1
88 39 m 0,15,16
 131 127 131 127 291.5 408.5 c 128,-1,17
 452 690 452 690 613.5 977 c 128,-1,18
 775 1264 775 1264 830 1387 c 1,19,20
 854 1424 854 1424 893.5 1433 c 128,-1,21
 933 1442 933 1442 968 1422 c 0,22,23
 1004 1405 1004 1405 1009.5 1373.5 c 128,-1,24
 1015 1342 1015 1342 988 1297 c 0,25,26
 912 1172 912 1172 626 660 c 128,-1,27
 340 148 340 148 248 -33 c 0,28,29
 195 -131 195 -131 123 -96 c 0,30,31
 40 -57 40 -57 88 39 c 0,15,16
296 1038 m 0,32,33
 347 1037 347 1037 373.5 1070 c 128,-1,34
 400 1103 400 1103 405 1159 c 0,35,36
 407 1229 407 1229 376.5 1262 c 128,-1,37
 346 1295 346 1295 291 1295 c 0,38,39
 242 1295 242 1295 215.5 1259 c 128,-1,40
 189 1223 189 1223 184 1161 c 0,41,42
 182 1104 182 1104 205.5 1073.5 c 128,-1,43
 229 1043 229 1043 296 1038 c 0,32,33
822 -57 m 0,44,45
 750 -56 750 -56 694.5 -17 c 128,-1,46
 639 22 639 22 611.5 82.5 c 128,-1,47
 584 143 584 143 585 213 c 0,48,49
 585 339 585 339 655.5 420.5 c 128,-1,50
 726 502 726 502 854 502 c 0,51,52
 906 502 906 502 950 485 c 128,-1,53
 994 468 994 468 1029.5 433 c 128,-1,54
 1065 398 1065 398 1083 337.5 c 128,-1,55
 1101 277 1101 277 1095 197 c 0,56,57
 1089 72 1089 72 1023.5 6.5 c 128,-1,58
 958 -59 958 -59 822 -57 c 0,44,45
843 99 m 0,59,60
 893 97 893 97 920 130.5 c 128,-1,61
 947 164 947 164 951 217 c 0,62,63
 954 351 954 351 839 351 c 0,64,65
 791 351 791 351 764 315 c 128,-1,66
 737 279 737 279 734 219 c 0,67,68
 732 163 732 163 755.5 132.5 c 128,-1,69
 779 102 779 102 843 99 c 0,59,60
EndSplineSet
Validated: 33
EndChar

StartChar: ampersand
Encoding: 38 38 9
Width: 1116
GlyphClass: 2
Flags: W
LayerCount: 2
Fore
SplineSet
1025 -72 m 0,0,1
 988 -95 988 -95 941 -71 c 128,-1,2
 894 -47 894 -47 861 11 c 0,3,4
 856 21 856 21 836.5 71.5 c 128,-1,5
 817 122 817 122 806 145 c 1,6,7
 800 137 800 137 780 110.5 c 128,-1,8
 760 84 760 84 750 72 c 128,-1,9
 740 60 740 60 717 35 c 128,-1,10
 694 10 694 10 677 -3 c 128,-1,11
 660 -16 660 -16 632 -34.5 c 128,-1,12
 604 -53 604 -53 578 -62 c 128,-1,13
 552 -71 552 -71 517 -78 c 128,-1,14
 482 -85 482 -85 445 -85 c 0,15,16
 330 -85 330 -85 235 -26.5 c 128,-1,17
 140 32 140 32 86.5 128.5 c 128,-1,18
 33 225 33 225 33 337 c 0,19,20
 33 724 33 724 353 865 c 1,21,22
 334 896 334 896 307 938 c 128,-1,23
 280 980 280 980 269 998 c 128,-1,24
 258 1016 258 1016 243.5 1044 c 128,-1,25
 229 1072 229 1072 224 1092.5 c 128,-1,26
 219 1113 219 1113 214.5 1142 c 128,-1,27
 210 1171 210 1171 210 1207 c 256,28,29
 210 1243 210 1243 220 1279 c 128,-1,30
 230 1315 230 1315 254 1352.5 c 128,-1,31
 278 1390 278 1390 313.5 1418.5 c 128,-1,32
 349 1447 349 1447 407 1465 c 128,-1,33
 465 1483 465 1483 537 1483 c 0,34,35
 597 1483 597 1483 654 1464 c 128,-1,36
 711 1445 711 1445 758 1409.5 c 128,-1,37
 805 1374 805 1374 833 1315.5 c 128,-1,38
 861 1257 861 1257 861 1185 c 0,39,40
 861 1120 861 1120 844 1063.5 c 128,-1,41
 827 1007 827 1007 801.5 969 c 128,-1,42
 776 931 776 931 737 896.5 c 128,-1,43
 698 862 698 862 665.5 841.5 c 128,-1,44
 633 821 633 821 589 800 c 1,45,46
 626 737 626 737 714.5 612 c 128,-1,47
 803 487 803 487 828 447 c 1,48,49
 842 475 842 475 859 513 c 128,-1,50
 876 551 876 551 887 575 c 128,-1,51
 898 599 898 599 905 609 c 0,52,53
 941 663 941 663 974 675.5 c 128,-1,54
 1007 688 1007 688 1047 668 c 0,55,56
 1082 651 1082 651 1090 607 c 128,-1,57
 1098 563 1098 563 1071 508 c 0,58,59
 1061 489 1061 489 1010 425.5 c 128,-1,60
 959 362 959 362 925 309 c 1,61,62
 948 271 948 271 989.5 198 c 128,-1,63
 1031 125 1031 125 1038 112 c 0,64,65
 1068 62 1068 62 1062 3.5 c 128,-1,66
 1056 -55 1056 -55 1025 -72 c 0,0,1
405 1172 m 0,67,68
 405 1121 405 1121 433 1059 c 128,-1,69
 461 997 461 997 500 951 c 1,70,71
 546 965 546 965 577 980.5 c 128,-1,72
 608 996 608 996 636 1020 c 128,-1,73
 664 1044 664 1044 677 1080 c 128,-1,74
 690 1116 690 1116 690 1166 c 0,75,76
 690 1242 690 1242 643.5 1281.5 c 128,-1,77
 597 1321 597 1321 532 1321 c 0,78,79
 405 1321 405 1321 405 1172 c 0,67,68
237 357 m 0,80,81
 237 250 237 250 296 178.5 c 128,-1,82
 355 107 355 107 447 107 c 0,83,84
 476 107 476 107 503 112.5 c 128,-1,85
 530 118 530 118 550 124.5 c 128,-1,86
 570 131 570 131 591 145.5 c 128,-1,87
 612 160 612 160 624 169 c 128,-1,88
 636 178 636 178 653 197.5 c 128,-1,89
 670 217 670 217 676.5 225 c 128,-1,90
 683 233 683 233 698 254.5 c 128,-1,91
 713 276 713 276 716 280 c 1,92,93
 680 360 680 360 655 405 c 0,94,95
 630 453 630 453 555.5 559 c 128,-1,96
 481 665 481 665 449 716 c 1,97,98
 388 689 388 689 345 649.5 c 128,-1,99
 302 610 302 610 279 562.5 c 128,-1,100
 256 515 256 515 246.5 465.5 c 128,-1,101
 237 416 237 416 237 357 c 0,80,81
EndSplineSet
Validated: 33
EndChar

StartChar: quotesingle
Encoding: 39 39 10
Width: 1116
GlyphClass: 2
Flags: W
LayerCount: 2
Fore
SplineSet
677 1490 m 0,0,1
 679 1409 679 1409 675 1238 c 128,-1,2
 671 1067 671 1067 662 995 c 0,3,4
 656 953 656 953 626 932.5 c 128,-1,5
 596 912 596 912 563 914 c 0,6,7
 522 916 522 916 490 940 c 128,-1,8
 458 964 458 964 462 1008 c 0,9,10
 469 1115 469 1115 467 1253.5 c 128,-1,11
 465 1392 465 1392 460 1501 c 0,12,13
 459 1526 459 1526 469.5 1544 c 128,-1,14
 480 1562 480 1562 499 1569.5 c 128,-1,15
 518 1577 518 1577 536.5 1580 c 128,-1,16
 555 1583 555 1583 574 1582 c 0,17,18
 592 1582 592 1582 608.5 1577.5 c 128,-1,19
 625 1573 625 1573 641 1563.5 c 128,-1,20
 657 1554 657 1554 666.5 1535 c 128,-1,21
 676 1516 676 1516 677 1490 c 0,0,1
EndSplineSet
Validated: 33
EndChar

StartChar: parenleft
Encoding: 40 40 11
Width: 1116
GlyphClass: 2
Flags: W
LayerCount: 2
Fore
SplineSet
885 -191 m 0,0,1
 885 -224 885 -224 858 -246.5 c 128,-1,2
 831 -269 831 -269 802 -269 c 0,3,4
 665 -269 665 -269 553.5 -170.5 c 128,-1,5
 442 -72 442 -72 372 102.5 c 128,-1,6
 302 277 302 277 280 504 c 0,7,8
 265 654 265 654 286 893.5 c 128,-1,9
 307 1133 307 1133 366 1288 c 0,10,11
 392 1356 392 1356 436.5 1422 c 128,-1,12
 481 1488 481 1488 537.5 1543.5 c 128,-1,13
 594 1599 594 1599 664.5 1633 c 128,-1,14
 735 1667 735 1667 804 1667 c 0,15,16
 887 1667 887 1667 887 1584 c 0,17,18
 887 1540 887 1540 862 1520.5 c 128,-1,19
 837 1501 837 1501 800 1501 c 0,20,21
 747 1501 747 1501 701 1470 c 128,-1,22
 655 1439 655 1439 620 1386 c 128,-1,23
 585 1333 585 1333 559.5 1269.5 c 128,-1,24
 534 1206 534 1206 517 1133 c 0,25,26
 491 1026 491 1026 480.5 840 c 128,-1,27
 470 654 470 654 480 537 c 0,28,29
 490 413 490 413 524 294.5 c 128,-1,30
 558 176 558 176 603 91.5 c 128,-1,31
 648 7 648 7 701 -44.5 c 128,-1,32
 754 -96 754 -96 802 -96 c 0,33,34
 842 -96 842 -96 863.5 -116.5 c 128,-1,35
 885 -137 885 -137 885 -191 c 0,0,1
EndSplineSet
Validated: 33
EndChar

StartChar: parenright
Encoding: 41 41 12
Width: 1116
GlyphClass: 2
Flags: W
LayerCount: 2
Fore
SplineSet
848 504 m 0,0,1
 826 277 826 277 756 102.5 c 128,-1,2
 686 -72 686 -72 574.5 -170.5 c 128,-1,3
 463 -269 463 -269 326 -269 c 0,4,5
 297 -269 297 -269 270 -246.5 c 128,-1,6
 243 -224 243 -224 243 -191 c 0,7,8
 243 -137 243 -137 264.5 -116.5 c 128,-1,9
 286 -96 286 -96 326 -96 c 0,10,11
 374 -96 374 -96 427 -44.5 c 128,-1,12
 480 7 480 7 525 91.5 c 128,-1,13
 570 176 570 176 604 294.5 c 128,-1,14
 638 413 638 413 648 537 c 0,15,16
 659 654 659 654 648 840 c 128,-1,17
 637 1026 637 1026 611 1133 c 0,18,19
 594 1206 594 1206 568.5 1269.5 c 128,-1,20
 543 1333 543 1333 508.5 1386 c 128,-1,21
 474 1439 474 1439 427.5 1470 c 128,-1,22
 381 1501 381 1501 329 1501 c 0,23,24
 291 1501 291 1501 266 1520.5 c 128,-1,25
 241 1540 241 1540 241 1584 c 0,26,27
 241 1610 241 1610 249 1627.5 c 128,-1,28
 257 1645 257 1645 270.5 1653 c 128,-1,29
 284 1661 284 1661 297 1664 c 128,-1,30
 310 1667 310 1667 324 1667 c 0,31,32
 394 1667 394 1667 464 1633 c 128,-1,33
 534 1599 534 1599 590.5 1543.5 c 128,-1,34
 647 1488 647 1488 691.5 1422 c 128,-1,35
 736 1356 736 1356 762 1288 c 0,36,37
 821 1133 821 1133 842 893.5 c 128,-1,38
 863 654 863 654 848 504 c 0,0,1
EndSplineSet
Validated: 33
EndChar

StartChar: asterisk
Encoding: 42 42 13
Width: 1116
GlyphClass: 2
Flags: W
LayerCount: 2
Fore
SplineSet
453 285 m 0,0,1
 445 261 445 261 425 248 c 128,-1,2
 405 235 405 235 381.5 233.5 c 128,-1,3
 358 232 358 232 336.5 236.5 c 128,-1,4
 315 241 315 241 300 250 c 0,5,6
 282 261 282 261 269 280.5 c 128,-1,7
 256 300 256 300 252 328 c 128,-1,8
 248 356 248 356 265 388 c 2,9,-1
 401 611 l 1,10,11
 233 600 233 600 153 600 c 0,12,13
 104 600 104 600 76 632.5 c 128,-1,14
 48 665 48 665 48 703 c 0,15,16
 47 721 47 721 52 740 c 128,-1,17
 57 759 57 759 67.5 777 c 128,-1,18
 78 795 78 795 99 805 c 128,-1,19
 120 815 120 815 147 813 c 0,20,21
 242 805 242 805 425 793 c 1,22,23
 337 942 337 942 280 1021 c 0,24,25
 251 1068 251 1068 256.5 1113.5 c 128,-1,26
 262 1159 262 1159 294 1174 c 0,27,28
 313 1187 313 1187 341 1187.5 c 128,-1,29
 369 1188 369 1188 398 1171.5 c 128,-1,30
 427 1155 427 1155 443 1122 c 0,31,32
 466 1072 466 1072 563 887 c 1,33,34
 644 1027 644 1027 686 1120 c 0,35,36
 701 1152 701 1152 728 1168.5 c 128,-1,37
 755 1185 755 1185 780.5 1184 c 128,-1,38
 806 1183 806 1183 826 1170 c 0,39,40
 846 1160 846 1160 859.5 1137.5 c 128,-1,41
 873 1115 873 1115 872.5 1083.5 c 128,-1,42
 872 1052 872 1052 852 1023 c 0,43,44
 787 927 787 927 708 784 c 1,45,46
 887 784 887 784 962 806 c 0,47,48
 1008 820 1008 820 1041 790 c 128,-1,49
 1074 760 1074 760 1076 725 c 0,50,51
 1076 707 1076 707 1071.5 688 c 128,-1,52
 1067 669 1067 669 1057 650.5 c 128,-1,53
 1047 632 1047 632 1028 622.5 c 128,-1,54
 1009 613 1009 613 984 618 c 0,55,56
 915 631 915 631 710 627 c 1,57,-1
 848 390 l 2,58,59
 871 343 871 343 866 306.5 c 128,-1,60
 861 270 861 270 835 254 c 0,61,62
 815 242 815 242 783.5 240 c 128,-1,63
 752 238 752 238 720.5 252 c 128,-1,64
 689 266 689 266 679 298 c 0,65,66
 653 380 653 380 572 535 c 1,67,68
 476 346 476 346 453 285 c 0,0,1
EndSplineSet
Validated: 33
EndChar

StartChar: plus
Encoding: 43 43 14
Width: 1116
GlyphClass: 2
Flags: W
LayerCount: 2
Fore
SplineSet
633 513 m 0,0,1
 633 465 633 465 612 446 c 128,-1,2
 591 427 591 427 556 425 c 0,3,4
 467 425 467 425 467 513 c 2,5,-1
 467 732 l 1,6,7
 426 732 426 732 356.5 731 c 128,-1,8
 287 730 287 730 261 730 c 0,9,10
 210 730 210 730 185 755.5 c 128,-1,11
 160 781 160 781 160 817 c 0,12,13
 158 855 158 855 182.5 882 c 128,-1,14
 207 909 207 909 259 907 c 0,15,16
 403 903 403 903 467 903 c 1,17,18
 467 1006 467 1006 462 1124 c 0,19,20
 457 1212 457 1212 550 1212 c 0,21,22
 590 1214 590 1214 616.5 1195.5 c 128,-1,23
 643 1177 643 1177 640 1126 c 0,24,25
 633 1008 633 1008 633 900 c 1,26,-1
 859 900 l 2,27,28
 907 900 907 900 925.5 879.5 c 128,-1,29
 944 859 944 859 946 824 c 0,30,31
 946 805 946 805 942.5 790 c 128,-1,32
 939 775 939 775 930 760.5 c 128,-1,33
 921 746 921 746 903 739 c 128,-1,34
 885 732 885 732 859 734 c 0,35,36
 805 740 805 740 631 736 c 1,37,38
 631 680 631 680 632 604.5 c 128,-1,39
 633 529 633 529 633 513 c 0,0,1
EndSplineSet
Validated: 33
EndChar

StartChar: comma
Encoding: 44 44 15
Width: 1116
GlyphClass: 2
Flags: W
LayerCount: 2
Fore
SplineSet
721 197 m 0,0,1
 700 97 700 97 632.5 -112 c 128,-1,2
 565 -321 565 -321 528 -370 c 0,3,4
 495 -414 495 -414 445 -432.5 c 128,-1,5
 395 -451 395 -451 361 -438 c 0,6,7
 340 -432 340 -432 323 -414 c 128,-1,8
 306 -396 306 -396 302 -369.5 c 128,-1,9
 298 -343 298 -343 318 -313 c 0,10,11
 360 -252 360 -252 435.5 -43.5 c 128,-1,12
 511 165 511 165 528 248 c 0,13,14
 534 276 534 276 556.5 292.5 c 128,-1,15
 579 309 579 309 604 309.5 c 128,-1,16
 629 310 629 310 653 305 c 0,17,18
 685 295 685 295 706.5 266.5 c 128,-1,19
 728 238 728 238 721 197 c 0,0,1
EndSplineSet
Validated: 33
EndChar

StartChar: hyphen
Encoding: 45 45 16
Width: 1116
GlyphClass: 2
Flags: W
LayerCount: 2
Fore
SplineSet
326 675 m 0,0,1
 442 675 442 675 603.5 678 c 128,-1,2
 765 681 765 681 787 681 c 0,3,4
 835 681 835 681 853.5 660.5 c 128,-1,5
 872 640 872 640 874 605 c 0,6,7
 874 515 874 515 787 515 c 0,8,9
 760 515 760 515 580.5 506 c 128,-1,10
 401 497 401 497 329 497 c 0,11,12
 241 497 241 497 241 585 c 1,13,14
 236 675 236 675 326 675 c 0,0,1
EndSplineSet
Validated: 33
EndChar

StartChar: period
Encoding: 46 46 17
Width: 1116
GlyphClass: 2
Flags: W
LayerCount: 2
Fore
SplineSet
565 -28 m 0,0,1
 490 -36 490 -36 442 13.5 c 128,-1,2
 394 63 394 63 394 131 c 0,3,4
 394 194 394 194 446.5 239 c 128,-1,5
 499 284 499 284 565 287 c 0,6,7
 637 290 637 290 682 245 c 128,-1,8
 727 200 727 200 727 134 c 0,9,10
 727 69 727 69 683 24.5 c 128,-1,11
 639 -20 639 -20 565 -28 c 0,0,1
EndSplineSet
Validated: 33
EndChar

StartChar: slash
Encoding: 47 47 18
Width: 1116
GlyphClass: 2
Flags: W
LayerCount: 2
Fore
SplineSet
1047 1385 m 0,0,1
 994 1280 994 1280 748 871.5 c 128,-1,2
 502 463 502 463 449 364 c 0,3,4
 416 300 416 300 342.5 149 c 128,-1,5
 269 -2 269 -2 250 -35 c 0,6,7
 217 -92 217 -92 166.5 -115 c 128,-1,8
 116 -138 116 -138 79 -114 c 0,9,10
 48 -97 48 -97 42 -38.5 c 128,-1,11
 36 20 36 20 66 70 c 0,12,13
 366 562 366 562 578 944 c 0,14,15
 712 1179 712 1179 861 1477 c 0,16,17
 878 1509 878 1509 906 1526.5 c 128,-1,18
 934 1544 934 1544 961 1543 c 128,-1,19
 988 1542 988 1542 1014 1531 c 0,20,21
 1051 1512 1051 1512 1061 1474.5 c 128,-1,22
 1071 1437 1071 1437 1047 1385 c 0,0,1
EndSplineSet
Validated: 33
EndChar

StartChar: zero
Encoding: 48 48 19
Width: 1116
GlyphClass: 2
Flags: W
LayerCount: 2
Fore
SplineSet
528 -50 m 0,0,1
 432 -49 432 -49 351 -14.5 c 128,-1,2
 270 20 270 20 212 82 c 128,-1,3
 154 144 154 144 122 235.5 c 128,-1,4
 90 327 90 327 92 438 c 0,5,6
 92 458 92 458 91 539 c 128,-1,7
 90 620 90 620 90.5 668 c 128,-1,8
 91 716 91 716 94 801 c 128,-1,9
 97 886 97 886 104 947.5 c 128,-1,10
 111 1009 111 1009 125.5 1080 c 128,-1,11
 140 1151 140 1151 160 1205 c 0,12,13
 210 1335 210 1335 327.5 1402.5 c 128,-1,14
 445 1470 445 1470 613 1470 c 0,15,16
 696 1470 696 1470 769 1441.5 c 128,-1,17
 842 1413 842 1413 900.5 1358 c 128,-1,18
 959 1303 959 1303 997 1214.5 c 128,-1,19
 1035 1126 1035 1126 1045 1012 c 0,20,21
 1053 910 1053 910 1054.5 780 c 128,-1,22
 1056 650 1056 650 1047.5 517 c 128,-1,23
 1039 384 1039 384 1020.5 315 c 128,-1,24
 1002 246 1002 246 979.5 193 c 128,-1,25
 957 140 957 140 931.5 101 c 128,-1,26
 906 62 906 62 872.5 35 c 128,-1,27
 839 8 839 8 805 -8.5 c 128,-1,28
 771 -25 771 -25 725 -34.5 c 128,-1,29
 679 -44 679 -44 634 -47 c 128,-1,30
 589 -50 589 -50 528 -50 c 0,0,1
291 471 m 0,31,32
 291 462 291 462 292.5 446 c 128,-1,33
 294 430 294 430 294 423 c 1,34,35
 568 798 568 798 789 1194 c 1,36,37
 752 1247 752 1247 698.5 1275.5 c 128,-1,38
 645 1304 645 1304 581 1304 c 0,39,40
 467 1304 467 1304 403.5 1241 c 128,-1,41
 340 1178 340 1178 307 1036 c 0,42,43
 294 985 294 985 288.5 916 c 128,-1,44
 283 847 283 847 284 750 c 128,-1,45
 285 653 285 653 286 613 c 128,-1,46
 287 573 287 573 291 471 c 0,31,32
828 344 m 0,47,48
 836 369 836 369 845.5 479 c 128,-1,49
 855 589 855 589 859 732 c 128,-1,50
 863 875 863 875 852 1006 c 1,51,52
 632 555 632 555 333 250 c 1,53,54
 389 123 389 123 528 123 c 0,55,56
 584 123 584 123 627 132 c 128,-1,57
 670 141 670 141 709.5 164.5 c 128,-1,58
 749 188 749 188 778.5 233 c 128,-1,59
 808 278 808 278 828 344 c 0,47,48
EndSplineSet
Validated: 33
EndChar

StartChar: one
Encoding: 49 49 20
Width: 1116
GlyphClass: 2
Flags: W
LayerCount: 2
Fore
SplineSet
1069 77 m 0,0,1
 1071 36 1071 36 1047 9 c 128,-1,2
 1023 -18 1023 -18 962 -18 c 0,3,4
 936 -18 936 -18 598.5 -14.5 c 128,-1,5
 261 -11 261 -11 160 -11 c 0,6,7
 114 -11 114 -11 93 14 c 128,-1,8
 72 39 72 39 72 77 c 0,9,10
 70 118 70 118 91.5 145.5 c 128,-1,11
 113 173 113 173 162 173 c 0,12,13
 254 173 254 173 478 169 c 1,14,15
 478 250 478 250 475 302 c 0,16,17
 473 319 473 319 474 410 c 128,-1,18
 475 501 475 501 475.5 542.5 c 128,-1,19
 476 584 476 584 480 694.5 c 128,-1,20
 484 805 484 805 486 859.5 c 128,-1,21
 488 914 488 914 492.5 1031.5 c 128,-1,22
 497 1149 497 1149 500 1205 c 1,23,24
 348 1079 348 1079 278 1052 c 0,25,26
 238 1036 238 1036 196 1072.5 c 128,-1,27
 154 1109 154 1109 156 1146 c 0,28,29
 156 1178 156 1178 171.5 1204 c 128,-1,30
 187 1230 187 1230 223 1258 c 0,31,32
 283 1304 283 1304 347.5 1358 c 128,-1,33
 412 1412 412 1412 441.5 1436.5 c 128,-1,34
 471 1461 471 1461 501.5 1478.5 c 128,-1,35
 532 1496 532 1496 556 1496 c 0,36,37
 600 1496 600 1496 646 1459 c 128,-1,38
 692 1422 692 1422 692 1396 c 0,39,40
 691 1348 691 1348 679.5 1061 c 128,-1,41
 668 774 668 774 668 725 c 0,42,43
 668 521 668 521 670 383 c 0,44,45
 670 307 670 307 675 162 c 1,46,47
 734 161 734 161 800.5 159.5 c 128,-1,48
 867 158 867 158 909 157 c 128,-1,49
 951 156 951 156 966 156 c 0,50,51
 1023 156 1023 156 1045 134 c 128,-1,52
 1067 112 1067 112 1069 77 c 0,0,1
EndSplineSet
Validated: 33
EndChar

StartChar: two
Encoding: 50 50 21
Width: 1116
GlyphClass: 2
Flags: W
LayerCount: 2
Fore
SplineSet
973 -24 m 0,0,1
 888 -24 888 -24 759.5 -28 c 128,-1,2
 631 -32 631 -32 532.5 -36 c 128,-1,3
 434 -40 434 -40 331 -40 c 128,-1,4
 228 -40 228 -40 169 -33 c 0,5,6
 124 -28 124 -28 104.5 23 c 128,-1,7
 85 74 85 74 85 171 c 0,8,9
 85 260 85 260 123 356 c 128,-1,10
 161 452 161 452 235.5 541.5 c 128,-1,11
 310 631 310 631 407 686 c 0,12,13
 627 809 627 809 690 858 c 0,14,15
 774 923 774 923 796 998 c 0,16,17
 808 1041 808 1041 808 1104 c 0,18,19
 808 1210 808 1210 746.5 1258 c 128,-1,20
 685 1306 685 1306 570 1306 c 0,21,22
 490 1306 490 1306 417.5 1257.5 c 128,-1,23
 345 1209 345 1209 305 1148 c 0,24,25
 286 1121 286 1121 269.5 1106.5 c 128,-1,26
 253 1092 253 1092 235.5 1090 c 128,-1,27
 218 1088 218 1088 203 1092 c 128,-1,28
 188 1096 188 1096 164 1106 c 0,29,30
 129 1124 129 1124 120.5 1158.5 c 128,-1,31
 112 1193 112 1193 138 1249 c 0,32,33
 158 1288 158 1288 198.5 1327.5 c 128,-1,34
 239 1367 239 1367 293 1401.5 c 128,-1,35
 347 1436 347 1436 418 1457.5 c 128,-1,36
 489 1479 489 1479 561 1479 c 0,37,38
 782 1479 782 1479 897 1376.5 c 128,-1,39
 1012 1274 1012 1274 1012 1069 c 0,40,41
 1012 900 1012 900 925 797 c 0,42,43
 861 721 861 721 697 629 c 0,44,45
 656 605 656 605 556 552 c 0,46,47
 468 505 468 505 408.5 437 c 128,-1,48
 349 369 349 369 322.5 297 c 128,-1,49
 296 225 296 225 291 142 c 1,50,51
 405 136 405 136 511.5 135.5 c 128,-1,52
 618 135 618 135 677.5 138.5 c 128,-1,53
 737 142 737 142 814.5 148 c 128,-1,54
 892 154 892 154 918 156 c 0,55,56
 920 156 920 156 937 157 c 128,-1,57
 954 158 954 158 960 158 c 128,-1,58
 966 158 966 158 980.5 157.5 c 128,-1,59
 995 157 995 157 1002.5 153 c 128,-1,60
 1010 149 1010 149 1019.5 143.5 c 128,-1,61
 1029 138 1029 138 1034 127.5 c 128,-1,62
 1039 117 1039 117 1041 103 c 0,63,64
 1044 79 1044 79 1039 50.5 c 128,-1,65
 1034 22 1034 22 1016.5 -1 c 128,-1,66
 999 -24 999 -24 973 -24 c 0,0,1
EndSplineSet
Validated: 33
EndChar

StartChar: three
Encoding: 51 51 22
Width: 1116
GlyphClass: 2
Flags: W
LayerCount: 2
Fore
SplineSet
1054 407 m 0,0,1
 1054 197 1054 197 924 73.5 c 128,-1,2
 794 -50 794 -50 561 -50 c 0,3,4
 489 -50 489 -50 418 -28.5 c 128,-1,5
 347 -7 347 -7 293 27 c 128,-1,6
 239 61 239 61 198.5 101 c 128,-1,7
 158 141 158 141 138 180 c 0,8,9
 114 228 114 228 122 266.5 c 128,-1,10
 130 305 130 305 164 322 c 0,11,12
 204 342 204 342 238.5 332.5 c 128,-1,13
 273 323 273 323 305 280 c 0,14,15
 350 218 350 218 420 170.5 c 128,-1,16
 490 123 490 123 570 123 c 0,17,18
 692 123 692 123 771 193 c 128,-1,19
 850 263 850 263 850 372 c 0,20,21
 850 439 850 439 829.5 488.5 c 128,-1,22
 809 538 809 538 764 575.5 c 128,-1,23
 719 613 719 613 641.5 632 c 128,-1,24
 564 651 564 651 456 651 c 0,25,26
 414 651 414 651 383.5 684.5 c 128,-1,27
 353 718 353 718 353 760 c 0,28,29
 353 803 353 803 375 830 c 128,-1,30
 397 857 397 857 440 857 c 0,31,32
 612 857 612 857 709.5 925.5 c 128,-1,33
 807 994 807 994 804 1124 c 1,34,35
 807 1217 807 1217 740 1261.5 c 128,-1,36
 673 1306 673 1306 548 1306 c 0,37,38
 523 1306 523 1306 501.5 1301.5 c 128,-1,39
 480 1297 480 1297 464.5 1292 c 128,-1,40
 449 1287 449 1287 432 1274 c 128,-1,41
 415 1261 415 1261 405.5 1253.5 c 128,-1,42
 396 1246 396 1246 381 1227.5 c 128,-1,43
 366 1209 366 1209 360.5 1201.5 c 128,-1,44
 355 1194 355 1194 340 1172 c 0,45,46
 307 1127 307 1127 273 1118.5 c 128,-1,47
 239 1110 239 1110 199 1130 c 0,48,49
 165 1147 165 1147 157 1185 c 128,-1,50
 149 1223 149 1223 173 1273 c 0,51,52
 193 1313 193 1313 224 1348 c 128,-1,53
 255 1383 255 1383 299 1413.5 c 128,-1,54
 343 1444 343 1444 405 1461.5 c 128,-1,55
 467 1479 467 1479 539 1479 c 0,56,57
 775 1479 775 1479 893 1380.5 c 128,-1,58
 1011 1282 1011 1282 1008 1089 c 0,59,60
 1009 1030 1009 1030 993 981.5 c 128,-1,61
 977 933 977 933 950 900 c 128,-1,62
 923 867 923 867 884.5 841.5 c 128,-1,63
 846 816 846 816 806 801.5 c 128,-1,64
 766 787 766 787 721 778 c 1,65,66
 805 760 805 760 864 733.5 c 128,-1,67
 923 707 923 707 967 664.5 c 128,-1,68
 1011 622 1011 622 1032.5 558.5 c 128,-1,69
 1054 495 1054 495 1054 407 c 0,0,1
EndSplineSet
Validated: 33
EndChar

StartChar: four
Encoding: 52 52 23
Width: 1116
GlyphClass: 2
Flags: W
LayerCount: 2
Fore
SplineSet
918 112 m 0,0,1
 931 46 931 46 907 -1 c 128,-1,2
 883 -48 883 -48 837 -48 c 0,3,4
 799 -48 799 -48 762 -18 c 128,-1,5
 725 12 725 12 723 44 c 0,6,7
 722 68 722 68 722 123 c 128,-1,8
 722 178 722 178 722.5 281 c 128,-1,9
 723 384 723 384 723 458 c 1,10,11
 350 463 350 463 206 432 c 0,12,13
 174 425 174 425 147.5 434 c 128,-1,14
 121 443 121 443 105.5 463 c 128,-1,15
 90 483 90 483 81.5 509.5 c 128,-1,16
 73 536 73 536 73.5 565 c 128,-1,17
 74 594 74 594 83 620 c 0,18,19
 104 678 104 678 193.5 807.5 c 128,-1,20
 283 937 283 937 425 1128.5 c 128,-1,21
 567 1320 567 1320 627 1407 c 0,22,23
 654 1445 654 1445 687.5 1465 c 128,-1,24
 721 1485 721 1485 751 1485 c 0,25,26
 792 1489 792 1489 826 1470.5 c 128,-1,27
 860 1452 860 1452 868 1407 c 0,28,29
 880 1335 880 1335 887.5 1186 c 128,-1,30
 895 1037 895 1037 897 933.5 c 128,-1,31
 899 830 899 830 903 620 c 1,32,33
 938 618 938 618 981 618 c 0,34,35
 1029 618 1029 618 1048 597 c 128,-1,36
 1067 576 1067 576 1069 541 c 0,37,38
 1069 451 1069 451 981 451 c 0,39,40
 940 451 940 451 905 453 c 1,41,42
 909 153 909 153 918 112 c 0,0,1
708 1233 m 1,43,44
 404 836 404 836 296 616 c 1,45,46
 456 626 456 626 723 622 c 1,47,48
 723 1006 723 1006 708 1233 c 1,43,44
EndSplineSet
Validated: 33
EndChar

StartChar: five
Encoding: 53 53 24
Width: 1116
GlyphClass: 2
Flags: W
LayerCount: 2
Fore
SplineSet
1063 607 m 0,0,1
 1063 455 1063 455 1025 333 c 128,-1,2
 987 211 987 211 918 130 c 128,-1,3
 849 49 849 49 753.5 6 c 128,-1,4
 658 -37 658 -37 543 -37 c 0,5,6
 453 -37 453 -37 377 -18 c 128,-1,7
 301 1 301 1 249.5 33 c 128,-1,8
 198 65 198 65 163.5 101 c 128,-1,9
 129 137 129 137 107 177 c 0,10,11
 82 233 82 233 90 267.5 c 128,-1,12
 98 302 98 302 134 320 c 0,13,14
 157 330 157 330 172 334 c 128,-1,15
 187 338 187 338 205 336 c 128,-1,16
 223 334 223 334 239 319.5 c 128,-1,17
 255 305 255 305 274 278 c 0,18,19
 367 136 367 136 524 136 c 0,20,21
 678 136 678 136 768.5 257 c 128,-1,22
 859 378 859 378 859 583 c 0,23,24
 859 710 859 710 802 785.5 c 128,-1,25
 745 861 745 861 629 861 c 0,26,27
 598 861 598 861 569.5 857 c 128,-1,28
 541 853 541 853 520.5 848.5 c 128,-1,29
 500 844 500 844 477 833.5 c 128,-1,30
 454 823 454 823 441.5 816.5 c 128,-1,31
 429 810 429 810 409 794 c 128,-1,32
 389 778 389 778 382.5 772 c 128,-1,33
 376 766 376 766 356 747 c 128,-1,34
 336 728 336 728 331 723 c 0,35,36
 314 708 314 708 291.5 698 c 128,-1,37
 269 688 269 688 240 685 c 128,-1,38
 211 682 211 682 182 694 c 0,39,40
 148 709 148 709 130.5 758 c 128,-1,41
 113 807 113 807 110.5 879 c 128,-1,42
 108 951 108 951 111 1017.5 c 128,-1,43
 114 1084 114 1084 119.5 1160 c 128,-1,44
 125 1236 125 1236 125 1266 c 1,45,46
 108 1292 108 1292 104 1326 c 128,-1,47
 100 1360 100 1360 107.5 1389 c 128,-1,48
 115 1418 115 1418 136 1438.5 c 128,-1,49
 157 1459 157 1459 186 1459 c 0,50,51
 262 1459 262 1459 544 1454.5 c 128,-1,52
 826 1450 826 1450 973 1450 c 0,53,54
 999 1450 999 1450 1016.5 1427 c 128,-1,55
 1034 1404 1034 1404 1039 1375.5 c 128,-1,56
 1044 1347 1044 1347 1041 1323 c 0,57,58
 1039 1309 1039 1309 1034 1298.5 c 128,-1,59
 1029 1288 1029 1288 1019.5 1282.5 c 128,-1,60
 1010 1277 1010 1277 1002.5 1273.5 c 128,-1,61
 995 1270 995 1270 980.5 1269 c 128,-1,62
 966 1268 966 1268 960 1268 c 128,-1,63
 954 1268 954 1268 937 1269.5 c 128,-1,64
 920 1271 920 1271 918 1271 c 0,65,66
 889 1272 889 1272 815 1278 c 128,-1,67
 741 1284 741 1284 683.5 1287.5 c 128,-1,68
 626 1291 626 1291 523.5 1291 c 128,-1,69
 421 1291 421 1291 309 1284 c 1,70,71
 308 1263 308 1263 304.5 1165 c 128,-1,72
 301 1067 301 1067 300.5 1023 c 128,-1,73
 300 979 300 979 302 898 c 1,74,75
 360 961 360 961 457.5 1002 c 128,-1,76
 555 1043 555 1043 681 1043 c 0,77,78
 772 1043 772 1043 845 1009 c 128,-1,79
 918 975 918 975 965 916 c 128,-1,80
 1012 857 1012 857 1037.5 778 c 128,-1,81
 1063 699 1063 699 1063 607 c 0,0,1
EndSplineSet
Validated: 33
EndChar

StartChar: six
Encoding: 54 54 25
Width: 1116
GlyphClass: 2
Flags: W
LayerCount: 2
Fore
SplineSet
1063 504 m 0,0,1
 1063 390 1063 390 1025 288 c 128,-1,2
 987 186 987 186 922 113 c 128,-1,3
 857 40 857 40 765.5 -3 c 128,-1,4
 674 -46 674 -46 572 -46 c 0,5,6
 446 -46 446 -46 351 3 c 128,-1,7
 256 52 256 52 196 143 c 128,-1,8
 136 234 136 234 106.5 360.5 c 128,-1,9
 77 487 77 487 79 646 c 0,10,11
 81 823 81 823 114.5 963.5 c 128,-1,12
 148 1104 148 1104 206.5 1200.5 c 128,-1,13
 265 1297 265 1297 350.5 1363.5 c 128,-1,14
 436 1430 436 1430 535 1464.5 c 128,-1,15
 634 1499 634 1499 756 1509 c 0,16,17
 803 1513 803 1513 838.5 1495.5 c 128,-1,18
 874 1478 874 1478 879 1439 c 0,19,20
 882 1414 882 1414 855 1384.5 c 128,-1,21
 828 1355 828 1355 795 1345 c 0,22,23
 773 1339 773 1339 726 1329 c 128,-1,24
 679 1319 679 1319 646.5 1309.5 c 128,-1,25
 614 1300 614 1300 569.5 1281.5 c 128,-1,26
 525 1263 525 1263 481 1228 c 128,-1,27
 437 1193 437 1193 394 1144 c 0,28,29
 349 1090 349 1090 311 998.5 c 128,-1,30
 273 907 273 907 263 835 c 1,31,32
 327 910 327 910 428.5 948 c 128,-1,33
 530 986 530 986 655 986 c 0,34,35
 750 986 750 986 823.5 959 c 128,-1,36
 897 932 897 932 951.5 875 c 128,-1,37
 1006 818 1006 818 1034.5 724.5 c 128,-1,38
 1063 631 1063 631 1063 504 c 0,0,1
267 471 m 0,39,40
 271 426 271 426 285 379.5 c 128,-1,41
 299 333 299 333 325 286.5 c 128,-1,42
 351 240 351 240 385.5 204.5 c 128,-1,43
 420 169 420 169 469 147.5 c 128,-1,44
 518 126 518 126 574 127 c 0,45,46
 649 127 649 127 717 180 c 128,-1,47
 785 233 785 233 824 314.5 c 128,-1,48
 863 396 863 396 863 480 c 0,49,50
 863 576 863 576 846 641 c 128,-1,51
 829 706 829 706 793 741 c 128,-1,52
 757 776 757 776 712 790 c 128,-1,53
 667 804 667 804 602 804 c 0,54,55
 499 804 499 804 409 751 c 128,-1,56
 319 698 319 698 263 616 c 1,57,58
 263 528 263 528 267 471 c 0,39,40
EndSplineSet
Validated: 33
EndChar

StartChar: seven
Encoding: 55 55 26
Width: 1116
GlyphClass: 2
Flags: W
LayerCount: 2
Fore
SplineSet
372 53 m 0,0,1
 348 -1 348 -1 308.5 -27.5 c 128,-1,2
 269 -54 269 -54 230 -46 c 0,3,4
 186 -36 186 -36 168.5 4 c 128,-1,5
 151 44 151 44 173 90 c 0,6,7
 278 301 278 301 397 509.5 c 128,-1,8
 516 718 516 718 594.5 842 c 128,-1,9
 673 966 673 966 739.5 1083.5 c 128,-1,10
 806 1201 806 1201 830 1273 c 1,11,12
 652 1279 652 1279 450.5 1274 c 128,-1,13
 249 1269 249 1269 188 1253 c 0,14,15
 164 1247 164 1247 144.5 1255 c 128,-1,16
 125 1263 125 1263 113 1279.5 c 128,-1,17
 101 1296 101 1296 95 1315 c 128,-1,18
 89 1334 89 1334 88 1352 c 0,19,20
 88 1388 88 1388 106.5 1410 c 128,-1,21
 125 1432 125 1432 175 1442 c 0,22,23
 251 1456 251 1456 385 1460 c 128,-1,24
 519 1464 519 1464 631 1460.5 c 128,-1,25
 743 1457 743 1457 851.5 1452.5 c 128,-1,26
 960 1448 960 1448 968 1448 c 0,27,28
 989 1448 989 1448 1010.5 1438.5 c 128,-1,29
 1032 1429 1032 1429 1049.5 1408.5 c 128,-1,30
 1067 1388 1067 1388 1068 1356 c 128,-1,31
 1069 1324 1069 1324 1049 1279 c 0,32,33
 1020 1217 1020 1217 945 1093.5 c 128,-1,34
 870 970 870 970 789 840 c 128,-1,35
 708 710 708 710 592 494.5 c 128,-1,36
 476 279 476 279 372 53 c 0,0,1
EndSplineSet
Validated: 33
EndChar

StartChar: eight
Encoding: 56 56 27
Width: 1116
GlyphClass: 2
Flags: W
LayerCount: 2
Fore
SplineSet
1065 418 m 0,0,1
 1065 352 1065 352 1047.5 287 c 128,-1,2
 1030 222 1030 222 989 159 c 128,-1,3
 948 96 948 96 888.5 49 c 128,-1,4
 829 2 829 2 737 -27.5 c 128,-1,5
 645 -57 645 -57 532 -57 c 0,6,7
 429 -57 429 -57 345.5 -29 c 128,-1,8
 262 -1 262 -1 209.5 44 c 128,-1,9
 157 89 157 89 121.5 150 c 128,-1,10
 86 211 86 211 71.5 273 c 128,-1,11
 57 335 57 335 57 401 c 0,12,13
 57 471 57 471 92 550.5 c 128,-1,14
 127 630 127 630 194 698 c 128,-1,15
 261 766 261 766 342 793 c 1,16,17
 233 844 233 844 172.5 926.5 c 128,-1,18
 112 1009 112 1009 112 1095 c 0,19,20
 112 1120 112 1120 116 1148 c 128,-1,21
 120 1176 120 1176 132 1213.5 c 128,-1,22
 144 1251 144 1251 163 1285.5 c 128,-1,23
 182 1320 182 1320 215.5 1354.5 c 128,-1,24
 249 1389 249 1389 292 1414 c 128,-1,25
 335 1439 335 1439 399.5 1454.5 c 128,-1,26
 464 1470 464 1470 541 1470 c 0,27,28
 620 1470 620 1470 685 1454.5 c 128,-1,29
 750 1439 750 1439 794 1414 c 128,-1,30
 838 1389 838 1389 871.5 1354.5 c 128,-1,31
 905 1320 905 1320 924 1285.5 c 128,-1,32
 943 1251 943 1251 955 1212 c 128,-1,33
 967 1173 967 1173 971 1144 c 128,-1,34
 975 1115 975 1115 975 1087 c 0,35,36
 975 1062 975 1062 968.5 1038 c 128,-1,37
 962 1014 962 1014 952.5 995 c 128,-1,38
 943 976 943 976 926 955.5 c 128,-1,39
 909 935 909 935 895 921 c 128,-1,40
 881 907 881 907 858 889 c 128,-1,41
 835 871 835 871 821.5 861.5 c 128,-1,42
 808 852 808 852 784 835.5 c 128,-1,43
 760 819 760 819 751 813 c 1,44,45
 827 781 827 781 884.5 739.5 c 128,-1,46
 942 698 942 698 975.5 658 c 128,-1,47
 1009 618 1009 618 1030 573 c 128,-1,48
 1051 528 1051 528 1058 492 c 128,-1,49
 1065 456 1065 456 1065 418 c 0,0,1
305 1102 m 0,50,51
 305 1034 305 1034 367.5 981.5 c 128,-1,52
 430 929 430 929 574 876 c 1,53,54
 660 910 660 910 725.5 970.5 c 128,-1,55
 791 1031 791 1031 791 1082 c 0,56,57
 791 1139 791 1139 758.5 1194.5 c 128,-1,58
 726 1250 726 1250 667 1287 c 128,-1,59
 608 1324 608 1324 541 1323 c 0,60,61
 445 1323 445 1323 375 1254 c 128,-1,62
 305 1185 305 1185 305 1102 c 0,50,51
541 118 m 0,63,64
 601 117 601 117 660 135 c 128,-1,65
 719 153 719 153 767 186.5 c 128,-1,66
 815 220 815 220 844.5 272.5 c 128,-1,67
 874 325 874 325 874 386 c 0,68,69
 874 419 874 419 868.5 448.5 c 128,-1,70
 863 478 863 478 844 516.5 c 128,-1,71
 825 555 825 555 792.5 588 c 128,-1,72
 760 621 760 621 702 656.5 c 128,-1,73
 644 692 644 692 565 721 c 1,74,75
 417 682 417 682 325.5 586 c 128,-1,76
 234 490 234 490 234 381 c 0,77,78
 234 305 234 305 280 243.5 c 128,-1,79
 326 182 326 182 395.5 150.5 c 128,-1,80
 465 119 465 119 541 118 c 0,63,64
EndSplineSet
Validated: 33
EndChar

StartChar: nine
Encoding: 57 57 28
Width: 1116
GlyphClass: 2
Flags: W
LayerCount: 2
Fore
SplineSet
333 -46 m 0,0,1
 286 -50 286 -50 250.5 -32 c 128,-1,2
 215 -14 215 -14 210 24 c 0,3,4
 207 50 207 50 234 79 c 128,-1,5
 261 108 261 108 294 118 c 0,6,7
 317 125 317 125 367.5 135.5 c 128,-1,8
 418 146 418 146 458 156.5 c 128,-1,9
 498 167 498 167 548 186 c 128,-1,10
 598 205 598 205 645 237.5 c 128,-1,11
 692 270 692 270 732 315 c 0,12,13
 783 375 783 375 823 453.5 c 128,-1,14
 863 532 863 532 876 596 c 1,15,16
 819 531 819 531 730.5 506.5 c 128,-1,17
 642 482 642 482 510 482 c 0,18,19
 420 482 420 482 338.5 524 c 128,-1,20
 257 566 257 566 199.5 635 c 128,-1,21
 142 704 142 704 108 795 c 128,-1,22
 74 886 74 886 74 981 c 0,23,24
 74 1095 74 1095 112 1194.5 c 128,-1,25
 150 1294 150 1294 215.5 1364 c 128,-1,26
 281 1434 281 1434 371.5 1474 c 128,-1,27
 462 1514 462 1514 565 1514 c 0,28,29
 816 1514 816 1514 939 1323 c 128,-1,30
 1062 1132 1062 1132 1058 776 c 0,31,32
 1056 613 1056 613 1017.5 480.5 c 128,-1,33
 979 348 979 348 913.5 256 c 128,-1,34
 848 164 848 164 755.5 98.5 c 128,-1,35
 663 33 663 33 558.5 -1 c 128,-1,36
 454 -35 454 -35 333 -46 c 0,0,1
274 1006 m 0,37,38
 274 838 274 838 347 751 c 128,-1,39
 420 664 420 664 563 664 c 0,40,41
 653 664 653 664 739 705 c 128,-1,42
 825 746 825 746 876 817 c 1,43,44
 878 877 878 877 870 997 c 0,45,46
 866 1042 866 1042 852 1088.5 c 128,-1,47
 838 1135 838 1135 812 1181.5 c 128,-1,48
 786 1228 786 1228 751.5 1263.5 c 128,-1,49
 717 1299 717 1299 668 1320.5 c 128,-1,50
 619 1342 619 1342 563 1341 c 0,51,52
 487 1341 487 1341 420 1292.5 c 128,-1,53
 353 1244 353 1244 313.5 1166.5 c 128,-1,54
 274 1089 274 1089 274 1006 c 0,37,38
EndSplineSet
Validated: 33
EndChar

StartChar: colon
Encoding: 58 58 29
Width: 1116
GlyphClass: 2
Flags: W
LayerCount: 2
Fore
SplineSet
697 854 m 0,0,1
 702 787 702 787 681 710 c 0,2,3
 671 669 671 669 637 648 c 128,-1,4
 603 627 603 627 570 629 c 0,5,6
 447 636 447 636 438 723 c 0,7,8
 433 779 433 779 436 865 c 0,9,10
 437 891 437 891 451.5 908.5 c 128,-1,11
 466 926 466 926 488.5 934 c 128,-1,12
 511 942 511 942 531.5 944.5 c 128,-1,13
 552 947 552 947 572 946 c 0,14,15
 590 946 590 946 609 942 c 128,-1,16
 628 938 628 938 648 928.5 c 128,-1,17
 668 919 668 919 681 900 c 128,-1,18
 694 881 694 881 697 854 c 0,0,1
699 307 m 0,19,20
 711 236 711 236 690 160 c 0,21,22
 680 120 680 120 639.5 99.5 c 128,-1,23
 599 79 599 79 563 81 c 0,24,25
 522 83 522 83 483.5 107.5 c 128,-1,26
 445 132 445 132 440 175 c 0,27,28
 438 219 438 219 437.5 229.5 c 128,-1,29
 437 240 437 240 439.5 271 c 128,-1,30
 442 302 442 302 443 318 c 0,31,32
 443 343 443 343 457 361 c 128,-1,33
 471 379 471 379 493 386.5 c 128,-1,34
 515 394 515 394 535 397 c 128,-1,35
 555 400 555 400 574 399 c 0,36,37
 599 399 599 399 623 391.5 c 128,-1,38
 647 384 647 384 670 362 c 128,-1,39
 693 340 693 340 699 307 c 0,19,20
EndSplineSet
Validated: 33
EndChar

StartChar: semicolon
Encoding: 59 59 30
Width: 1116
GlyphClass: 2
Flags: W
LayerCount: 2
Fore
SplineSet
721 769 m 0,0,1
 726 701 726 701 705 624 c 0,2,3
 695 583 695 583 661 562 c 128,-1,4
 627 541 627 541 594 543 c 0,5,6
 568 545 568 545 540.5 554.5 c 128,-1,7
 513 564 513 564 489 586 c 128,-1,8
 465 608 465 608 462 638 c 0,9,10
 457 694 457 694 460 780 c 0,11,12
 461 805 461 805 475.5 823 c 128,-1,13
 490 841 490 841 512.5 848.5 c 128,-1,14
 535 856 535 856 556 859 c 128,-1,15
 577 862 577 862 596 861 c 0,16,17
 615 861 615 861 633.5 857 c 128,-1,18
 652 853 652 853 672 843.5 c 128,-1,19
 692 834 692 834 705 814.5 c 128,-1,20
 718 795 718 795 721 769 c 0,0,1
681 151 m 0,21,22
 676 86 676 86 548 -383 c 0,23,24
 537 -425 537 -425 506.5 -444.5 c 128,-1,25
 476 -464 476 -464 443 -462 c 0,26,27
 402 -460 402 -460 369.5 -436 c 128,-1,28
 337 -412 337 -412 342 -368 c 0,29,30
 346 -319 346 -319 384.5 -128.5 c 128,-1,31
 423 62 423 62 447 162 c 0,32,33
 454 193 454 193 466 211.5 c 128,-1,34
 478 230 478 230 492.5 235.5 c 128,-1,35
 507 241 507 241 523.5 243.5 c 128,-1,36
 540 246 540 246 556 243 c 0,37,38
 575 243 575 243 595.5 238.5 c 128,-1,39
 616 234 616 234 637.5 224.5 c 128,-1,40
 659 215 659 215 671.5 196 c 128,-1,41
 684 177 684 177 681 151 c 0,21,22
EndSplineSet
Validated: 33
EndChar

StartChar: less
Encoding: 60 60 31
Width: 1116
GlyphClass: 2
Flags: W
LayerCount: 2
Fore
SplineSet
1084 28 m 0,0,1
 1074 7 1074 7 1053.5 -6.5 c 128,-1,2
 1033 -20 1033 -20 998 -24.5 c 128,-1,3
 963 -29 963 -29 916 -13 c 0,4,5
 865 3 865 3 789 58.5 c 128,-1,6
 713 114 713 114 626 191.5 c 128,-1,7
 539 269 539 269 453 349 c 128,-1,8
 367 429 367 429 272 513 c 128,-1,9
 177 597 177 597 110 646 c 0,10,11
 84 665 84 665 75.5 701 c 128,-1,12
 67 737 67 737 77 770.5 c 128,-1,13
 87 804 87 804 112 819 c 0,14,15
 228 905 228 905 385 1035.5 c 128,-1,16
 542 1166 542 1166 672.5 1271 c 128,-1,17
 803 1376 803 1376 905 1437 c 0,18,19
 937 1457 937 1457 965.5 1459 c 128,-1,20
 994 1461 994 1461 1014.5 1449 c 128,-1,21
 1035 1437 1035 1437 1049 1421 c 128,-1,22
 1063 1405 1063 1405 1071 1387 c 0,23,24
 1089 1352 1089 1352 1067 1316 c 128,-1,25
 1045 1280 1045 1280 975 1231 c 0,26,27
 861 1151 861 1151 627 968.5 c 128,-1,28
 393 786 393 786 329 738 c 1,29,30
 408 677 408 677 506.5 589 c 128,-1,31
 605 501 605 501 679 430.5 c 128,-1,32
 753 360 753 360 839 286.5 c 128,-1,33
 925 213 925 213 990 171 c 0,34,35
 1056 128 1056 128 1077.5 95.5 c 128,-1,36
 1099 63 1099 63 1084 28 c 0,0,1
EndSplineSet
Validated: 33
EndChar

StartChar: equal
Encoding: 61 61 32
Width: 1116
GlyphClass: 2
Flags: W
LayerCount: 2
Fore
SplineSet
259 1082 m 0,0,1
 376 1078 376 1078 499 1078 c 128,-1,2
 622 1078 622 1078 729.5 1080 c 128,-1,3
 837 1082 837 1082 859 1082 c 0,4,5
 907 1082 907 1082 925.5 1061.5 c 128,-1,6
 944 1041 944 1041 946 1006 c 0,7,8
 946 987 946 987 942.5 971.5 c 128,-1,9
 939 956 939 956 930 942 c 128,-1,10
 921 928 921 928 903 920.5 c 128,-1,11
 885 913 885 913 859 916 c 0,12,13
 785 919 785 919 703.5 917 c 128,-1,14
 622 915 622 915 479 911 c 128,-1,15
 336 907 336 907 269 907 c 0,16,17
 218 907 218 907 189 932 c 128,-1,18
 160 957 160 957 160 992 c 0,19,20
 158 1030 158 1030 182.5 1057 c 128,-1,21
 207 1084 207 1084 259 1082 c 0,0,1
265 675 m 0,22,23
 427 672 427 672 641.5 676.5 c 128,-1,24
 856 681 856 681 859 681 c 0,25,26
 907 681 907 681 925.5 660.5 c 128,-1,27
 944 640 944 640 946 605 c 0,28,29
 946 586 946 586 942.5 571 c 128,-1,30
 939 556 939 556 930 541.5 c 128,-1,31
 921 527 921 527 903 519.5 c 128,-1,32
 885 512 885 512 859 515 c 0,33,34
 785 518 785 518 701.5 516.5 c 128,-1,35
 618 515 618 515 472.5 510.5 c 128,-1,36
 327 506 327 506 261 506 c 0,37,38
 210 506 210 506 185 531.5 c 128,-1,39
 160 557 160 557 160 594 c 0,40,41
 158 629 158 629 185 652.5 c 128,-1,42
 212 676 212 676 265 675 c 0,22,23
EndSplineSet
Validated: 33
EndChar

StartChar: greater
Encoding: 62 62 33
Width: 1116
GlyphClass: 2
Flags: W
LayerCount: 2
Fore
SplineSet
256 11 m 0,0,1
 225 -8 225 -8 196 -10.5 c 128,-1,2
 167 -13 167 -13 146.5 -1 c 128,-1,3
 126 11 126 11 112 27 c 128,-1,4
 98 43 98 43 90 61 c 0,5,6
 72 96 72 96 94 132 c 128,-1,7
 116 168 116 168 186 217 c 0,8,9
 300 297 300 297 534 479.5 c 128,-1,10
 768 662 768 662 833 710 c 1,11,12
 753 771 753 771 654.5 859 c 128,-1,13
 556 947 556 947 482 1017.5 c 128,-1,14
 408 1088 408 1088 322 1161.5 c 128,-1,15
 236 1235 236 1235 171 1277 c 0,16,17
 105 1320 105 1320 83.5 1352.5 c 128,-1,18
 62 1385 62 1385 77 1420 c 0,19,20
 87 1441 87 1441 107.5 1454.5 c 128,-1,21
 128 1468 128 1468 163 1472.5 c 128,-1,22
 198 1477 198 1477 245 1461 c 0,23,24
 296 1445 296 1445 372.5 1390 c 128,-1,25
 449 1335 449 1335 535.5 1257 c 128,-1,26
 622 1179 622 1179 708 1099 c 128,-1,27
 794 1019 794 1019 889 935 c 128,-1,28
 984 851 984 851 1052 802 c 0,29,30
 1077 783 1077 783 1085.5 747 c 128,-1,31
 1094 711 1094 711 1084 677.5 c 128,-1,32
 1074 644 1074 644 1049 629 c 0,33,34
 933 544 933 544 776 413 c 128,-1,35
 619 282 619 282 488.5 177.5 c 128,-1,36
 358 73 358 73 256 11 c 0,0,1
EndSplineSet
Validated: 33
EndChar

StartChar: question
Encoding: 63 63 34
Width: 1116
GlyphClass: 2
Flags: W
LayerCount: 2
Fore
SplineSet
651 537 m 0,0,1
 643 484 643 484 613 455.5 c 128,-1,2
 583 427 583 427 528 440 c 0,3,4
 471 455 471 455 453 493.5 c 128,-1,5
 435 532 435 532 451 598 c 0,6,7
 465 654 465 654 493 702.5 c 128,-1,8
 521 751 521 751 553 786 c 128,-1,9
 585 821 585 821 621 852.5 c 128,-1,10
 657 884 657 884 690 912 c 128,-1,11
 723 940 723 940 749.5 968.5 c 128,-1,12
 776 997 776 997 792 1031 c 128,-1,13
 808 1065 808 1065 808 1104 c 0,14,15
 808 1210 808 1210 746.5 1258 c 128,-1,16
 685 1306 685 1306 570 1306 c 0,17,18
 541 1306 541 1306 512 1293 c 128,-1,19
 483 1280 483 1280 462 1263.5 c 128,-1,20
 441 1247 441 1247 417 1219 c 128,-1,21
 393 1191 393 1191 380 1172.5 c 128,-1,22
 367 1154 367 1154 348 1126 c 0,23,24
 330 1099 330 1099 313.5 1084.5 c 128,-1,25
 297 1070 297 1070 279 1068 c 128,-1,26
 261 1066 261 1066 246.5 1070 c 128,-1,27
 232 1074 232 1074 208 1084 c 0,28,29
 173 1102 173 1102 164.5 1136.5 c 128,-1,30
 156 1171 156 1171 182 1227 c 0,31,32
 204 1269 204 1269 236.5 1309.5 c 128,-1,33
 269 1350 269 1350 316 1390 c 128,-1,34
 363 1430 363 1430 427 1454.5 c 128,-1,35
 491 1479 491 1479 561 1479 c 0,36,37
 782 1479 782 1479 897 1376.5 c 128,-1,38
 1012 1274 1012 1274 1012 1069 c 0,39,40
 1012 1014 1012 1014 994.5 968.5 c 128,-1,41
 977 923 977 923 948 890.5 c 128,-1,42
 919 858 919 858 883.5 829.5 c 128,-1,43
 848 801 848 801 810.5 772.5 c 128,-1,44
 773 744 773 744 740.5 712.5 c 128,-1,45
 708 681 708 681 683.5 636 c 128,-1,46
 659 591 659 591 651 537 c 0,0,1
546 -28 m 0,47,48
 470 -36 470 -36 422.5 13.5 c 128,-1,49
 375 63 375 63 375 131 c 0,50,51
 375 194 375 194 427 239 c 128,-1,52
 479 284 479 284 546 287 c 0,53,54
 617 290 617 290 662.5 245 c 128,-1,55
 708 200 708 200 708 134 c 0,56,57
 708 69 708 69 663.5 24.5 c 128,-1,58
 619 -20 619 -20 546 -28 c 0,47,48
EndSplineSet
Validated: 33
EndChar

StartChar: at
Encoding: 64 64 35
Width: 1116
GlyphClass: 2
Flags: W
LayerCount: 2
Fore
SplineSet
986 11 m 0,0,1
 975 -18 975 -18 964 -40 c 128,-1,2
 953 -62 953 -62 933.5 -93 c 128,-1,3
 914 -124 914 -124 892 -146.5 c 128,-1,4
 870 -169 870 -169 835.5 -193 c 128,-1,5
 801 -217 801 -217 761 -232 c 128,-1,6
 721 -247 721 -247 665.5 -256.5 c 128,-1,7
 610 -266 610 -266 546 -265 c 0,8,9
 438 -265 438 -265 343.5 -211.5 c 128,-1,10
 249 -158 249 -158 180.5 -63 c 128,-1,11
 112 32 112 32 72.5 169 c 128,-1,12
 33 306 33 306 33 467 c 0,13,14
 33 647 33 647 61 803 c 128,-1,15
 89 959 89 959 140 1074.5 c 128,-1,16
 191 1190 191 1190 260 1273 c 128,-1,17
 329 1356 329 1356 413 1397.5 c 128,-1,18
 497 1439 497 1439 589 1439 c 0,19,20
 658 1439 658 1439 714 1428.5 c 128,-1,21
 770 1418 770 1418 822.5 1392 c 128,-1,22
 875 1366 875 1366 915 1323.5 c 128,-1,23
 955 1281 955 1281 988.5 1216.5 c 128,-1,24
 1022 1152 1022 1152 1043.5 1065 c 128,-1,25
 1065 978 1065 978 1077 861.5 c 128,-1,26
 1089 745 1089 745 1089 600 c 0,27,28
 1089 526 1089 526 1078.5 460 c 128,-1,29
 1068 394 1068 394 1045.5 335.5 c 128,-1,30
 1023 277 1023 277 982 242.5 c 128,-1,31
 941 208 941 208 885 208 c 0,32,33
 737 208 737 208 719 381 c 1,34,35
 672 241 672 241 541 241 c 0,36,37
 420 241 420 241 352.5 317 c 128,-1,38
 285 393 285 393 285 548 c 0,39,40
 285 626 285 626 302 692 c 128,-1,41
 319 758 319 758 349 803.5 c 128,-1,42
 379 849 379 849 419 881 c 128,-1,43
 459 913 459 913 505.5 926.5 c 128,-1,44
 552 940 552 940 602 937.5 c 128,-1,45
 652 935 652 935 701 916 c 0,46,47
 749 897 749 897 776.5 866.5 c 128,-1,48
 804 836 804 836 791 811 c 0,49,50
 783 795 783 795 772.5 784.5 c 128,-1,51
 762 774 762 774 747.5 769.5 c 128,-1,52
 733 765 733 765 721 763.5 c 128,-1,53
 709 762 709 762 690.5 765 c 128,-1,54
 672 768 672 768 661.5 770.5 c 128,-1,55
 651 773 651 773 631 778 c 0,56,57
 605 783 605 783 579 781 c 128,-1,58
 553 779 553 779 528.5 763.5 c 128,-1,59
 504 748 504 748 485 724 c 128,-1,60
 466 700 466 700 454.5 661 c 128,-1,61
 443 622 443 622 443 574 c 0,62,63
 443 548 443 548 446 523.5 c 128,-1,64
 449 499 449 499 458 470 c 128,-1,65
 467 441 467 441 486.5 423 c 128,-1,66
 506 405 506 405 535 405 c 0,67,68
 600 405 600 405 627 455.5 c 128,-1,69
 654 506 654 506 657 622 c 0,70,71
 658 654 658 654 710 675 c 0,72,73
 767 698 767 698 806 682 c 0,74,75
 833 671 833 671 830 642 c 0,76,77
 818 533 818 533 824 472.5 c 128,-1,78
 830 412 830 412 844.5 390 c 128,-1,79
 859 368 859 368 885 368 c 0,80,81
 902 368 902 368 914 395 c 128,-1,82
 926 422 926 422 931 464.5 c 128,-1,83
 936 507 936 507 938 540.5 c 128,-1,84
 940 574 940 574 940 605 c 0,85,86
 940 709 940 709 931 797 c 128,-1,87
 922 885 922 885 908 947.5 c 128,-1,88
 894 1010 894 1010 871.5 1060.5 c 128,-1,89
 849 1111 849 1111 828.5 1142.5 c 128,-1,90
 808 1174 808 1174 779.5 1196.5 c 128,-1,91
 751 1219 751 1219 730 1230 c 128,-1,92
 709 1241 709 1241 681 1247.5 c 128,-1,93
 653 1254 653 1254 639 1254.5 c 128,-1,94
 625 1255 625 1255 605 1255 c 0,95,96
 524 1255 524 1255 452 1204 c 128,-1,97
 380 1153 380 1153 326.5 1061.5 c 128,-1,98
 273 970 273 970 241.5 835 c 128,-1,99
 210 700 210 700 210 541 c 0,100,101
 210 401 210 401 231 290 c 128,-1,102
 252 179 252 179 286.5 109.5 c 128,-1,103
 321 40 321 40 367 -6.5 c 128,-1,104
 413 -53 413 -53 459.5 -71.5 c 128,-1,105
 506 -90 506 -90 556 -90 c 0,106,107
 610 -90 610 -90 654.5 -80 c 128,-1,108
 699 -70 699 -70 728 -55.5 c 128,-1,109
 757 -41 757 -41 783.5 -16.5 c 128,-1,110
 810 8 810 8 825 29 c 128,-1,111
 840 50 840 50 859 81 c 0,112,113
 867 96 867 96 873 104.5 c 128,-1,114
 879 113 879 113 887 124 c 128,-1,115
 895 135 895 135 901.5 140 c 128,-1,116
 908 145 908 145 916.5 149.5 c 128,-1,117
 925 154 925 154 935 153.5 c 128,-1,118
 945 153 945 153 955 149 c 0,119,120
 972 143 972 143 982.5 133.5 c 128,-1,121
 993 124 993 124 999.5 109 c 128,-1,122
 1006 94 1006 94 1002.5 69 c 128,-1,123
 999 44 999 44 986 11 c 0,0,1
EndSplineSet
Validated: 33
EndChar

StartChar: A
Encoding: 65 65 36
Width: 1116
GlyphClass: 2
Flags: W
LayerCount: 2
Fore
SplineSet
213 83 m 2,0,1
 193 19 193 19 155.5 -1 c 128,-1,2
 118 -21 118 -21 79 -4 c 0,3,4
 7 28 7 28 35 151 c 0,5,6
 48 217 48 217 153 471 c 1,7,8
 116 495 116 495 116 530 c 0,9,10
 114 558 114 558 142.5 584.5 c 128,-1,11
 171 611 171 611 215 624 c 1,12,13
 466 1210 466 1210 602 1407 c 0,14,15
 632 1448 632 1448 655.5 1466.5 c 128,-1,16
 679 1485 679 1485 708 1485 c 0,17,18
 747 1489 747 1489 778.5 1470.5 c 128,-1,19
 810 1452 810 1452 817 1407 c 0,20,21
 859 1153 859 1153 961 687 c 128,-1,22
 1063 221 1063 221 1102 151 c 0,23,24
 1123 113 1123 113 1119 81 c 128,-1,25
 1115 49 1115 49 1098.5 27.5 c 128,-1,26
 1082 6 1082 6 1058 -4 c 0,27,28
 1020 -21 1020 -21 981 -1 c 128,-1,29
 942 19 942 19 918 83 c 0,30,31
 892 147 892 147 815 515 c 1,32,33
 553 504 553 504 346 471 c 1,34,-1
 213 83 l 2,0,1
668 1233 m 1,35,36
 578 1096 578 1096 412 651 c 1,37,38
 620 675 620 675 782 679 c 1,39,-1
 668 1233 l 1,35,36
EndSplineSet
Validated: 33
EndChar

StartChar: B
Encoding: 66 66 37
Width: 1116
GlyphClass: 2
Flags: W
LayerCount: 2
Fore
SplineSet
436 -28 m 0,0,1
 402 -31 402 -31 359 -35 c 128,-1,2
 316 -39 316 -39 289.5 -41.5 c 128,-1,3
 263 -44 263 -44 234.5 -46 c 128,-1,4
 206 -48 206 -48 185 -47.5 c 128,-1,5
 164 -47 164 -47 147 -44 c 2,6,-1
 140 -44 l 2,7,8
 99 -44 99 -44 72.5 -16 c 128,-1,9
 46 12 46 12 50 61 c 0,10,11
 57 146 57 146 54.5 388 c 128,-1,12
 52 630 52 630 42 887 c 0,13,14
 38 1025 38 1025 38 1072 c 128,-1,15
 38 1119 38 1119 41.5 1198.5 c 128,-1,16
 45 1278 45 1278 46 1308 c 0,17,18
 48 1363 48 1363 76.5 1391.5 c 128,-1,19
 105 1420 105 1420 147 1420 c 2,20,-1
 156 1420 l 1,21,22
 188 1430 188 1430 224.5 1436.5 c 128,-1,23
 261 1443 261 1443 290.5 1446.5 c 128,-1,24
 320 1450 320 1450 354 1451.5 c 128,-1,25
 388 1453 388 1453 406.5 1453 c 128,-1,26
 425 1453 425 1453 448 1453 c 128,-1,27
 471 1453 471 1453 471 1453 c 2,28,29
 610 1453 610 1453 718.5 1401.5 c 128,-1,30
 827 1350 827 1350 890 1253 c 128,-1,31
 953 1156 953 1156 955 1027 c 0,32,33
 957 908 957 908 901 823 c 128,-1,34
 845 738 845 738 749 699 c 1,35,36
 818 676 818 676 884.5 632 c 128,-1,37
 951 588 951 588 996 533.5 c 128,-1,38
 1041 479 1041 479 1041 432 c 0,39,40
 1042 354 1042 354 1001.5 277.5 c 128,-1,41
 961 201 961 201 886 137.5 c 128,-1,42
 811 74 811 74 694 29 c 128,-1,43
 577 -16 577 -16 436 -28 c 0,0,1
467 1290 m 0,44,45
 357 1290 357 1290 252 1264 c 1,46,47
 251 1226 251 1226 247.5 1139 c 128,-1,48
 244 1052 244 1052 242 956.5 c 128,-1,49
 240 861 240 861 241 760 c 1,50,51
 337 756 337 756 423 756 c 0,52,53
 485 756 485 756 536 766 c 128,-1,54
 587 776 587 776 622 792.5 c 128,-1,55
 657 809 657 809 684 833 c 128,-1,56
 711 857 711 857 726 881.5 c 128,-1,57
 741 906 741 906 750.5 935 c 128,-1,58
 760 964 760 964 763.5 988 c 128,-1,59
 767 1012 767 1012 767 1038 c 0,60,61
 767 1092 767 1092 746.5 1136.5 c 128,-1,62
 726 1181 726 1181 693.5 1209 c 128,-1,63
 661 1237 661 1237 620 1256 c 128,-1,64
 579 1275 579 1275 540.5 1282.5 c 128,-1,65
 502 1290 502 1290 467 1290 c 0,44,45
440 609 m 1,66,67
 291 609 291 609 245 607 c 1,68,69
 254 277 254 277 259 138 c 1,70,71
 281 139 281 139 333 140 c 128,-1,72
 385 141 385 141 412 142 c 0,73,74
 506 146 506 146 589 174 c 128,-1,75
 672 202 672 202 724.5 242.5 c 128,-1,76
 777 283 777 283 807 326.5 c 128,-1,77
 837 370 837 370 837 407 c 0,78,79
 837 433 837 433 814.5 460.5 c 128,-1,80
 792 488 792 488 747 516 c 128,-1,81
 702 544 702 544 622.5 569 c 128,-1,82
 543 594 543 594 440 609 c 1,66,67
EndSplineSet
Validated: 33
EndChar

StartChar: C
Encoding: 67 67 38
Width: 1116
GlyphClass: 2
Flags: W
LayerCount: 2
Fore
SplineSet
1038 131 m 0,0,1
 863 -69 863 -69 497 -64 c 0,2,3
 413 -64 413 -64 339 -35.5 c 128,-1,4
 265 -7 265 -7 211 41 c 128,-1,5
 157 89 157 89 117.5 151.5 c 128,-1,6
 78 214 78 214 58.5 284 c 128,-1,7
 39 354 39 354 39 425 c 0,8,9
 39 574 39 574 70 714.5 c 128,-1,10
 101 855 101 855 153 967 c 128,-1,11
 205 1079 205 1079 275 1173 c 128,-1,12
 345 1267 345 1267 423 1329.5 c 128,-1,13
 501 1392 501 1392 583.5 1426.5 c 128,-1,14
 666 1461 666 1461 743 1461 c 0,15,16
 818 1461 818 1461 881 1444 c 1,17,18
 889 1474 889 1474 912.5 1493.5 c 128,-1,19
 936 1513 936 1513 964 1516 c 0,20,21
 997 1522 997 1522 1031.5 1500.5 c 128,-1,22
 1066 1479 1066 1479 1076 1437 c 0,23,24
 1083 1407 1083 1407 1087 1377 c 128,-1,25
 1091 1347 1091 1347 1092.5 1319 c 128,-1,26
 1094 1291 1094 1291 1094 1272.5 c 128,-1,27
 1094 1254 1094 1254 1093.5 1229 c 128,-1,28
 1093 1204 1093 1204 1093 1198 c 0,29,30
 1093 1154 1093 1154 1061.5 1110 c 128,-1,31
 1030 1066 1030 1066 997 1063 c 0,32,33
 960 1057 960 1057 921.5 1082 c 128,-1,34
 883 1107 883 1107 883 1150 c 0,35,36
 883 1166 883 1166 887 1236 c 0,37,38
 884 1238 884 1238 867 1249.5 c 128,-1,39
 850 1261 850 1261 841.5 1266.5 c 128,-1,40
 833 1272 833 1272 817.5 1280 c 128,-1,41
 802 1288 802 1288 787.5 1291.5 c 128,-1,42
 773 1295 773 1295 758 1295 c 0,43,44
 694 1295 694 1295 621.5 1253.5 c 128,-1,45
 549 1212 549 1212 482.5 1136 c 128,-1,46
 416 1060 416 1060 362 962 c 128,-1,47
 308 864 308 864 275.5 740 c 128,-1,48
 243 616 243 616 243 491 c 0,49,50
 243 400 243 400 279 315 c 128,-1,51
 315 230 315 230 380 175 c 128,-1,52
 445 120 445 120 521 120 c 0,53,54
 587 120 587 120 650 133.5 c 128,-1,55
 713 147 713 147 763 169 c 128,-1,56
 813 191 813 191 849 212.5 c 128,-1,57
 885 234 885 234 916 259 c 0,58,59
 942 277 942 277 961.5 286.5 c 128,-1,60
 981 296 981 296 1004 296.5 c 128,-1,61
 1027 297 1027 297 1047 283 c 0,62,63
 1122 226 1122 226 1038 131 c 0,0,1
EndSplineSet
Validated: 33
EndChar

StartChar: D
Encoding: 68 68 39
Width: 1116
GlyphClass: 2
Flags: W
LayerCount: 2
Fore
SplineSet
646 -64 m 0,0,1
 544 -65 544 -65 446.5 -55.5 c 128,-1,2
 349 -46 349 -46 291.5 -33.5 c 128,-1,3
 234 -21 234 -21 190.5 -10.5 c 128,-1,4
 147 0 147 0 140 0 c 0,5,6
 99 0 99 0 72.5 27.5 c 128,-1,7
 46 55 46 55 50 105 c 0,8,9
 57 203 57 203 54.5 454 c 128,-1,10
 52 705 52 705 42 997 c 0,11,12
 39 1111 39 1111 39 1147.5 c 128,-1,13
 39 1184 39 1184 42.5 1260 c 128,-1,14
 46 1336 46 1336 46 1352 c 0,15,16
 48 1407 48 1407 76.5 1435 c 128,-1,17
 105 1463 105 1463 147 1463 c 0,18,19
 174 1463 174 1463 214.5 1459 c 128,-1,20
 255 1455 255 1455 320.5 1442 c 128,-1,21
 386 1429 386 1429 453.5 1407.5 c 128,-1,22
 521 1386 521 1386 599.5 1347 c 128,-1,23
 678 1308 678 1308 748.5 1257 c 128,-1,24
 819 1206 819 1206 885 1129.5 c 128,-1,25
 951 1053 951 1053 999 961.5 c 128,-1,26
 1047 870 1047 870 1075.5 744 c 128,-1,27
 1104 618 1104 618 1104 473 c 0,28,29
 1104 402 1104 402 1084.5 327.5 c 128,-1,30
 1065 253 1065 253 1025.5 183 c 128,-1,31
 986 113 986 113 932.5 58 c 128,-1,32
 879 3 879 3 804.5 -30.5 c 128,-1,33
 730 -64 730 -64 646 -64 c 0,0,1
243 712 m 0,34,35
 246 623 246 623 250.5 446.5 c 128,-1,36
 255 270 255 270 259 180 c 1,37,38
 343 143 343 143 435 127.5 c 128,-1,39
 527 112 527 112 644 112 c 0,40,41
 701 112 701 112 751.5 150.5 c 128,-1,42
 802 189 802 189 835 249.5 c 128,-1,43
 868 310 868 310 887.5 382.5 c 128,-1,44
 907 455 907 455 907 524 c 0,45,46
 907 909 907 909 592 1112 c 0,47,48
 480 1183 480 1183 270 1260 c 1,49,-1
 269 1261 l 1,50,-1
 268 1261 l 1,51,-1
 267 1261 l 1,52,-1
 266 1262 l 1,53,-1
 265 1262 l 1,54,-1
 264 1262 l 1,55,-1
 263 1263 l 1,56,-1
 262 1263 l 1,57,-1
 261 1264 l 1,58,-1
 260 1264 l 1,59,-1
 259 1264 l 1,60,-1
 258 1265 l 1,61,-1
 257 1265 l 1,62,-1
 256 1265 l 1,63,-1
 255 1266 l 1,64,-1
 253 1266 l 1,65,-1
 252 1267 l 1,66,-1
 251 1267 l 1,67,-1
 250 1267 l 1,68,-1
 249 1268 l 1,69,-1
 248 1268 l 1,70,-1
 247 1268 l 1,71,-1
 246 1269 l 1,72,-1
 245 1269 l 1,73,-1
 244 1270 l 1,74,-1
 243 1270 l 1,75,-1
 242 1270 l 1,76,-1
 241 1271 l 1,77,78
 234 1004 234 1004 243 712 c 0,34,35
EndSplineSet
Validated: 33
EndChar

StartChar: E
Encoding: 69 69 40
Width: 1116
GlyphClass: 2
Flags: W
LayerCount: 2
Fore
SplineSet
953 -13 m 0,0,1
 917 -10 917 -10 774.5 -19 c 128,-1,2
 632 -28 632 -28 463 -36 c 128,-1,3
 294 -44 294 -44 199 -37 c 0,4,5
 151 -34 151 -34 104.5 10 c 128,-1,6
 58 54 58 54 50 116 c 0,7,8
 43 169 43 169 43.5 308 c 128,-1,9
 44 447 44 447 46 602.5 c 128,-1,10
 48 758 48 758 42 953 c 0,11,12
 39 1076 39 1076 39 1116 c 128,-1,13
 39 1156 39 1156 42.5 1233 c 128,-1,14
 46 1310 46 1310 46 1330 c 0,15,16
 48 1385 48 1385 76.5 1413.5 c 128,-1,17
 105 1442 105 1442 147 1442 c 0,18,19
 201 1445 201 1445 230 1407 c 1,20,21
 346 1423 346 1423 502.5 1427.5 c 128,-1,22
 659 1432 659 1432 780.5 1428 c 128,-1,23
 902 1424 902 1424 973 1415 c 0,24,25
 1022 1409 1022 1409 1040.5 1390.5 c 128,-1,26
 1059 1372 1059 1372 1060 1339 c 0,27,28
 1060 1320 1060 1320 1056.5 1304.5 c 128,-1,29
 1053 1289 1053 1289 1044 1275 c 128,-1,30
 1035 1261 1035 1261 1016.5 1253.5 c 128,-1,31
 998 1246 998 1246 973 1249 c 0,32,33
 780 1263 780 1263 585 1258 c 128,-1,34
 390 1253 390 1253 250 1233 c 1,35,36
 241 1019 241 1019 241 815 c 1,37,38
 391 816 391 816 649.5 831 c 128,-1,39
 908 846 908 846 940 846 c 0,40,41
 988 846 988 846 1007 825 c 128,-1,42
 1026 804 1026 804 1027 769 c 0,43,44
 1027 679 1027 679 940 679 c 0,45,46
 903 679 903 679 624 659 c 128,-1,47
 345 639 345 639 243 638 c 1,48,49
 244 592 244 592 245 520 c 128,-1,50
 246 448 246 448 246.5 396 c 128,-1,51
 247 344 247 344 248.5 289 c 128,-1,52
 250 234 250 234 253.5 198 c 128,-1,53
 257 162 257 162 263 147 c 1,54,55
 316 132 316 132 582.5 143 c 128,-1,56
 849 154 849 154 925 169 c 0,57,58
 954 173 954 173 975 173 c 128,-1,59
 996 173 996 173 1011 165 c 128,-1,60
 1026 157 1026 157 1035 149 c 128,-1,61
 1044 141 1044 141 1049.5 128 c 128,-1,62
 1055 115 1055 115 1057.5 105 c 128,-1,63
 1060 95 1060 95 1060 83 c 0,64,65
 1060 44 1060 44 1033.5 13 c 128,-1,66
 1007 -18 1007 -18 953 -13 c 0,0,1
EndSplineSet
Validated: 33
EndChar

StartChar: F
Encoding: 70 70 41
Width: 1116
GlyphClass: 2
Flags: W
LayerCount: 2
Fore
SplineSet
261 50 m 1,0,1
 256 6 256 6 220 -20 c 128,-1,2
 184 -46 184 -46 140 -44 c 0,3,4
 99 -44 99 -44 72.5 -16 c 128,-1,5
 46 12 46 12 50 61 c 0,6,7
 57 151 57 151 54.5 406 c 128,-1,8
 52 661 52 661 42 931 c 0,9,10
 38 1069 38 1069 38 1116 c 128,-1,11
 38 1163 38 1163 41.5 1242.5 c 128,-1,12
 45 1322 45 1322 46 1352 c 0,13,14
 48 1407 48 1407 76.5 1435 c 128,-1,15
 105 1463 105 1463 147 1463 c 0,16,17
 203 1467 203 1467 232 1428 c 1,18,19
 433 1443 433 1443 637.5 1446 c 128,-1,20
 842 1449 842 1449 973 1437 c 0,21,22
 1021 1433 1021 1433 1039.5 1413.5 c 128,-1,23
 1058 1394 1058 1394 1060 1360 c 0,24,25
 1060 1322 1060 1322 1037 1294.5 c 128,-1,26
 1014 1267 1014 1267 964 1268 c 0,27,28
 634 1284 634 1284 250 1253 c 1,29,30
 249 1219 249 1219 246 1141.5 c 128,-1,31
 243 1064 243 1064 241.5 985 c 128,-1,32
 240 906 240 906 241 824 c 1,33,34
 349 837 349 837 483.5 834 c 128,-1,35
 618 831 618 831 726 822 c 128,-1,36
 834 813 834 813 898 802 c 0,37,38
 948 793 948 793 966 775 c 128,-1,39
 984 757 984 757 986 725 c 0,40,41
 986 707 986 707 982 691.5 c 128,-1,42
 978 676 978 676 969 661.5 c 128,-1,43
 960 647 960 647 942 640 c 128,-1,44
 924 633 924 633 898 635 c 0,45,46
 835 645 835 645 723.5 652.5 c 128,-1,47
 612 660 612 660 473 660.5 c 128,-1,48
 334 661 334 661 243 648 c 1,49,50
 259 105 259 105 261 50 c 1,0,1
EndSplineSet
Validated: 33
EndChar

StartChar: G
Encoding: 71 71 42
Width: 1116
GlyphClass: 2
Flags: W
LayerCount: 2
Fore
SplineSet
1041 500 m 0,0,1
 1036 456 1036 456 1015 399 c 128,-1,2
 994 342 994 342 960.5 278 c 128,-1,3
 927 214 927 214 878 153 c 128,-1,4
 829 92 829 92 772.5 43 c 128,-1,5
 716 -6 716 -6 644 -35.5 c 128,-1,6
 572 -65 572 -65 497 -64 c 0,7,8
 413 -64 413 -64 339 -35.5 c 128,-1,9
 265 -7 265 -7 211 41 c 128,-1,10
 157 89 157 89 117.5 151.5 c 128,-1,11
 78 214 78 214 58.5 284 c 128,-1,12
 39 354 39 354 39 425 c 0,13,14
 39 577 39 577 70 720.5 c 128,-1,15
 101 864 101 864 153 978.5 c 128,-1,16
 205 1093 205 1093 275 1189 c 128,-1,17
 345 1285 345 1285 423 1349 c 128,-1,18
 501 1413 501 1413 583.5 1448 c 128,-1,19
 666 1483 666 1483 743 1483 c 0,20,21
 828 1483 828 1483 934.5 1443 c 128,-1,22
 1041 1403 1041 1403 1071 1374 c 0,23,24
 1117 1328 1117 1328 1093 1258 c 0,25,26
 1085 1232 1085 1232 1054.5 1219.5 c 128,-1,27
 1024 1207 1024 1207 992 1218 c 0,28,29
 979 1223 979 1223 934 1249.5 c 128,-1,30
 889 1276 889 1276 842.5 1296.5 c 128,-1,31
 796 1317 796 1317 758 1317 c 0,32,33
 694 1317 694 1317 621.5 1274.5 c 128,-1,34
 549 1232 549 1232 482.5 1153.5 c 128,-1,35
 416 1075 416 1075 362 974.5 c 128,-1,36
 308 874 308 874 275.5 747 c 128,-1,37
 243 620 243 620 243 491 c 0,38,39
 243 400 243 400 279 315 c 128,-1,40
 315 230 315 230 380 175 c 128,-1,41
 445 120 445 120 521 120 c 0,42,43
 571 120 571 120 622 152 c 128,-1,44
 673 184 673 184 714.5 233.5 c 128,-1,45
 756 283 756 283 793 344 c 128,-1,46
 830 405 830 405 854.5 463 c 128,-1,47
 879 521 879 521 892 570 c 1,48,49
 763 564 763 564 640 547 c 128,-1,50
 517 530 517 530 469 504 c 0,51,52
 435 485 435 485 403 505.5 c 128,-1,53
 371 526 371 526 366 561 c 0,54,55
 354 639 354 639 445 681 c 0,56,57
 503 710 503 710 694.5 726 c 128,-1,58
 886 742 886 742 997 736 c 0,59,60
 1048 733 1048 733 1068 717.5 c 128,-1,61
 1088 702 1088 702 1093 670 c 0,62,63
 1102 595 1102 595 1049 576 c 1,64,65
 1049 569 1049 569 1045.5 542.5 c 128,-1,66
 1042 516 1042 516 1041 500 c 0,0,1
EndSplineSet
Validated: 33
EndChar

StartChar: H
Encoding: 72 72 43
Width: 1116
GlyphClass: 2
Flags: W
LayerCount: 2
Fore
SplineSet
1027 50 m 1,0,1
 1023 6 1023 6 987 -20 c 128,-1,2
 951 -46 951 -46 907 -44 c 0,3,4
 866 -44 866 -44 839.5 -16 c 128,-1,5
 813 12 813 12 817 61 c 0,6,7
 837 345 837 345 835 701 c 1,8,9
 801 699 801 699 584.5 668.5 c 128,-1,10
 368 638 368 638 276 638 c 1,11,12
 276 631 276 631 275 616.5 c 128,-1,13
 274 602 274 602 274 596 c 0,14,15
 262 393 262 393 274 50 c 1,16,17
 269 6 269 6 233 -20 c 128,-1,18
 197 -46 197 -46 153 -44 c 0,19,20
 113 -44 113 -44 86 -16 c 128,-1,21
 59 12 59 12 64 61 c 0,22,23
 66 90 66 90 67 153.5 c 128,-1,24
 68 217 68 217 68 324 c 128,-1,25
 68 431 68 431 70 517 c 0,26,27
 71 586 71 586 74.5 715.5 c 128,-1,28
 78 845 78 845 78.5 908 c 128,-1,29
 79 971 79 971 77 1095 c 0,30,31
 75 1187 75 1187 75.5 1213 c 128,-1,32
 76 1239 76 1239 78 1284 c 128,-1,33
 80 1329 80 1329 81 1352 c 0,34,35
 83 1407 83 1407 111.5 1435 c 128,-1,36
 140 1463 140 1463 182 1463 c 0,37,38
 227 1465 227 1465 257 1439.5 c 128,-1,39
 287 1414 287 1414 287 1358 c 0,40,41
 287 1337 287 1337 281.5 1269.5 c 128,-1,42
 276 1202 276 1202 276 1144 c 0,43,44
 276 1091 276 1091 278 982 c 128,-1,45
 280 873 280 873 280 815 c 1,46,47
 387 816 387 816 500 827.5 c 128,-1,48
 613 839 613 839 705 852 c 128,-1,49
 797 865 797 865 833 868 c 1,50,51
 833 882 833 882 831.5 910.5 c 128,-1,52
 830 939 830 939 830 953 c 0,53,54
 828 1081 828 1081 828 1121.5 c 128,-1,55
 828 1162 828 1162 831 1248 c 128,-1,56
 834 1334 834 1334 835 1352 c 0,57,58
 836 1407 836 1407 865 1435 c 128,-1,59
 894 1463 894 1463 935 1463 c 0,60,61
 981 1465 981 1465 1011 1439.5 c 128,-1,62
 1041 1414 1041 1414 1041 1358 c 0,63,64
 1041 1319 1041 1319 1038.5 1198.5 c 128,-1,65
 1036 1078 1036 1078 1035.5 986.5 c 128,-1,66
 1035 895 1035 895 1038 723 c 0,67,68
 1042 580 1042 580 1034 347 c 128,-1,69
 1026 114 1026 114 1027 50 c 1,0,1
EndSplineSet
Validated: 33
EndChar

StartChar: I
Encoding: 73 73 44
Width: 1116
GlyphClass: 2
Flags: W
LayerCount: 2
Fore
SplineSet
981 -22 m 0,0,1
 927 -14 927 -14 807 -13.5 c 128,-1,2
 687 -13 687 -13 571.5 -16.5 c 128,-1,3
 456 -20 456 -20 326.5 -24 c 128,-1,4
 197 -28 197 -28 147 -28 c 0,5,6
 94 -28 94 -28 68 -8 c 128,-1,7
 42 12 42 12 42 46 c 0,8,9
 40 82 40 82 64.5 107.5 c 128,-1,10
 89 133 89 133 142 136 c 0,11,12
 229 140 229 140 445 145 c 1,13,14
 467 495 467 495 456 887 c 0,15,16
 453 960 453 960 452.5 1026 c 128,-1,17
 452 1092 452 1092 452.5 1120 c 128,-1,18
 453 1148 453 1148 456.5 1209 c 128,-1,19
 460 1270 460 1270 460 1279 c 1,20,21
 273 1283 273 1283 162 1279 c 0,22,23
 111 1278 111 1278 84 1301.5 c 128,-1,24
 57 1325 57 1325 57 1360 c 0,25,26
 55 1396 55 1396 81 1422.5 c 128,-1,27
 107 1449 107 1449 160 1450 c 0,28,29
 673 1465 673 1465 971 1435 c 0,30,31
 1061 1427 1061 1427 1065 1352 c 0,32,33
 1065 1334 1065 1334 1059.5 1316 c 128,-1,34
 1054 1298 1054 1298 1043 1281.5 c 128,-1,35
 1032 1265 1032 1265 1012 1256.5 c 128,-1,36
 992 1248 992 1248 966 1253 c 0,37,38
 905 1263 905 1263 666 1275 c 1,39,40
 666 1259 666 1259 664 1183 c 128,-1,41
 662 1107 662 1107 661.5 1062.5 c 128,-1,42
 661 1018 661 1018 661.5 934 c 128,-1,43
 662 850 662 850 664 767 c 0,44,45
 668 622 668 622 660.5 405.5 c 128,-1,46
 653 189 653 189 653 147 c 1,47,48
 742 147 742 147 857 146 c 128,-1,49
 972 145 972 145 981 145 c 0,50,51
 1029 145 1029 145 1048 124 c 128,-1,52
 1067 103 1067 103 1069 68 c 0,53,54
 1069 49 1069 49 1065.5 33.5 c 128,-1,55
 1062 18 1062 18 1053 3 c 128,-1,56
 1044 -12 1044 -12 1025.5 -19 c 128,-1,57
 1007 -26 1007 -26 981 -22 c 0,0,1
EndSplineSet
Validated: 33
EndChar

StartChar: J
Encoding: 74 74 45
Width: 1116
GlyphClass: 2
Flags: W
LayerCount: 2
Fore
SplineSet
776 440 m 0,0,1
 760 255 760 255 727.5 140.5 c 128,-1,2
 695 26 695 26 648 -23 c 128,-1,3
 601 -72 601 -72 535 -72 c 0,4,5
 465 -72 465 -72 398.5 -47 c 128,-1,6
 332 -22 332 -22 282 18.5 c 128,-1,7
 232 59 232 59 189 107 c 128,-1,8
 146 155 146 155 117.5 203 c 128,-1,9
 89 251 89 251 72.5 289.5 c 128,-1,10
 56 328 56 328 53 351 c 0,11,12
 48 369 48 369 50.5 394 c 128,-1,13
 53 419 53 419 59 441.5 c 128,-1,14
 65 464 65 464 84 481.5 c 128,-1,15
 103 499 103 499 134 504 c 0,16,17
 180 512 180 512 207 486.5 c 128,-1,18
 234 461 234 461 234 421 c 0,19,20
 234 398 234 398 241.5 366.5 c 128,-1,21
 249 335 249 335 268.5 293.5 c 128,-1,22
 288 252 288 252 317.5 217.5 c 128,-1,23
 347 183 347 183 397.5 159.5 c 128,-1,24
 448 136 448 136 510 136 c 0,25,26
 583 136 583 136 594 491 c 0,27,28
 595 536 595 536 590.5 779.5 c 128,-1,29
 586 1023 586 1023 589 1277 c 1,30,31
 360 1284 360 1284 184 1279 c 0,32,33
 133 1278 133 1278 106 1301.5 c 128,-1,34
 79 1325 79 1325 79 1360 c 0,35,36
 77 1396 77 1396 103 1422.5 c 128,-1,37
 129 1449 129 1449 182 1450 c 0,38,39
 695 1465 695 1465 992 1435 c 0,40,41
 1082 1427 1082 1427 1087 1352 c 0,42,43
 1087 1334 1087 1334 1081.5 1316 c 128,-1,44
 1076 1298 1076 1298 1065 1281.5 c 128,-1,45
 1054 1265 1054 1265 1034 1256.5 c 128,-1,46
 1014 1248 1014 1248 988 1253 c 0,47,48
 917 1264 917 1264 767 1271 c 1,49,50
 767 1211 767 1211 771.5 1091 c 128,-1,51
 776 971 776 971 779.5 872 c 128,-1,52
 783 773 783 773 782.5 651 c 128,-1,53
 782 529 782 529 776 440 c 0,0,1
EndSplineSet
Validated: 33
EndChar

StartChar: K
Encoding: 75 75 46
Width: 1116
GlyphClass: 2
Flags: W
LayerCount: 2
Fore
SplineSet
261 50 m 1,0,1
 256 6 256 6 220 -20 c 128,-1,2
 184 -46 184 -46 140 -44 c 0,3,4
 99 -44 99 -44 72.5 -16 c 128,-1,5
 46 12 46 12 50 61 c 0,6,7
 57 151 57 151 54.5 406 c 128,-1,8
 52 661 52 661 42 931 c 0,9,10
 38 1062 38 1062 38 1108.5 c 128,-1,11
 38 1155 38 1155 42 1242.5 c 128,-1,12
 46 1330 46 1330 46 1352 c 0,13,14
 48 1407 48 1407 76.5 1435 c 128,-1,15
 105 1463 105 1463 147 1463 c 0,16,17
 192 1465 192 1465 222 1439.5 c 128,-1,18
 252 1414 252 1414 252 1358 c 0,19,20
 252 1309 252 1309 247 1143 c 128,-1,21
 242 977 242 977 241 868 c 1,22,23
 315 939 315 939 464 1085 c 128,-1,24
 613 1231 613 1231 700.5 1315.5 c 128,-1,25
 788 1400 788 1400 813 1422 c 0,26,27
 841 1449 841 1449 868 1458 c 128,-1,28
 895 1467 895 1467 914.5 1461.5 c 128,-1,29
 934 1456 934 1456 951 1439 c 0,30,31
 1004 1382 1004 1382 933 1297 c 0,32,33
 902 1260 902 1260 716 1072 c 128,-1,34
 530 884 530 884 386 745 c 1,35,36
 455 672 455 672 622 515.5 c 128,-1,37
 789 359 789 359 911.5 240 c 128,-1,38
 1034 121 1034 121 1047 90 c 0,39,40
 1059 52 1059 52 1047.5 21 c 128,-1,41
 1036 -10 1036 -10 1010 -26 c 0,42,43
 941 -74 941 -74 874 9 c 0,44,45
 853 35 853 35 727.5 149.5 c 128,-1,46
 602 264 602 264 456.5 402.5 c 128,-1,47
 311 541 311 541 243 622 c 1,48,-1
 243 581 l 2,49,50
 244 548 244 548 261 50 c 1,0,1
EndSplineSet
Validated: 33
EndChar

StartChar: L
Encoding: 76 76 47
Width: 1116
GlyphClass: 2
Flags: W
LayerCount: 2
Fore
SplineSet
977 20 m 0,0,1
 837 -7 837 -7 554.5 -19 c 128,-1,2
 272 -31 272 -31 140 -31 c 0,3,4
 99 -31 99 -31 72.5 -3 c 128,-1,5
 46 25 46 25 50 74 c 0,6,7
 51 90 51 90 74 308.5 c 128,-1,8
 97 527 97 527 107 730 c 0,9,10
 113 822 113 822 109 1067.5 c 128,-1,11
 105 1313 105 1313 105 1334 c 0,12,13
 107 1390 107 1390 136 1418 c 128,-1,14
 165 1446 165 1446 206 1446 c 0,15,16
 251 1448 251 1448 281 1422 c 128,-1,17
 311 1396 311 1396 311 1341 c 0,18,19
 311 1282 311 1282 307.5 1179.5 c 128,-1,20
 304 1077 304 1077 298.5 921 c 128,-1,21
 293 765 293 765 289 651 c 0,22,23
 286 566 286 566 273.5 402 c 128,-1,24
 261 238 261 238 261 147 c 1,25,26
 434 145 434 145 661 167 c 128,-1,27
 888 189 888 189 964 208 c 0,28,29
 988 214 988 214 1008 206.5 c 128,-1,30
 1028 199 1028 199 1039.5 182 c 128,-1,31
 1051 165 1051 165 1057.5 146 c 128,-1,32
 1064 127 1064 127 1065 110 c 0,33,34
 1065 73 1065 73 1046.5 51 c 128,-1,35
 1028 29 1028 29 977 20 c 0,0,1
EndSplineSet
Validated: 33
EndChar

StartChar: M
Encoding: 77 77 48
Width: 1116
GlyphClass: 2
Flags: W
LayerCount: 2
Fore
SplineSet
191 120 m 0,0,1
 194 55 194 55 164.5 17 c 128,-1,2
 135 -21 135 -21 94 -20 c 0,3,4
 20 -17 20 -17 20 131 c 0,5,6
 20 156 20 156 25.5 215.5 c 128,-1,7
 31 275 31 275 41 371 c 128,-1,8
 51 467 51 467 57 539 c 0,9,10
 59 563 59 563 63 614 c 0,11,12
 75 766 75 766 82.5 851 c 128,-1,13
 90 936 90 936 103 1062.5 c 128,-1,14
 116 1189 116 1189 129 1262.5 c 128,-1,15
 142 1336 142 1336 156 1363 c 0,16,17
 177 1405 177 1405 220 1425 c 128,-1,18
 263 1445 263 1445 302 1442 c 0,19,20
 394 1442 394 1442 414 1367 c 0,21,22
 438 1277 438 1277 467 1069 c 128,-1,23
 496 861 496 861 527 594 c 128,-1,24
 558 327 558 327 570 241 c 1,25,26
 591 530 591 530 616 762 c 0,27,28
 634 933 634 933 666 1104 c 128,-1,29
 698 1275 698 1275 721 1367 c 0,30,31
 729 1398 729 1398 755.5 1416.5 c 128,-1,32
 782 1435 782 1435 809.5 1439.5 c 128,-1,33
 837 1444 837 1444 863 1442 c 0,34,35
 866 1442 866 1442 871 1442 c 0,36,37
 888 1442 888 1442 899 1441.5 c 128,-1,38
 910 1441 910 1441 929 1436.5 c 128,-1,39
 948 1432 948 1432 959.5 1424 c 128,-1,40
 971 1416 971 1416 982 1398.5 c 128,-1,41
 993 1381 993 1381 997 1356 c 0,42,43
 1005 1294 1005 1294 1044.5 756 c 128,-1,44
 1084 218 1084 218 1100 147 c 0,45,46
 1128 24 1128 24 1056 -9 c 0,47,48
 1017 -25 1017 -25 979.5 -5 c 128,-1,49
 942 15 942 15 922 79 c 0,50,51
 879 216 879 216 846 1275 c 1,52,53
 787 979 787 979 769 736 c 0,54,55
 750 502 750 502 719 291.5 c 128,-1,56
 688 81 688 81 668 35 c 0,57,58
 646 -15 646 -15 554 -15 c 0,59,60
 514 -17 514 -17 487 -2 c 128,-1,61
 460 13 460 13 453 39 c 0,62,63
 429 138 429 138 372.5 490.5 c 128,-1,64
 316 843 316 843 269 1168 c 1,65,66
 263 1103 263 1103 256 1020 c 128,-1,67
 249 937 249 937 245 877 c 128,-1,68
 241 817 241 817 233 698.5 c 128,-1,69
 225 580 225 580 221 519 c 0,70,71
 216 434 216 434 207.5 341.5 c 128,-1,72
 199 249 199 249 194.5 196.5 c 128,-1,73
 190 144 190 144 191 120 c 0,0,1
EndSplineSet
Validated: 33
EndChar

StartChar: N
Encoding: 78 78 49
Width: 1116
GlyphClass: 2
Flags: W
LayerCount: 2
Fore
SplineSet
911 -28 m 0,0,1
 873 -30 873 -30 847 -14.5 c 128,-1,2
 821 1 821 1 811 26 c 0,3,4
 792 67 792 67 712.5 207 c 128,-1,5
 633 347 633 347 548 497 c 128,-1,6
 463 647 463 647 370 833.5 c 128,-1,7
 277 1020 277 1020 230 1152 c 1,8,9
 242 929 242 929 239 736 c 128,-1,10
 236 543 236 543 229.5 343.5 c 128,-1,11
 223 144 223 144 226 101 c 0,12,13
 229 36 229 36 200 5 c 128,-1,14
 171 -26 171 -26 129 -24 c 0,15,16
 87 -23 87 -23 71 11.5 c 128,-1,17
 55 46 55 46 55 112 c 0,18,19
 55 152 55 152 61 429.5 c 128,-1,20
 67 707 67 707 69.5 914 c 128,-1,21
 72 1121 72 1121 66 1310 c 0,22,23
 63 1351 63 1351 75.5 1379.5 c 128,-1,24
 88 1408 88 1408 110.5 1422 c 128,-1,25
 133 1436 133 1436 158 1440.5 c 128,-1,26
 183 1445 183 1445 210 1442 c 0,27,28
 299 1442 299 1442 322 1367 c 0,29,30
 365 1232 365 1232 559.5 869 c 128,-1,31
 754 506 754 506 889 283 c 1,32,33
 897 476 897 476 893 843 c 128,-1,34
 889 1210 889 1210 874 1328 c 0,35,36
 868 1377 868 1377 893.5 1410.5 c 128,-1,37
 919 1444 919 1444 960 1444 c 0,38,39
 983 1444 983 1444 999 1439 c 128,-1,40
 1015 1434 1015 1434 1024.5 1427 c 128,-1,41
 1034 1420 1034 1420 1040 1403.5 c 128,-1,42
 1046 1387 1046 1387 1049 1373.5 c 128,-1,43
 1052 1360 1052 1360 1056 1332 c 0,44,45
 1061 1299 1061 1299 1062.5 1002.5 c 128,-1,46
 1064 706 1064 706 1055 389 c 128,-1,47
 1046 72 1046 72 1025 22 c 0,48,49
 1003 -28 1003 -28 911 -28 c 0,0,1
EndSplineSet
Validated: 33
EndChar

StartChar: O
Encoding: 79 79 50
Width: 1116
GlyphClass: 2
Flags: W
LayerCount: 2
Fore
SplineSet
493 -50 m 0,0,1
 367 -48 367 -48 267 27 c 128,-1,2
 167 102 167 102 113 228 c 128,-1,3
 59 354 59 354 61 504 c 0,4,5
 61 515 61 515 61 539 c 0,6,7
 61 631 61 631 62.5 686.5 c 128,-1,8
 64 742 64 742 70.5 834 c 128,-1,9
 77 926 77 926 94.5 1008.5 c 128,-1,10
 112 1091 112 1091 140 1166 c 0,11,12
 192 1300 192 1300 321 1385 c 128,-1,13
 450 1470 450 1470 613 1470 c 0,14,15
 695 1470 695 1470 770 1438.5 c 128,-1,16
 845 1407 845 1407 905 1347.5 c 128,-1,17
 965 1288 965 1288 1004.5 1196 c 128,-1,18
 1044 1104 1044 1104 1054 990 c 0,19,20
 1062 888 1062 888 1063.5 770.5 c 128,-1,21
 1065 653 1065 653 1056.5 533 c 128,-1,22
 1048 413 1048 413 1030 344 c 0,23,24
 1004 248 1004 248 965 178.5 c 128,-1,25
 926 109 926 109 879 65 c 128,-1,26
 832 21 832 21 769.5 -5 c 128,-1,27
 707 -31 707 -31 642 -40.5 c 128,-1,28
 577 -50 577 -50 493 -50 c 0,0,1
493 123 m 0,29,30
 548 123 548 123 599 136.5 c 128,-1,31
 650 150 650 150 696.5 179 c 128,-1,32
 743 208 743 208 780 257.5 c 128,-1,33
 817 307 817 307 837 372 c 0,34,35
 845 398 845 398 854 494.5 c 128,-1,36
 863 591 863 591 867.5 724.5 c 128,-1,37
 872 858 872 858 861 988 c 0,38,39
 849 1123 849 1123 773.5 1213.5 c 128,-1,40
 698 1304 698 1304 589 1304 c 0,41,42
 478 1304 478 1304 404 1223 c 128,-1,43
 330 1142 330 1142 296 997 c 0,44,45
 250 803 250 803 261 537 c 0,46,47
 264 472 264 472 271.5 416 c 128,-1,48
 279 360 279 360 296.5 304.5 c 128,-1,49
 314 249 314 249 339 210 c 128,-1,50
 364 171 364 171 403.5 147 c 128,-1,51
 443 123 443 123 493 123 c 0,29,30
EndSplineSet
Validated: 33
EndChar

StartChar: P
Encoding: 80 80 51
Width: 1116
GlyphClass: 2
Flags: W
LayerCount: 2
Fore
SplineSet
300 50 m 0,0,1
 302 7 302 7 265.5 -17 c 128,-1,2
 229 -41 229 -41 184 -39 c 0,3,4
 141 -38 141 -38 113 -12.5 c 128,-1,5
 85 13 85 13 90 61 c 0,6,7
 92 94 92 94 92.5 159 c 128,-1,8
 93 224 93 224 91.5 318.5 c 128,-1,9
 90 413 90 413 88 502.5 c 128,-1,10
 86 592 86 592 83 720.5 c 128,-1,11
 80 849 80 849 79 935 c 0,12,13
 76 1069 76 1069 81 1288 c 1,14,15
 70 1299 70 1299 70 1299 c 1,16,17
 54 1324 54 1324 58.5 1349.5 c 128,-1,18
 63 1375 63 1375 80.5 1395 c 128,-1,19
 98 1415 98 1415 118 1420 c 0,20,21
 192 1437 192 1437 335 1447 c 128,-1,22
 478 1457 478 1457 535 1457 c 0,23,24
 675 1457 675 1457 783.5 1407.5 c 128,-1,25
 892 1358 892 1358 956.5 1258.5 c 128,-1,26
 1021 1159 1021 1159 1023 1021 c 0,27,28
 1023 907 1023 907 986 806 c 128,-1,29
 949 705 949 705 884 631 c 128,-1,30
 819 557 819 557 725 514 c 128,-1,31
 631 471 631 471 521 471 c 0,32,33
 361 471 361 471 269 493 c 1,34,35
 273 406 273 406 278.5 328 c 128,-1,36
 284 250 284 250 291 165.5 c 128,-1,37
 298 81 298 81 300 50 c 0,0,1
535 1290 m 0,38,39
 464 1290 464 1290 276 1273 c 1,40,41
 275 1232 275 1232 271.5 1122 c 128,-1,42
 268 1012 268 1012 266 895.5 c 128,-1,43
 264 779 264 779 265 668 c 1,44,45
 348 638 348 638 460 638 c 0,46,47
 519 638 519 638 568 647 c 128,-1,48
 617 656 617 656 653 670.5 c 128,-1,49
 689 685 689 685 717.5 708.5 c 128,-1,50
 746 732 746 732 765 755 c 128,-1,51
 784 778 784 778 797.5 809.5 c 128,-1,52
 811 841 811 841 818 866.5 c 128,-1,53
 825 892 825 892 829 926 c 128,-1,54
 833 960 833 960 834 982 c 128,-1,55
 835 1004 835 1004 835 1034 c 0,56,57
 835 1092 835 1092 814 1138 c 128,-1,58
 793 1184 793 1184 761.5 1211.5 c 128,-1,59
 730 1239 730 1239 688.5 1257.5 c 128,-1,60
 647 1276 647 1276 609 1283 c 128,-1,61
 571 1290 571 1290 535 1290 c 0,38,39
EndSplineSet
Validated: 33
EndChar

StartChar: Q
Encoding: 81 81 52
Width: 1116
GlyphClass: 2
Flags: W
LayerCount: 2
Fore
SplineSet
1032 -421 m 0,0,1
 1000 -441 1000 -441 962 -431 c 128,-1,2
 924 -421 924 -421 896 -386 c 0,3,4
 867 -349 867 -349 798.5 -248.5 c 128,-1,5
 730 -148 730 -148 664 -42 c 1,6,7
 611 -50 611 -50 546 -50 c 0,8,9
 455 -50 455 -50 378 -21 c 128,-1,10
 301 8 301 8 244.5 59.5 c 128,-1,11
 188 111 188 111 147.5 181 c 128,-1,12
 107 251 107 251 86 332.5 c 128,-1,13
 65 414 65 414 61 504 c 0,14,15
 46 902 46 902 142 1157 c 0,16,17
 195 1292 195 1292 323.5 1381 c 128,-1,18
 452 1470 452 1470 613 1470 c 0,19,20
 697 1470 697 1470 769.5 1442 c 128,-1,21
 842 1414 842 1414 901.5 1358 c 128,-1,22
 961 1302 961 1302 1001 1208 c 128,-1,23
 1041 1114 1041 1114 1054 990 c 0,24,25
 1069 848 1069 848 1065 644 c 128,-1,26
 1061 440 1061 440 1038 333 c 0,27,28
 994 112 994 112 837 18 c 1,29,30
 878 -41 878 -41 924 -102 c 128,-1,31
 970 -163 970 -163 1012.5 -217 c 128,-1,32
 1055 -271 1055 -271 1069 -289 c 0,33,34
 1084 -311 1084 -311 1080 -337.5 c 128,-1,35
 1076 -364 1076 -364 1062 -387 c 128,-1,36
 1048 -410 1048 -410 1032 -421 c 0,0,1
261 537 m 0,37,38
 268 421 268 421 305.5 327 c 128,-1,39
 343 233 343 233 405.5 178 c 128,-1,40
 468 123 468 123 546 123 c 2,41,-1
 567 123 l 1,42,43
 517 215 517 215 497 267 c 0,44,45
 451 387 451 387 517 438 c 0,46,47
 535 453 535 453 556 455.5 c 128,-1,48
 577 458 577 458 597 443.5 c 128,-1,49
 617 429 617 429 629 397 c 0,50,51
 666 295 666 295 736 175 c 1,52,53
 824 235 824 235 852 364 c 0,54,55
 858 394 858 394 865 487.5 c 128,-1,56
 872 581 872 581 874 721 c 128,-1,57
 876 861 876 861 861 988 c 0,58,59
 844 1133 844 1133 771.5 1218.5 c 128,-1,60
 699 1304 699 1304 589 1304 c 0,61,62
 477 1304 477 1304 402 1224.5 c 128,-1,63
 327 1145 327 1145 294 1001 c 0,64,65
 243 788 243 788 261 537 c 0,37,38
EndSplineSet
Validated: 33
EndChar

StartChar: R
Encoding: 82 82 53
Width: 1116
GlyphClass: 2
Flags: W
LayerCount: 2
Fore
SplineSet
291 50 m 0,0,1
 293 7 293 7 257 -17 c 128,-1,2
 221 -41 221 -41 175 -39 c 0,3,4
 133 -38 133 -38 104.5 -12.5 c 128,-1,5
 76 13 76 13 81 61 c 0,6,7
 89 167 89 167 90 242.5 c 128,-1,8
 91 318 91 318 88 611 c 0,9,10
 87 650 87 650 91.5 777.5 c 128,-1,11
 96 905 96 905 92 1019 c 0,12,13
 90 1089 90 1089 81 1208.5 c 128,-1,14
 72 1328 72 1328 72 1352 c 2,15,-1
 72 1363 l 2,16,17
 69 1401 69 1401 99 1431 c 1,18,19
 125 1463 125 1463 173 1463 c 0,20,21
 213 1463 213 1463 237 1446 c 1,22,23
 406 1438 406 1438 545.5 1401.5 c 128,-1,24
 685 1365 685 1365 777 1312.5 c 128,-1,25
 869 1260 869 1260 932 1192.5 c 128,-1,26
 995 1125 995 1125 1022 1057 c 128,-1,27
 1049 989 1049 989 1049 920 c 0,28,29
 1049 868 1049 868 1035.5 825.5 c 128,-1,30
 1022 783 1022 783 997 751 c 128,-1,31
 972 719 972 719 933.5 694 c 128,-1,32
 895 669 895 669 850.5 652 c 128,-1,33
 806 635 806 635 746.5 622 c 128,-1,34
 687 609 687 609 627.5 601 c 128,-1,35
 568 593 568 593 493 587 c 1,36,37
 700 480 700 480 857.5 338.5 c 128,-1,38
 1015 197 1015 197 1065 96 c 1,39,40
 1077 59 1077 59 1065 28 c 128,-1,41
 1053 -3 1053 -3 1027 -20 c 0,42,43
 997 -42 997 -42 960 -34 c 128,-1,44
 923 -26 923 -26 892 15 c 0,45,46
 859 58 859 58 799 120.5 c 128,-1,47
 739 183 739 183 654 259.5 c 128,-1,48
 569 336 569 336 460.5 410.5 c 128,-1,49
 352 485 352 485 250 530 c 1,50,51
 256 412 256 412 272.5 250.5 c 128,-1,52
 289 89 289 89 291 50 c 0,0,1
276 1019 m 0,53,54
 276 996 276 996 273.5 959 c 128,-1,55
 271 922 271 922 268.5 892.5 c 128,-1,56
 266 863 266 863 261 810.5 c 128,-1,57
 256 758 256 758 254 736 c 1,58,59
 297 728 297 728 383 734 c 0,60,61
 466 738 466 738 524 743 c 128,-1,62
 582 748 582 748 640 756.5 c 128,-1,63
 698 765 698 765 735.5 777.5 c 128,-1,64
 773 790 773 790 803 808.5 c 128,-1,65
 833 827 833 827 847 852.5 c 128,-1,66
 861 878 861 878 861 911 c 0,67,68
 861 968 861 968 818.5 1022 c 128,-1,69
 776 1076 776 1076 711.5 1116.5 c 128,-1,70
 647 1157 647 1157 565 1190.5 c 128,-1,71
 483 1224 483 1224 408.5 1245 c 128,-1,72
 334 1266 334 1266 267 1277 c 1,73,74
 271 1127 271 1127 276 1019 c 0,53,54
EndSplineSet
Validated: 33
EndChar

StartChar: S
Encoding: 83 83 54
Width: 1116
GlyphClass: 2
Flags: W
LayerCount: 2
Fore
SplineSet
70 136 m 0,0,1
 44 191 44 191 52.5 226 c 128,-1,2
 61 261 61 261 96 278 c 0,3,4
 120 289 120 289 135 292.5 c 128,-1,5
 150 296 150 296 167.5 294 c 128,-1,6
 185 292 185 292 201.5 278 c 128,-1,7
 218 264 218 264 237 237 c 0,8,9
 273 181 273 181 338 147.5 c 128,-1,10
 403 114 403 114 486 114 c 0,11,12
 535 114 535 114 588.5 127.5 c 128,-1,13
 642 141 642 141 693 168.5 c 128,-1,14
 744 196 744 196 784.5 233 c 128,-1,15
 825 270 825 270 849.5 320 c 128,-1,16
 874 370 874 370 874 425 c 0,17,18
 874 455 874 455 870.5 480 c 128,-1,19
 867 505 867 505 855 534 c 128,-1,20
 843 563 843 563 823.5 586.5 c 128,-1,21
 804 610 804 610 769.5 634 c 128,-1,22
 735 658 735 658 688 676 c 128,-1,23
 641 694 641 694 573 709.5 c 128,-1,24
 505 725 505 725 421 734 c 0,25,26
 348 742 348 742 288 772.5 c 128,-1,27
 228 803 228 803 190.5 846.5 c 128,-1,28
 153 890 153 890 132.5 939 c 128,-1,29
 112 988 112 988 112 1036 c 0,30,31
 112 1105 112 1105 136 1170 c 128,-1,32
 160 1235 160 1235 209.5 1292 c 128,-1,33
 259 1349 259 1349 328 1391.5 c 128,-1,34
 397 1434 397 1434 494 1458.5 c 128,-1,35
 591 1483 591 1483 703 1483 c 0,36,37
 758 1483 758 1483 854 1473.5 c 128,-1,38
 950 1464 950 1464 986 1450 c 0,39,40
 1025 1436 1025 1436 1042 1405 c 128,-1,41
 1059 1374 1059 1374 1054 1339 c 0,42,43
 1051 1315 1051 1315 1037.5 1301 c 128,-1,44
 1024 1287 1024 1287 1004 1284.5 c 128,-1,45
 984 1282 984 1282 967 1283.5 c 128,-1,46
 950 1285 950 1285 931 1290 c 0,47,48
 927 1291 927 1291 919 1294 c 0,49,50
 883 1303 883 1303 861.5 1307.5 c 128,-1,51
 840 1312 840 1312 793 1316.5 c 128,-1,52
 746 1321 746 1321 686 1321 c 0,53,54
 592 1321 592 1321 509 1293.5 c 128,-1,55
 426 1266 426 1266 372 1211 c 128,-1,56
 318 1156 318 1156 318 1087 c 0,57,58
 318 1007 318 1007 387.5 952.5 c 128,-1,59
 457 898 457 898 583 892 c 0,60,61
 697 886 697 886 785.5 857 c 128,-1,62
 874 828 874 828 928 786 c 128,-1,63
 982 744 982 744 1017 687.5 c 128,-1,64
 1052 631 1052 631 1065 576 c 128,-1,65
 1078 521 1078 521 1078 460 c 0,66,67
 1078 366 1078 366 1046 283 c 128,-1,68
 1014 200 1014 200 957.5 138 c 128,-1,69
 901 76 901 76 825.5 31 c 128,-1,70
 750 -14 750 -14 661 -36.5 c 128,-1,71
 572 -59 572 -59 478 -59 c 0,72,73
 334 -59 334 -59 223 -2 c 128,-1,74
 112 55 112 55 70 136 c 0,0,1
EndSplineSet
Validated: 33
EndChar

StartChar: T
Encoding: 84 84 55
Width: 1116
GlyphClass: 2
Flags: W
LayerCount: 2
Fore
SplineSet
692 68 m 1,0,1
 688 24 688 24 651.5 -2 c 128,-1,2
 615 -28 615 -28 572 -26 c 0,3,4
 531 -26 531 -26 504 1.5 c 128,-1,5
 477 29 477 29 482 79 c 0,6,7
 489 172 489 172 473.5 650.5 c 128,-1,8
 458 1129 458 1129 460 1271 c 1,9,10
 192 1284 192 1284 151 1290 c 0,11,12
 46 1306 46 1306 46 1371 c 0,13,14
 44 1410 44 1410 71 1440 c 128,-1,15
 98 1470 98 1470 149 1461 c 0,16,17
 262 1442 262 1442 981 1435 c 0,18,19
 1030 1435 1030 1435 1052 1411 c 128,-1,20
 1074 1387 1074 1387 1076 1352 c 0,21,22
 1076 1312 1076 1312 1051 1281 c 128,-1,23
 1026 1250 1026 1250 977 1253 c 0,24,25
 961 1254 961 1254 666 1264 c 1,26,27
 669 846 669 846 692 68 c 1,0,1
EndSplineSet
Validated: 33
EndChar

StartChar: U
Encoding: 85 85 56
Width: 1116
GlyphClass: 2
Flags: W
LayerCount: 2
Fore
SplineSet
1089 532 m 0,0,1
 1086 439 1086 439 1065 358.5 c 128,-1,2
 1044 278 1044 278 1011.5 218.5 c 128,-1,3
 979 159 979 159 935 111 c 128,-1,4
 891 63 891 63 842.5 32 c 128,-1,5
 794 1 794 1 741 -20 c 128,-1,6
 688 -41 688 -41 638 -50 c 128,-1,7
 588 -59 588 -59 539 -59 c 0,8,9
 479 -59 479 -59 418 -43 c 128,-1,10
 357 -27 357 -27 293 13.5 c 128,-1,11
 229 54 229 54 179.5 114.5 c 128,-1,12
 130 175 130 175 96.5 271.5 c 128,-1,13
 63 368 63 368 59 489 c 0,14,15
 43 1112 43 1112 53 1336 c 0,16,17
 54 1391 54 1391 84.5 1422 c 128,-1,18
 115 1453 115 1453 156 1453 c 0,19,20
 241 1453 241 1453 241 1347 c 0,21,22
 241 653 241 653 252 508 c 0,23,24
 255 451 255 451 266 400 c 128,-1,25
 277 349 277 349 299.5 298 c 128,-1,26
 322 247 322 247 355 210 c 128,-1,27
 388 173 388 173 439 150 c 128,-1,28
 490 127 490 127 554 127 c 0,29,30
 701 127 701 127 792 224.5 c 128,-1,31
 883 322 883 322 896 521 c 0,32,33
 902 608 902 608 904.5 738.5 c 128,-1,34
 907 869 907 869 906 970.5 c 128,-1,35
 905 1072 905 1072 904 1185 c 128,-1,36
 903 1298 903 1298 903 1319 c 0,37,38
 903 1365 903 1365 910 1394 c 128,-1,39
 917 1423 917 1423 932.5 1435.5 c 128,-1,40
 948 1448 948 1448 961.5 1451.5 c 128,-1,41
 975 1455 975 1455 997 1455 c 0,42,43
 1036 1455 1036 1455 1061.5 1424.5 c 128,-1,44
 1087 1394 1087 1394 1089 1341 c 0,45,46
 1105 1021 1105 1021 1089 532 c 0,0,1
EndSplineSet
Validated: 33
EndChar

StartChar: V
Encoding: 86 86 57
Width: 1116
GlyphClass: 2
Flags: W
LayerCount: 2
Fore
SplineSet
679 55 m 0,0,1
 656 -32 656 -32 570 -24 c 1,2,3
 481 -24 481 -24 451 50 c 0,4,5
 366 270 366 270 211.5 731.5 c 128,-1,6
 57 1193 57 1193 35 1293 c 0,7,8
 7 1416 7 1416 79 1448 c 0,9,10
 118 1465 118 1465 155.5 1445 c 128,-1,11
 193 1425 193 1425 213 1360 c 0,12,13
 216 1348 216 1348 253 1228.5 c 128,-1,14
 290 1109 290 1109 325.5 994.5 c 128,-1,15
 361 880 361 880 406 736.5 c 128,-1,16
 451 593 451 593 491.5 467 c 128,-1,17
 532 341 532 341 559 263 c 1,18,19
 637 490 637 490 777 924 c 128,-1,20
 917 1358 917 1358 918 1360 c 0,21,22
 939 1424 939 1424 979 1444.5 c 128,-1,23
 1019 1465 1019 1465 1058 1448 c 0,24,25
 1081 1438 1081 1438 1096.5 1416.5 c 128,-1,26
 1112 1395 1112 1395 1116 1363.5 c 128,-1,27
 1120 1332 1120 1332 1102 1293 c 0,28,29
 1056 1187 1056 1187 890 708 c 128,-1,30
 724 229 724 229 679 55 c 0,0,1
EndSplineSet
Validated: 33
EndChar

StartChar: W
Encoding: 87 87 58
Width: 1116
GlyphClass: 2
Flags: W
LayerCount: 2
Fore
SplineSet
429 53 m 0,0,1
 421 22 421 22 394 3.5 c 128,-1,2
 367 -15 367 -15 339 -19.5 c 128,-1,3
 311 -24 311 -24 285 -22 c 0,4,5
 282 -22 282 -22 277 -22 c 0,6,7
 260 -22 260 -22 249 -21.5 c 128,-1,8
 238 -21 238 -21 219 -17 c 128,-1,9
 200 -13 200 -13 188.5 -4.5 c 128,-1,10
 177 4 177 4 166 21.5 c 128,-1,11
 155 39 155 39 151 64 c 0,12,13
 151 67 151 67 130 191.5 c 128,-1,14
 109 316 109 316 99 414 c 0,15,16
 75 649 75 649 18 1295 c 0,17,18
 8 1424 8 1424 77 1455 c 0,19,20
 94 1464 94 1464 115 1461.5 c 128,-1,21
 136 1459 136 1459 154 1450.5 c 128,-1,22
 172 1442 172 1442 184 1418.5 c 128,-1,23
 196 1395 196 1395 195 1363 c 0,24,25
 192 1246 192 1246 261 491 c 0,26,27
 267 421 267 421 281 300.5 c 128,-1,28
 295 180 295 180 298 153 c 1,29,30
 306 215 306 215 327 391 c 128,-1,31
 348 567 348 567 365.5 708.5 c 128,-1,32
 383 850 383 850 404 1010.5 c 128,-1,33
 425 1171 425 1171 442.5 1275.5 c 128,-1,34
 460 1380 460 1380 471 1407 c 0,35,36
 493 1457 493 1457 585 1457 c 0,37,38
 626 1459 626 1459 652.5 1444 c 128,-1,39
 679 1429 679 1429 686 1402 c 0,40,41
 695 1367 695 1367 707.5 1279.5 c 128,-1,42
 720 1192 720 1192 730.5 1109 c 128,-1,43
 741 1026 741 1026 758.5 873 c 128,-1,44
 776 720 776 720 787 638 c 0,45,46
 801 517 801 517 848 237 c 1,47,48
 883 526 883 526 914 1010 c 0,49,50
 930 1254 930 1254 927 1321 c 0,51,52
 924 1387 924 1387 953.5 1425 c 128,-1,53
 983 1463 983 1463 1023 1461 c 0,54,55
 1098 1459 1098 1459 1098 1310 c 0,56,57
 1098 1204 1098 1204 1078 990 c 0,58,59
 1061 791 1061 791 1053 703 c 128,-1,60
 1045 615 1045 615 1027.5 444 c 128,-1,61
 1010 273 1010 273 994 181 c 128,-1,62
 978 89 978 89 962 57 c 0,63,64
 941 14 941 14 897.5 -6 c 128,-1,65
 854 -26 854 -26 815 -22 c 1,66,67
 724 -22 724 -22 703 53 c 0,68,69
 653 248 653 248 624 576 c 0,70,71
 616 665 616 665 596.5 890 c 128,-1,72
 577 1115 577 1115 567 1198 c 1,73,74
 536 868 536 868 496.5 513 c 128,-1,75
 457 158 457 158 429 53 c 0,0,1
EndSplineSet
Validated: 33
EndChar

StartChar: X
Encoding: 88 88 59
Width: 1116
GlyphClass: 2
Flags: W
LayerCount: 2
Fore
SplineSet
208 0 m 0,0,1
 183 -33 183 -33 156 -43.5 c 128,-1,2
 129 -54 129 -54 107.5 -46.5 c 128,-1,3
 86 -39 86 -39 66 -20 c 0,4,5
 6 36 6 36 61 129 c 0,6,7
 77 155 77 155 231 390.5 c 128,-1,8
 385 626 385 626 449 736 c 1,9,-1
 96 1266 l 2,10,11
 30 1366 30 1366 94 1420 c 0,12,13
 115 1437 115 1437 140 1443.5 c 128,-1,14
 165 1450 165 1450 198 1438 c 128,-1,15
 231 1426 231 1426 259 1391 c 0,16,17
 325 1305 325 1305 581 883 c 1,18,19
 819 1310 819 1310 883 1398 c 0,20,21
 906 1430 906 1430 933.5 1443 c 128,-1,22
 961 1456 961 1456 984.5 1452 c 128,-1,23
 1008 1448 1008 1448 1027 1433 c 0,24,25
 1045 1419 1045 1419 1054 1399.5 c 128,-1,26
 1063 1380 1063 1380 1060.5 1352 c 128,-1,27
 1058 1324 1058 1324 1041 1295 c 0,28,29
 1026 1270 1026 1270 884.5 1043 c 128,-1,30
 743 816 743 816 692 727 c 0,31,32
 691 727 691 727 688.5 723 c 128,-1,33
 686 719 686 719 684 716 c 0,34,35
 734 637 734 637 865.5 414.5 c 128,-1,36
 997 192 997 192 1041 134 c 0,37,38
 1067 98 1067 98 1076.5 70 c 128,-1,39
 1086 42 1086 42 1082.5 24 c 128,-1,40
 1079 6 1079 6 1065 -11 c 0,41,42
 1047 -32 1047 -32 1023.5 -40.5 c 128,-1,43
 1000 -49 1000 -49 965.5 -37.5 c 128,-1,44
 931 -26 931 -26 896 11 c 0,45,46
 857 53 857 53 801.5 143.5 c 128,-1,47
 746 234 746 234 668 375 c 128,-1,48
 590 516 590 516 556 574 c 1,49,50
 490 479 490 479 358 251 c 128,-1,51
 226 23 226 23 208 0 c 0,0,1
EndSplineSet
Validated: 33
EndChar

StartChar: Y
Encoding: 89 89 60
Width: 1116
GlyphClass: 2
Flags: W
LayerCount: 2
Fore
SplineSet
429 -24 m 0,0,1
 410 -63 410 -63 370 -76.5 c 128,-1,2
 330 -90 330 -90 289 -61 c 0,3,4
 269 -46 269 -46 257.5 -26 c 128,-1,5
 246 -6 246 -6 244 21 c 128,-1,6
 242 48 242 48 259 77 c 2,7,-1
 473 502 l 1,8,9
 434 576 434 576 367 692 c 128,-1,10
 300 808 300 808 276 852 c 0,11,12
 249 901 249 901 195.5 991 c 128,-1,13
 142 1081 142 1081 107 1147 c 128,-1,14
 72 1213 72 1213 48 1277 c 0,15,16
 30 1324 30 1324 34.5 1358.5 c 128,-1,17
 39 1393 39 1393 53.5 1413 c 128,-1,18
 68 1433 68 1433 92 1444 c 0,19,20
 110 1453 110 1453 131 1454.5 c 128,-1,21
 152 1456 152 1456 174 1448.5 c 128,-1,22
 196 1441 196 1441 216 1416.5 c 128,-1,23
 236 1392 236 1392 248 1354 c 0,24,25
 260 1314 260 1314 276.5 1272 c 128,-1,26
 293 1230 293 1230 304.5 1204 c 128,-1,27
 316 1178 316 1178 342 1129 c 128,-1,28
 368 1080 368 1080 374.5 1068.5 c 128,-1,29
 381 1057 381 1057 414.5 999.5 c 128,-1,30
 448 942 448 942 449 940 c 0,31,32
 519 819 519 819 570 701 c 1,33,34
 577 714 577 714 609 784 c 0,35,36
 638 848 638 848 709 991 c 128,-1,37
 780 1134 780 1134 813 1214 c 0,38,39
 823 1239 823 1239 848.5 1289.5 c 128,-1,40
 874 1340 874 1340 885 1367 c 0,41,42
 898 1402 898 1402 917 1425 c 128,-1,43
 936 1448 936 1448 956.5 1456.5 c 128,-1,44
 977 1465 977 1465 996.5 1465 c 128,-1,45
 1016 1465 1016 1465 1034 1457 c 0,46,47
 1050 1449 1050 1449 1063.5 1435 c 128,-1,48
 1077 1421 1077 1421 1086.5 1401 c 128,-1,49
 1096 1381 1096 1381 1095 1351.5 c 128,-1,50
 1094 1322 1094 1322 1080 1288 c 0,51,52
 1069 1263 1069 1263 1038.5 1204.5 c 128,-1,53
 1008 1146 1008 1146 992 1109 c 0,54,55
 974 1065 974 1065 916 957.5 c 128,-1,56
 858 850 858 850 826 780 c 0,57,58
 792 705 792 705 742.5 602 c 128,-1,59
 693 499 693 499 662.5 438 c 128,-1,60
 632 377 632 377 544.5 204 c 128,-1,61
 457 31 457 31 429 -24 c 0,0,1
EndSplineSet
Validated: 33
EndChar

StartChar: Z
Encoding: 90 90 61
Width: 1116
GlyphClass: 2
Flags: W
LayerCount: 2
Fore
SplineSet
1080 77 m 0,0,1
 1082 36 1082 36 1058 9 c 128,-1,2
 1034 -18 1034 -18 973 -18 c 0,3,4
 959 -18 959 -18 780.5 -13.5 c 128,-1,5
 602 -9 602 -9 454.5 -7.5 c 128,-1,6
 307 -6 307 -6 142 -11 c 0,7,8
 105 -12 105 -12 79 28.5 c 128,-1,9
 53 69 53 69 53 107 c 0,10,11
 53 156 53 156 138 309 c 0,12,13
 204 426 204 426 436 770.5 c 128,-1,14
 668 1115 668 1115 787 1271 c 1,15,16
 682 1268 682 1268 461.5 1265.5 c 128,-1,17
 241 1263 241 1263 169 1260 c 0,18,19
 123 1258 123 1258 102 1284 c 128,-1,20
 81 1310 81 1310 81 1347 c 0,21,22
 79 1385 79 1385 116 1417.5 c 128,-1,23
 153 1450 153 1450 204 1450 c 0,24,25
 249 1450 249 1450 329.5 1438 c 128,-1,26
 410 1426 410 1426 460 1426 c 0,27,28
 550 1425 550 1425 641 1428.5 c 128,-1,29
 732 1432 732 1432 847 1439.5 c 128,-1,30
 962 1447 962 1447 977 1448 c 0,31,32
 1012 1450 1012 1450 1037.5 1418 c 128,-1,33
 1063 1386 1063 1386 1065 1343 c 0,34,35
 1066 1327 1066 1327 1039.5 1294.5 c 128,-1,36
 1013 1262 1013 1262 976 1221.5 c 128,-1,37
 939 1181 939 1181 925 1157 c 0,38,39
 862 1055 862 1055 729.5 865 c 128,-1,40
 597 675 597 675 473.5 489 c 128,-1,41
 350 303 350 303 274 158 c 1,42,43
 503 172 503 172 694.5 172.5 c 128,-1,44
 886 173 886 173 977 160 c 0,45,46
 1034 149 1034 149 1056 129 c 128,-1,47
 1078 109 1078 109 1080 77 c 0,0,1
EndSplineSet
Validated: 33
EndChar

StartChar: bracketleft
Encoding: 91 91 62
Width: 1116
GlyphClass: 2
Flags: W
LayerCount: 2
Fore
SplineSet
872 -175 m 0,0,1
 818 -168 818 -168 743 -167.5 c 128,-1,2
 668 -167 668 -167 604 -170.5 c 128,-1,3
 540 -174 540 -174 457.5 -178 c 128,-1,4
 375 -182 375 -182 322 -182 c 0,5,6
 270 -182 270 -182 243.5 -162 c 128,-1,7
 217 -142 217 -142 217 -107 c 0,8,9
 217 -88 217 -88 223 -68 c 1,10,-1
 223 -48 l 1,11,12
 232 57 232 57 237.5 334 c 128,-1,13
 243 611 243 611 237 887 c 0,14,15
 234 952 234 952 233.5 1034 c 128,-1,16
 233 1116 233 1116 234 1204.5 c 128,-1,17
 235 1293 235 1293 236 1357.5 c 128,-1,18
 237 1422 237 1422 239 1501 c 128,-1,19
 241 1580 241 1580 241 1593 c 2,20,-1
 241 1606 l 1,21,22
 232 1623 232 1623 232 1645 c 0,23,24
 230 1681 230 1681 256.5 1707.5 c 128,-1,25
 283 1734 283 1734 335 1735 c 0,26,27
 495 1740 495 1740 624 1739.5 c 128,-1,28
 753 1739 753 1739 861 1742 c 0,29,30
 909 1743 909 1743 931 1718.5 c 128,-1,31
 953 1694 953 1694 955 1658 c 0,32,33
 955 1641 955 1641 949.5 1623 c 128,-1,34
 944 1605 944 1605 933 1589 c 128,-1,35
 922 1573 922 1573 902 1564.5 c 128,-1,36
 882 1556 882 1556 857 1560 c 0,37,38
 736 1577 736 1577 438 1569 c 1,39,40
 438 1525 438 1525 432.5 1347 c 128,-1,41
 427 1169 427 1169 425 1050.5 c 128,-1,42
 423 932 423 932 425 767 c 0,43,44
 429 645 429 645 425.5 343 c 128,-1,45
 422 41 422 41 423 -20 c 1,46,47
 546 -22 546 -22 701.5 -15.5 c 128,-1,48
 857 -9 857 -9 872 -9 c 0,49,50
 920 -9 920 -9 939 -29.5 c 128,-1,51
 958 -50 958 -50 960 -85 c 0,52,53
 960 -104 960 -104 956 -120 c 128,-1,54
 952 -136 952 -136 943 -150.5 c 128,-1,55
 934 -165 934 -165 916 -172 c 128,-1,56
 898 -179 898 -179 872 -175 c 0,0,1
EndSplineSet
Validated: 33
EndChar

StartChar: backslash
Encoding: 92 92 63
Width: 1116
GlyphClass: 2
Flags: W
LayerCount: 2
Fore
SplineSet
657 364 m 0,0,1
 605 463 605 463 358.5 871.5 c 128,-1,2
 112 1280 112 1280 59 1385 c 0,3,4
 35 1437 35 1437 45 1474.5 c 128,-1,5
 55 1512 55 1512 92 1531 c 0,6,7
 118 1542 118 1542 145.5 1543 c 128,-1,8
 173 1544 173 1544 201 1526.5 c 128,-1,9
 229 1509 229 1509 245 1477 c 0,10,11
 394 1179 394 1179 528 944 c 0,12,13
 741 562 741 562 1041 70 c 0,14,15
 1070 20 1070 20 1064.5 -38.5 c 128,-1,16
 1059 -97 1059 -97 1027 -114 c 0,17,18
 990 -138 990 -138 939.5 -115 c 128,-1,19
 889 -92 889 -92 857 -35 c 0,20,21
 838 -2 838 -2 764.5 149 c 128,-1,22
 691 300 691 300 657 364 c 0,0,1
EndSplineSet
Validated: 33
EndChar

StartChar: bracketright
Encoding: 93 93 64
Width: 1116
GlyphClass: 2
Flags: W
LayerCount: 2
Fore
SplineSet
957 -107 m 0,0,1
 957 -142 957 -142 931 -162 c 128,-1,2
 905 -182 905 -182 852 -182 c 256,3,4
 799 -182 799 -182 716.5 -178 c 128,-1,5
 634 -174 634 -174 570.5 -170.5 c 128,-1,6
 507 -167 507 -167 432 -167.5 c 128,-1,7
 357 -168 357 -168 302 -175 c 0,8,9
 277 -179 277 -179 258.5 -172 c 128,-1,10
 240 -165 240 -165 231 -150.5 c 128,-1,11
 222 -136 222 -136 218.5 -120 c 128,-1,12
 215 -104 215 -104 215 -85 c 0,13,14
 217 -50 217 -50 235.5 -29.5 c 128,-1,15
 254 -9 254 -9 302 -9 c 0,16,17
 317 -9 317 -9 473 -15.5 c 128,-1,18
 629 -22 629 -22 751 -20 c 1,19,20
 752 41 752 41 748.5 343 c 128,-1,21
 745 645 745 645 749 767 c 0,22,23
 751 932 751 932 749 1050.5 c 128,-1,24
 747 1169 747 1169 742 1347 c 128,-1,25
 737 1525 737 1525 736 1569 c 1,26,27
 438 1577 438 1577 318 1560 c 0,28,29
 292 1556 292 1556 272 1564.5 c 128,-1,30
 252 1573 252 1573 241 1589 c 128,-1,31
 230 1605 230 1605 224.5 1623 c 128,-1,32
 219 1641 219 1641 219 1658 c 0,33,34
 221 1694 221 1694 243 1718.5 c 128,-1,35
 265 1743 265 1743 313 1742 c 0,36,37
 420 1739 420 1739 551 1739.5 c 128,-1,38
 682 1740 682 1740 839 1735 c 0,39,40
 892 1734 892 1734 918 1707.5 c 128,-1,41
 944 1681 944 1681 942 1645 c 0,42,43
 942 1623 942 1623 933 1606 c 1,44,-1
 933 1593 l 2,45,46
 934 1580 934 1580 935.5 1501 c 128,-1,47
 937 1422 937 1422 938 1357.5 c 128,-1,48
 939 1293 939 1293 940.5 1204.5 c 128,-1,49
 942 1116 942 1116 941 1034 c 128,-1,50
 940 952 940 952 938 887 c 0,51,52
 931 611 931 611 936.5 334 c 128,-1,53
 942 57 942 57 951 -48 c 1,54,-1
 951 -68 l 1,55,56
 957 -88 957 -88 957 -107 c 0,0,1
EndSplineSet
Validated: 33
EndChar

StartChar: asciicircum
Encoding: 94 94 65
Width: 1116
GlyphClass: 2
Flags: W
LayerCount: 2
Fore
SplineSet
237 1319 m 0,0,1
 229 1311 229 1311 216 1296 c 0,2,3
 168 1243 168 1243 145.5 1227.5 c 128,-1,4
 123 1212 123 1212 94 1225 c 0,5,6
 77 1233 77 1233 62 1248 c 128,-1,7
 47 1263 47 1263 35 1284.5 c 128,-1,8
 23 1306 23 1306 26.5 1335 c 128,-1,9
 30 1364 30 1364 53 1393 c 0,10,11
 93 1446 93 1446 160.5 1521.5 c 128,-1,12
 228 1597 228 1597 309 1692 c 128,-1,13
 390 1787 390 1787 471 1897 c 0,14,15
 490 1923 490 1923 525.5 1931.5 c 128,-1,16
 561 1940 561 1940 595 1930 c 128,-1,17
 629 1920 629 1920 644 1895 c 0,18,19
 721 1790 721 1790 778.5 1719 c 128,-1,20
 836 1648 836 1648 866 1615 c 128,-1,21
 896 1582 896 1582 956 1520 c 128,-1,22
 1016 1458 1016 1458 1065 1404 c 0,23,24
 1089 1377 1089 1377 1092.5 1349 c 128,-1,25
 1096 1321 1096 1321 1082 1299 c 128,-1,26
 1068 1277 1068 1277 1050.5 1261.5 c 128,-1,27
 1033 1246 1033 1246 1014 1238 c 0,28,29
 986 1223 986 1223 960.5 1239 c 128,-1,30
 935 1255 935 1255 880 1312 c 0,31,32
 866 1326 866 1326 859 1334 c 0,33,34
 739 1456 739 1456 692.5 1509.5 c 128,-1,35
 646 1563 646 1563 563 1678 c 1,36,37
 508 1603 508 1603 464.5 1552.5 c 128,-1,38
 421 1502 421 1502 395 1478 c 128,-1,39
 369 1454 369 1454 325 1411.5 c 128,-1,40
 281 1369 281 1369 237 1319 c 0,0,1
EndSplineSet
Validated: 33
EndChar

StartChar: underscore
Encoding: 95 95 66
Width: 1116
GlyphClass: 2
Flags: W
LayerCount: 2
Fore
SplineSet
136 -31 m 0,0,1
 357 -34 357 -34 489 -33.5 c 128,-1,2
 621 -33 621 -33 783 -30.5 c 128,-1,3
 945 -28 945 -28 981 -28 c 0,4,5
 1029 -28 1029 -28 1048 -50.5 c 128,-1,6
 1067 -73 1067 -73 1069 -110 c 0,7,8
 1069 -199 1069 -199 981 -199 c 0,9,10
 934 -199 934 -199 603.5 -201.5 c 128,-1,11
 273 -204 273 -204 138 -204 c 0,12,13
 50 -204 50 -204 50 -116 c 0,14,15
 46 -28 46 -28 136 -31 c 0,0,1
EndSplineSet
Validated: 33
EndChar

StartChar: grave
Encoding: 96 96 67
Width: 1116
GlyphClass: 2
Flags: W
LayerCount: 2
Fore
SplineSet
613 1299 m 0,0,1
 606 1303 606 1303 552 1332.5 c 128,-1,2
 498 1362 498 1362 470 1378.5 c 128,-1,3
 442 1395 442 1395 398 1423 c 128,-1,4
 354 1451 354 1451 324 1474 c 0,5,6
 301 1492 301 1492 288.5 1520 c 128,-1,7
 276 1548 276 1548 277 1572 c 128,-1,8
 278 1596 278 1596 287 1615 c 0,9,10
 308 1646 308 1646 353.5 1655.5 c 128,-1,11
 399 1665 399 1665 438 1639 c 0,12,13
 445 1633 445 1633 495 1593 c 128,-1,14
 545 1553 545 1553 566.5 1536 c 128,-1,15
 588 1519 588 1519 627.5 1492.5 c 128,-1,16
 667 1466 667 1466 697 1450 c 0,17,18
 743 1425 743 1425 763 1383 c 128,-1,19
 783 1341 783 1341 765 1314 c 0,20,21
 747 1285 747 1285 705.5 1279 c 128,-1,22
 664 1273 664 1273 613 1299 c 0,0,1
EndSplineSet
Validated: 33
EndChar

StartChar: a
Encoding: 97 97 68
Width: 1116
GlyphClass: 2
Flags: W
LayerCount: 2
Fore
SplineSet
1018 -29 m 1024,0,1
180.5 847.5 m 0,2,3
 208 887 208 887 247.5 921.5 c 0,4,5
 282 952 282 952 336 978 c 128,-1,6
 390 1004 390 1004 468.5 1025 c 0,7,8
 548 1046 548 1046 650.5 1043.5 c 0,9,10
 844 1040 844 1040 905.5 947.5 c 0,11,12
 996 809 996 809 998.5 551.5 c 0,13,14
 999 491 999 491 995 290 c 0,15,16
 994 245 994 245 1014 92 c 0,17,18
 1037 -78 1037 -78 974 -78 c 0,19,20
 891 -78 891 -78 880 -36 c 0,21,22
 834 142 834 142 834 142 c 0,23,24
 766 30 766 30 689 -18 c 0,25,26
 626 -57 626 -57 483 -57 c 0,27,28
 419 -57 419 -57 343.5 -22 c 128,-1,29
 268 13 268 13 212.5 85.5 c 128,-1,30
 157 158 157 158 131 234 c 1,31,32
 131 287 131 287 144 348 c 0,33,34
 159 414 159 414 204 460 c 0,35,36
 267 525 267 525 294.5 539.5 c 0,37,38
 398 594 398 594 418.5 599.5 c 0,39,40
 574 642 574 642 580.5 643.5 c 0,41,42
 685 655 685 655 710.5 661.5 c 0,43,44
 720 664 720 664 809.5 695.5 c 1,45,46
 817 723 817 723 812 756.5 c 0,47,48
 810 770 810 770 793 792 c 4,49,50
 769 823 769 823 736.5 840 c 0,51,52
 707 856 707 856 638.5 860.5 c 0,53,54
 584 864 584 864 529 848 c 128,-1,55
 474 832 474 832 438 809 c 128,-1,56
 402 786 402 786 379.5 768 c 0,57,58
 358 750 358 750 349.5 740.5 c 0,59,60
 270 634 270 634 191.5 687.5 c 0,61,62
 108 745 108 745 180.5 847.5 c 0,2,3
526 103 m 0,63,64
 561 103 561 103 597 115 c 128,-1,65
 633 127 633 127 669.5 155.5 c 128,-1,66
 706 184 706 184 735 224.5 c 128,-1,67
 764 265 764 265 784.5 327 c 128,-1,68
 805 389 805 389 809 464 c 1,69,70
 408 430 408 430 312 270 c 1,71,72
 359 177 359 177 410.5 140 c 128,-1,73
 462 103 462 103 526 103 c 0,63,64
EndSplineSet
Validated: 33
EndChar

StartChar: b
Encoding: 98 98 69
Width: 1116
GlyphClass: 2
Flags: W
LayerCount: 2
Fore
SplineSet
1063 565 m 0,0,1
 1065 452 1065 452 1041 355 c 128,-1,2
 1017 258 1017 258 974 188.5 c 128,-1,3
 931 119 931 119 873.5 69.5 c 128,-1,4
 816 20 816 20 751 -4 c 128,-1,5
 686 -28 686 -28 618 -28 c 0,6,7
 434 -28 434 -28 307 68 c 1,8,9
 302 19 302 19 278 -0.5 c 128,-1,10
 254 -20 254 -20 217 -22 c 0,11,12
 116 -26 116 -26 116 90 c 0,13,14
 114 342 114 342 115.5 813 c 128,-1,15
 117 1284 117 1284 123 1459 c 0,16,17
 123 1522 123 1522 146.5 1546.5 c 128,-1,18
 170 1571 170 1571 210 1573 c 0,19,20
 257 1577 257 1577 288 1551 c 128,-1,21
 319 1525 319 1525 318 1459 c 0,22,23
 318 1442 318 1442 316.5 1273 c 128,-1,24
 315 1104 315 1104 315 975 c 1,25,26
 450 1067 450 1067 633 1067 c 0,27,28
 767 1065 767 1065 866 1000 c 128,-1,29
 965 935 965 935 1015 822.5 c 128,-1,30
 1065 710 1065 710 1063 565 c 0,0,1
587 898 m 0,31,32
 444 904 444 904 313 791 c 1,33,34
 313 528 313 528 309 234 c 1,35,36
 355 187 355 187 416 167 c 128,-1,37
 477 147 477 147 561 147 c 0,38,39
 708 147 708 147 787.5 255.5 c 128,-1,40
 867 364 867 364 865 548 c 0,41,42
 863 641 863 641 831.5 718 c 128,-1,43
 800 795 800 795 736.5 845 c 128,-1,44
 673 895 673 895 587 898 c 0,31,32
EndSplineSet
Validated: 33
EndChar

StartChar: c
Encoding: 99 99 70
Width: 1116
GlyphClass: 2
Flags: W
LayerCount: 2
Fore
SplineSet
988 815 m 0,0,1
 1020 698 1020 698 925 659 c 0,2,3
 903 651 903 651 883.5 650 c 128,-1,4
 864 649 864 649 844.5 655 c 128,-1,5
 825 661 825 661 808.5 680.5 c 128,-1,6
 792 700 792 700 782 732 c 0,7,8
 779 742 779 742 772 765 c 128,-1,9
 765 788 765 788 761 799 c 128,-1,10
 757 810 757 810 749 828 c 128,-1,11
 741 846 741 846 732 855.5 c 128,-1,12
 723 865 723 865 709 875 c 128,-1,13
 695 885 695 885 676 889.5 c 128,-1,14
 657 894 657 894 633 894 c 0,15,16
 597 894 597 894 558.5 881.5 c 128,-1,17
 520 869 520 869 478 836.5 c 128,-1,18
 436 804 436 804 402 755.5 c 128,-1,19
 368 707 368 707 343.5 627.5 c 128,-1,20
 319 548 319 548 313 449 c 0,21,22
 296 133 296 133 548 120 c 0,23,24
 657 116 657 116 728 147 c 128,-1,25
 799 178 799 178 815 217 c 0,26,27
 829 251 829 251 847.5 272 c 128,-1,28
 866 293 866 293 886 299.5 c 128,-1,29
 906 306 906 306 924.5 304 c 128,-1,30
 943 302 943 302 962 294 c 0,31,32
 1053 255 1053 255 999 145 c 0,33,34
 981 108 981 108 945 73 c 128,-1,35
 909 38 909 38 853 5.5 c 128,-1,36
 797 -27 797 -27 711 -46 c 128,-1,37
 625 -65 625 -65 524 -64 c 0,38,39
 424 -62 424 -62 342.5 -24 c 128,-1,40
 261 14 261 14 209.5 76.5 c 128,-1,41
 158 139 158 139 130.5 218 c 128,-1,42
 103 297 103 297 105 381 c 0,43,44
 107 521 107 521 139 637 c 128,-1,45
 171 753 171 753 225 834 c 128,-1,46
 279 915 279 915 351.5 971 c 128,-1,47
 424 1027 424 1027 506.5 1053.5 c 128,-1,48
 589 1080 589 1080 679 1080 c 0,49,50
 788 1080 788 1080 874 1001 c 128,-1,51
 960 922 960 922 988 815 c 0,0,1
EndSplineSet
Validated: 33
EndChar

StartChar: d
Encoding: 100 100 71
Width: 1116
GlyphClass: 2
Flags: W
LayerCount: 2
Fore
SplineSet
981 -18 m 0,0,1
 919 -30 919 -30 888 11.5 c 128,-1,2
 857 53 857 53 850 131 c 1,3,4
 827 98 827 98 802 72 c 128,-1,5
 777 46 777 46 740.5 22 c 128,-1,6
 704 -2 704 -2 654.5 -15 c 128,-1,7
 605 -28 605 -28 546 -28 c 0,8,9
 477 -28 477 -28 411 -5 c 128,-1,10
 345 18 345 18 284.5 66.5 c 128,-1,11
 224 115 224 115 179 183 c 128,-1,12
 134 251 134 251 108.5 348.5 c 128,-1,13
 83 446 83 446 85 559 c 0,14,15
 83 696 83 696 137 806 c 128,-1,16
 191 916 191 916 293.5 980.5 c 128,-1,17
 396 1045 396 1045 530 1047 c 0,18,19
 716 1047 716 1047 846 960 c 1,20,21
 849 1339 849 1339 859 1448 c 0,22,23
 869 1575 869 1575 968 1575 c 0,24,25
 1011 1573 1011 1573 1034.5 1546.5 c 128,-1,26
 1058 1520 1058 1520 1054 1448 c 0,27,28
 1047 1326 1047 1326 1037 996.5 c 128,-1,29
 1027 667 1027 667 1027 497 c 0,30,31
 1030 382 1030 382 1038.5 296 c 128,-1,32
 1047 210 1047 210 1056 175 c 128,-1,33
 1065 140 1065 140 1070.5 113 c 128,-1,34
 1076 86 1076 86 1073 68 c 0,35,36
 1063 -1 1063 -1 981 -18 c 0,0,1
565 153 m 0,37,38
 599 153 599 153 629 159 c 128,-1,39
 659 165 659 165 681 173.5 c 128,-1,40
 703 182 703 182 724 199 c 128,-1,41
 745 216 745 216 758.5 228.5 c 128,-1,42
 772 241 772 241 788 264 c 128,-1,43
 804 287 804 287 811.5 299.5 c 128,-1,44
 819 312 819 312 833 336 c 0,45,46
 837 343 837 343 839 346 c 0,47,48
 839 368 839 368 838.5 409.5 c 128,-1,49
 838 451 838 451 838 486.5 c 128,-1,50
 838 522 838 522 839 554 c 0,51,52
 839 577 839 577 840 623 c 128,-1,53
 841 669 841 669 841 692 c 1,54,55
 794 769 794 769 719.5 820 c 128,-1,56
 645 871 645 871 561 868 c 0,57,58
 475 864 475 864 411.5 817.5 c 128,-1,59
 348 771 348 771 316.5 699 c 128,-1,60
 285 627 285 627 283 541 c 0,61,62
 281 358 281 358 355.5 255 c 128,-1,63
 430 152 430 152 565 153 c 0,37,38
EndSplineSet
Validated: 33
EndChar

StartChar: e
Encoding: 101 101 72
Width: 1116
GlyphClass: 2
Flags: W
LayerCount: 2
Fore
SplineSet
1006 123 m 0,0,1
 974 79 974 79 939 49 c 128,-1,2
 904 19 904 19 850.5 -7.5 c 128,-1,3
 797 -34 797 -34 718.5 -46.5 c 128,-1,4
 640 -59 640 -59 537 -57 c 0,5,6
 332 -54 332 -54 219 90 c 128,-1,7
 106 234 106 234 110 486 c 0,8,9
 112 623 112 623 153 733.5 c 128,-1,10
 194 844 194 844 264 916.5 c 128,-1,11
 334 989 334 989 429 1028 c 128,-1,12
 524 1067 524 1067 635 1067 c 0,13,14
 699 1067 699 1067 774.5 1032 c 128,-1,15
 850 997 850 997 916 932 c 128,-1,16
 982 867 982 867 1008 791 c 1,17,18
 1019 740 1019 740 980.5 680 c 128,-1,19
 942 620 942 620 900 589 c 0,20,21
 862 561 862 561 804 531 c 128,-1,22
 746 501 746 501 672.5 472 c 128,-1,23
 599 443 599 443 546 423 c 128,-1,24
 493 403 493 403 414 376 c 128,-1,25
 335 349 335 349 315 342 c 1,26,27
 323 292 323 292 338.5 253 c 128,-1,28
 354 214 354 214 381 181.5 c 128,-1,29
 408 149 408 149 450 130.5 c 128,-1,30
 492 112 492 112 548 110 c 0,31,32
 603 107 603 107 657.5 122.5 c 128,-1,33
 712 138 712 138 748.5 161.5 c 128,-1,34
 785 185 785 185 807 202.5 c 128,-1,35
 829 220 829 220 837 230 c 0,36,37
 916 336 916 336 995 283 c 0,38,39
 1080 224 1080 224 1006 123 c 0,0,1
592 907 m 0,40,41
 557 907 557 907 521 895 c 128,-1,42
 485 883 485 883 448.5 854.5 c 128,-1,43
 412 826 412 826 383 785.5 c 128,-1,44
 354 745 354 745 333.5 683 c 128,-1,45
 313 621 313 621 309 546 c 1,46,47
 701 643 701 643 806 740 c 1,48,49
 759 833 759 833 707.5 870 c 128,-1,50
 656 907 656 907 592 907 c 0,40,41
EndSplineSet
Validated: 33
EndChar

StartChar: f
Encoding: 102 102 73
Width: 1116
GlyphClass: 2
Flags: W
LayerCount: 2
Fore
SplineSet
813 -33 m 0,0,1
 810 -33 810 -33 674.5 -35 c 128,-1,2
 539 -37 539 -37 420.5 -35.5 c 128,-1,3
 302 -34 302 -34 228 -28 c 0,4,5
 173 -27 173 -27 149 1 c 128,-1,6
 125 29 125 29 127 68 c 0,7,8
 127 107 127 107 151 132 c 128,-1,9
 175 157 175 157 230 156 c 0,10,11
 253 154 253 154 297.5 153 c 128,-1,12
 342 152 342 152 364 151 c 1,13,14
 366 188 366 188 360.5 222 c 128,-1,15
 355 256 355 256 355 302 c 0,16,17
 355 340 355 340 351 418 c 128,-1,18
 347 496 347 496 339.5 626 c 128,-1,19
 332 756 332 756 329 828 c 1,20,21
 291 826 291 826 228 826 c 0,22,23
 140 826 140 826 140 914 c 0,24,25
 136 1003 136 1003 226 1003 c 2,26,-1
 324 1003 l 1,27,28
 322 1036 322 1036 322 1098 c 0,29,30
 322 1196 322 1196 353 1275.5 c 128,-1,31
 384 1355 384 1355 437 1408.5 c 128,-1,32
 490 1462 490 1462 563.5 1498 c 128,-1,33
 637 1534 637 1534 720 1550 c 128,-1,34
 803 1566 803 1566 896 1566 c 0,35,36
 939 1566 939 1566 967 1545.5 c 128,-1,37
 995 1525 995 1525 995 1485 c 0,38,39
 995 1444 995 1444 973 1416.5 c 128,-1,40
 951 1389 951 1389 918 1389 c 0,41,42
 735 1389 735 1389 625 1303 c 128,-1,43
 515 1217 515 1217 515 1078 c 0,44,45
 515 1036 515 1036 517 1006 c 1,46,47
 841 1010 841 1010 883 1010 c 0,48,49
 931 1010 931 1010 950 989 c 128,-1,50
 969 968 969 968 971 933 c 0,51,52
 971 843 971 843 883 843 c 0,53,54
 860 843 860 843 806 841.5 c 128,-1,55
 752 840 752 840 667.5 837 c 128,-1,56
 583 834 583 834 524 833 c 1,57,58
 526 779 526 779 535 567.5 c 128,-1,59
 544 356 544 356 548 245 c 0,60,61
 551 153 551 153 552 147 c 1,62,63
 730 140 730 140 817 140 c 0,64,65
 869 140 869 140 893.5 118 c 128,-1,66
 918 96 918 96 918 61 c 0,67,68
 918 22 918 22 892 -5.5 c 128,-1,69
 866 -33 866 -33 813 -33 c 0,0,1
EndSplineSet
Validated: 33
EndChar

StartChar: g
Encoding: 103 103 74
Width: 1116
GlyphClass: 2
Flags: W
LayerCount: 2
Fore
SplineSet
995 -85 m 0,0,1
 985 -187 985 -187 949 -272 c 128,-1,2
 913 -357 913 -357 858.5 -416.5 c 128,-1,3
 804 -476 804 -476 734.5 -517.5 c 128,-1,4
 665 -559 665 -559 588 -578.5 c 128,-1,5
 511 -598 511 -598 429 -598 c 0,6,7
 365 -598 365 -598 301 -580 c 128,-1,8
 237 -562 237 -562 197 -541 c 0,9,10
 194 -539 194 -539 182.5 -533 c 128,-1,11
 171 -527 171 -527 168 -525.5 c 128,-1,12
 165 -524 165 -524 156.5 -518.5 c 128,-1,13
 148 -513 148 -513 146 -510.5 c 128,-1,14
 144 -508 144 -508 138 -502.5 c 128,-1,15
 132 -497 132 -497 131 -493 c 128,-1,16
 130 -489 130 -489 127 -482 c 128,-1,17
 124 -475 124 -475 123.5 -467.5 c 128,-1,18
 123 -460 123 -460 123 -451 c 0,19,20
 123 -411 123 -411 150 -384 c 128,-1,21
 177 -357 177 -357 210 -364 c 0,22,23
 225 -366 225 -366 254.5 -382.5 c 128,-1,24
 284 -399 284 -399 320 -413 c 128,-1,25
 356 -427 356 -427 390 -427 c 0,26,27
 495 -427 495 -427 587.5 -383 c 128,-1,28
 680 -339 680 -339 741 -258 c 128,-1,29
 802 -177 802 -177 817 -74 c 0,30,31
 824 -31 824 -31 828 77 c 1,32,33
 726 -64 726 -64 500 -64 c 1,34,35
 299 -60 299 -60 207.5 71 c 128,-1,36
 116 202 116 202 116 460 c 0,37,38
 118 583 118 583 150.5 682.5 c 128,-1,39
 183 782 183 782 236.5 848.5 c 128,-1,40
 290 915 290 915 364 959.5 c 128,-1,41
 438 1004 438 1004 519.5 1023.5 c 128,-1,42
 601 1043 601 1043 692 1043 c 0,43,44
 801 1043 801 1043 848 1034 c 128,-1,45
 895 1025 895 1025 942 999 c 0,46,47
 961 989 961 989 969 968.5 c 128,-1,48
 977 948 977 948 975.5 928 c 128,-1,49
 974 908 974 908 966 894 c 0,50,51
 965 892 965 892 961.5 887.5 c 128,-1,52
 958 883 958 883 957 881 c 1,53,54
 1008 868 1008 868 1008 802 c 0,55,56
 1008 797 1008 797 1010.5 572.5 c 128,-1,57
 1013 348 1013 348 1009.5 192.5 c 128,-1,58
 1006 37 1006 37 995 -85 c 0,0,1
311 526 m 0,59,60
 309 461 309 461 310.5 401 c 128,-1,61
 312 341 312 341 326.5 288 c 128,-1,62
 341 235 341 235 364.5 196 c 128,-1,63
 388 157 388 157 429 135.5 c 128,-1,64
 470 114 470 114 524 116 c 0,65,66
 584 118 584 118 634 136 c 128,-1,67
 684 154 684 154 717.5 181.5 c 128,-1,68
 751 209 751 209 776 245.5 c 128,-1,69
 801 282 801 282 814 317.5 c 128,-1,70
 827 353 827 353 833 390 c 1,71,72
 834 450 834 450 835 585.5 c 128,-1,73
 836 721 836 721 837 791 c 0,74,75
 837 816 837 816 850 839 c 1,76,-1
 837 841 l 1,77,78
 729 873 729 873 638 870 c 0,79,80
 595 868 595 868 553.5 855.5 c 128,-1,81
 512 843 512 843 469.5 816 c 128,-1,82
 427 789 427 789 394 751 c 128,-1,83
 361 713 361 713 338.5 655 c 128,-1,84
 316 597 316 597 311 526 c 0,59,60
EndSplineSet
Validated: 33
EndChar

StartChar: h
Encoding: 104 104 75
Width: 1116
GlyphClass: 2
Flags: W
LayerCount: 2
Fore
SplineSet
1017 83 m 0,0,1
 1017 20 1017 20 984.5 -14 c 128,-1,2
 952 -48 952 -48 909 -46 c 0,3,4
 870 -44 870 -44 837 -13 c 128,-1,5
 804 18 804 18 804 66 c 0,6,7
 804 124 804 124 808 289.5 c 128,-1,8
 812 455 812 455 811 559 c 0,9,10
 809 699 809 699 777 773.5 c 128,-1,11
 745 848 745 848 684 848 c 0,12,13
 622 847 622 847 570.5 827 c 128,-1,14
 519 807 519 807 484.5 776.5 c 128,-1,15
 450 746 450 746 423 706.5 c 128,-1,16
 396 667 396 667 381.5 629.5 c 128,-1,17
 367 592 367 592 357.5 555.5 c 128,-1,18
 348 519 348 519 345 497.5 c 128,-1,19
 342 476 342 476 342 464 c 1,20,-1
 342 467 l 1,21,22
 342 455 342 455 341 427.5 c 128,-1,23
 340 400 340 400 340 386 c 0,24,25
 339 347 339 347 339 288 c 128,-1,26
 339 229 339 229 338.5 198 c 128,-1,27
 338 167 338 167 335.5 126 c 128,-1,28
 333 85 333 85 329 50 c 0,29,30
 324 6 324 6 288 -20 c 128,-1,31
 252 -46 252 -46 208 -44 c 0,32,33
 167 -44 167 -44 140.5 -16 c 128,-1,34
 114 12 114 12 118 61 c 0,35,36
 124 145 124 145 133.5 357 c 128,-1,37
 143 569 143 569 140 648 c 0,38,39
 125 992 125 992 136 1461 c 0,40,41
 137 1517 137 1517 166 1545 c 128,-1,42
 195 1573 195 1573 237 1573 c 0,43,44
 282 1575 282 1575 312 1549 c 128,-1,45
 342 1523 342 1523 342 1468 c 0,46,47
 342 1240 342 1240 346 833 c 1,48,49
 368 873 368 873 401 908 c 128,-1,50
 434 943 434 943 482 974 c 128,-1,51
 530 1005 530 1005 599.5 1023 c 128,-1,52
 669 1041 669 1041 751 1041 c 0,53,54
 819 1041 819 1041 868.5 1010 c 128,-1,55
 918 979 918 979 945.5 923.5 c 128,-1,56
 973 868 973 868 985.5 800 c 128,-1,57
 998 732 998 732 997 651 c 0,58,59
 996 528 996 528 1006.5 340 c 128,-1,60
 1017 152 1017 152 1017 83 c 0,0,1
EndSplineSet
Validated: 33
EndChar

StartChar: i
Encoding: 105 105 76
Width: 1116
GlyphClass: 2
Flags: W
LayerCount: 2
Fore
SplineSet
572 1141 m 0,0,1
 497 1134 497 1134 449 1183.5 c 128,-1,2
 401 1233 401 1233 401 1301 c 0,3,4
 401 1363 401 1363 453 1408 c 128,-1,5
 505 1453 505 1453 572 1457 c 0,6,7
 644 1460 644 1460 689 1415 c 128,-1,8
 734 1370 734 1370 734 1304 c 0,9,10
 734 1239 734 1239 689.5 1194.5 c 128,-1,11
 645 1150 645 1150 572 1141 c 0,0,1
957 -24 m 0,12,13
 922 -24 922 -24 602.5 -29.5 c 128,-1,14
 283 -35 283 -35 186 -35 c 0,15,16
 137 -35 137 -35 118 -8.5 c 128,-1,17
 99 18 99 18 101 57 c 0,18,19
 101 95 101 95 120 118.5 c 128,-1,20
 139 142 139 142 188 142 c 2,21,-1
 506 142 l 1,22,23
 506 237 506 237 504 302 c 0,24,25
 502 355 502 355 501.5 405 c 128,-1,26
 501 455 501 455 502.5 521 c 128,-1,27
 504 587 504 587 504.5 614 c 128,-1,28
 505 641 505 641 508.5 728.5 c 128,-1,29
 512 816 512 816 513 828 c 1,30,31
 489 833 489 833 396.5 829.5 c 128,-1,32
 304 826 304 826 256 828 c 0,33,34
 218 828 218 828 196.5 851 c 128,-1,35
 175 874 175 874 175 905 c 0,36,37
 173 942 173 942 193.5 968.5 c 128,-1,38
 214 995 214 995 254 995 c 0,39,40
 447 1010 447 1010 600 1006 c 0,41,42
 632 1006 632 1006 654.5 992 c 128,-1,43
 677 978 677 978 687 956 c 128,-1,44
 697 934 697 934 701 917 c 128,-1,45
 705 900 705 900 705 887 c 0,46,47
 695 757 695 757 693 625.5 c 128,-1,48
 691 494 691 494 694 400 c 128,-1,49
 697 306 697 306 705 142 c 1,50,-1
 962 142 l 2,51,52
 1010 142 1010 142 1027.5 120 c 128,-1,53
 1045 98 1045 98 1045 61 c 0,54,55
 1041 -24 1041 -24 957 -24 c 0,12,13
EndSplineSet
Validated: 33
EndChar

StartChar: j
Encoding: 106 106 77
Width: 1116
GlyphClass: 2
Flags: W
LayerCount: 2
Fore
SplineSet
762 1133 m 0,0,1
 685 1133 685 1133 641.5 1186.5 c 128,-1,2
 598 1240 598 1240 598 1310 c 0,3,4
 598 1371 598 1371 646 1408 c 128,-1,5
 694 1445 694 1445 762 1448 c 0,6,7
 834 1451 834 1451 879.5 1406 c 128,-1,8
 925 1361 925 1361 925 1294.5 c 128,-1,9
 925 1228 925 1228 879.5 1180.5 c 128,-1,10
 834 1133 834 1133 762 1133 c 0,0,1
686 -28 m 0,11,12
 686 -11 686 -11 678.5 128.5 c 128,-1,13
 671 268 671 268 668.5 411.5 c 128,-1,14
 666 555 666 555 675 813 c 1,15,16
 646 811 646 811 564.5 811 c 128,-1,17
 483 811 483 811 380.5 812 c 128,-1,18
 278 813 278 813 254 813 c 0,19,20
 207 813 207 813 178 844 c 128,-1,21
 149 875 149 875 151 914 c 0,22,23
 151 944 151 944 179 966.5 c 128,-1,24
 207 989 207 989 252 990 c 0,25,26
 323 995 323 995 503.5 999.5 c 128,-1,27
 684 1004 684 1004 776 1001 c 0,28,29
 807 1002 807 1002 829.5 987.5 c 128,-1,30
 852 973 852 973 862 951.5 c 128,-1,31
 872 930 872 930 876.5 912.5 c 128,-1,32
 881 895 881 895 881 883 c 0,33,34
 878 862 878 862 872.5 827 c 128,-1,35
 867 792 867 792 865 769.5 c 128,-1,36
 863 747 863 747 863 719 c 0,37,38
 863 668 863 668 869.5 385 c 128,-1,39
 876 102 876 102 876 -55 c 0,40,41
 876 -142 876 -142 855 -216.5 c 128,-1,42
 834 -291 834 -291 797.5 -344.5 c 128,-1,43
 761 -398 761 -398 709 -440.5 c 128,-1,44
 657 -483 657 -483 599.5 -510 c 128,-1,45
 542 -537 542 -537 474.5 -555 c 128,-1,46
 407 -573 407 -573 342.5 -580 c 128,-1,47
 278 -587 278 -587 210 -587 c 0,48,49
 167 -587 167 -587 139.5 -566 c 128,-1,50
 112 -545 112 -545 112 -506 c 0,51,52
 112 -466 112 -466 139 -434.5 c 128,-1,53
 166 -403 166 -403 199 -403 c 0,54,55
 275 -403 275 -403 344.5 -390 c 128,-1,56
 414 -377 414 -377 476.5 -348 c 128,-1,57
 539 -319 539 -319 585 -276 c 128,-1,58
 631 -233 631 -233 658.5 -169.5 c 128,-1,59
 686 -106 686 -106 686 -28 c 0,11,12
EndSplineSet
Validated: 33
EndChar

StartChar: k
Encoding: 107 107 78
Width: 1116
GlyphClass: 2
Flags: W
LayerCount: 2
Fore
SplineSet
340 66 m 0,0,1
 337 3 337 3 305 -23.5 c 128,-1,2
 273 -50 273 -50 223 -46 c 0,3,4
 183 -44 183 -44 153 -18 c 128,-1,5
 123 8 123 8 127 61 c 0,6,7
 135 154 135 154 138 359.5 c 128,-1,8
 141 565 141 565 141 745.5 c 128,-1,9
 141 926 141 926 139.5 1168.5 c 128,-1,10
 138 1411 138 1411 138 1470 c 0,11,12
 138 1522 138 1522 170 1547.5 c 128,-1,13
 202 1573 202 1573 248 1573 c 0,14,15
 290 1573 290 1573 318 1548.5 c 128,-1,16
 346 1524 346 1524 346 1472 c 0,17,18
 346 1207 346 1207 333 638 c 1,19,20
 448 742 448 742 621 886.5 c 128,-1,21
 794 1031 794 1031 813 1049 c 0,22,23
 841 1077 841 1077 868 1086 c 128,-1,24
 895 1095 895 1095 914.5 1089 c 128,-1,25
 934 1083 934 1083 951 1067 c 0,26,27
 1004 1010 1004 1010 933 925 c 0,28,29
 893 878 893 878 638 655 c 1,30,31
 679 581 679 581 785 442.5 c 128,-1,32
 891 304 891 304 973 198.5 c 128,-1,33
 1055 93 1055 93 1056 77 c 0,34,35
 1062 7 1062 7 1010 -26 c 0,36,37
 988 -41 988 -41 966 -44 c 128,-1,38
 944 -47 944 -47 919.5 -34.5 c 128,-1,39
 895 -22 895 -22 874 9 c 0,40,41
 863 25 863 25 807 93.5 c 128,-1,42
 751 162 751 162 695.5 231 c 128,-1,43
 640 300 640 300 582 386.5 c 128,-1,44
 524 473 524 473 500 532 c 1,45,-1
 333 386 l 2,46,47
 331 383 331 383 329 383 c 0,48,49
 327 307 327 307 334.5 203.5 c 128,-1,50
 342 100 342 100 340 66 c 0,0,1
EndSplineSet
Validated: 33
EndChar

StartChar: l
Encoding: 108 108 79
Width: 1116
GlyphClass: 2
Flags: W
LayerCount: 2
Fore
SplineSet
1069 77 m 0,0,1
 1071 36 1071 36 1047 9 c 128,-1,2
 1023 -18 1023 -18 962 -18 c 0,3,4
 936 -18 936 -18 598.5 -14.5 c 128,-1,5
 261 -11 261 -11 160 -11 c 0,6,7
 114 -11 114 -11 93 14 c 128,-1,8
 72 39 72 39 72 77 c 0,9,10
 70 118 70 118 91.5 145.5 c 128,-1,11
 113 173 113 173 162 173 c 0,12,13
 254 173 254 173 478 169 c 1,14,15
 478 250 478 250 475 302 c 0,16,17
 471 484 471 484 475 801 c 128,-1,18
 479 1118 479 1118 486 1374 c 1,19,20
 421 1369 421 1369 245 1369 c 0,21,22
 201 1369 201 1369 177.5 1398.5 c 128,-1,23
 154 1428 154 1428 156 1466 c 0,24,25
 156 1500 156 1500 178 1523.5 c 128,-1,26
 200 1547 200 1547 243 1547 c 0,27,28
 387 1547 387 1547 475 1551 c 128,-1,29
 563 1555 563 1555 629 1553 c 0,30,31
 656 1553 656 1553 666 1523 c 1,32,33
 692 1513 692 1513 692 1490 c 0,34,35
 681 1425 681 1425 674.5 1144.5 c 128,-1,36
 668 864 668 864 668 725 c 0,37,38
 668 521 668 521 670 383 c 0,39,40
 670 307 670 307 675 162 c 1,41,42
 734 161 734 161 800.5 159.5 c 128,-1,43
 867 158 867 158 909 157 c 128,-1,44
 951 156 951 156 966 156 c 0,45,46
 1023 156 1023 156 1045 134 c 128,-1,47
 1067 112 1067 112 1069 77 c 0,0,1
EndSplineSet
Validated: 33
EndChar

StartChar: m
Encoding: 109 109 80
Width: 1116
GlyphClass: 2
Flags: W
LayerCount: 2
Fore
SplineSet
250 61 m 0,0,1
 250 28 250 28 241.5 5 c 128,-1,2
 233 -18 233 -18 217.5 -29 c 128,-1,3
 202 -40 202 -40 186.5 -44 c 128,-1,4
 171 -48 171 -48 151 -48 c 0,5,6
 111 -46 111 -46 87.5 -23.5 c 128,-1,7
 64 -1 64 -1 64 61 c 0,8,9
 64 79 64 79 62 115 c 128,-1,10
 60 151 60 151 57 207 c 128,-1,11
 54 263 54 263 53 302 c 0,12,13
 43 559 43 559 53 942 c 0,14,15
 54 1012 54 1012 88.5 1045 c 128,-1,16
 123 1078 123 1078 167 1076 c 0,17,18
 208 1076 208 1076 232.5 1044.5 c 128,-1,19
 257 1013 257 1013 248 944 c 0,20,21
 245 927 245 927 239.5 893 c 128,-1,22
 234 859 234 859 232 841 c 1,23,24
 330 1045 330 1045 504 1045 c 0,25,26
 545 1045 545 1045 576.5 989.5 c 128,-1,27
 608 934 608 934 629 839 c 1,28,29
 741 1045 741 1045 940 1045 c 0,30,31
 989 1045 989 1045 1017 985 c 128,-1,32
 1045 925 1045 925 1052.5 826 c 128,-1,33
 1060 727 1060 727 1062 601 c 128,-1,34
 1064 475 1064 475 1060.5 343.5 c 128,-1,35
 1057 212 1057 212 1063 85 c 0,36,37
 1064 44 1064 44 1058 16.5 c 128,-1,38
 1052 -11 1052 -11 1039.5 -24 c 128,-1,39
 1027 -37 1027 -37 1013.5 -41.5 c 128,-1,40
 1000 -46 1000 -46 981 -46 c 0,41,42
 961 -47 961 -47 944.5 -42.5 c 128,-1,43
 928 -38 928 -38 910.5 -25.5 c 128,-1,44
 893 -13 893 -13 882.5 15 c 128,-1,45
 872 43 872 43 870 85 c 0,46,47
 865 155 865 155 867 250 c 128,-1,48
 869 345 869 345 870.5 451 c 128,-1,49
 872 557 872 557 872 646 c 128,-1,50
 872 735 872 735 864 793.5 c 128,-1,51
 856 852 856 852 839 852 c 0,52,53
 781 854 781 854 733.5 792.5 c 128,-1,54
 686 731 686 731 653 633 c 1,55,56
 659 518 659 518 650.5 327.5 c 128,-1,57
 642 137 642 137 646 70 c 0,58,59
 649 33 649 33 641.5 8.5 c 128,-1,60
 634 -16 634 -16 619.5 -27.5 c 128,-1,61
 605 -39 605 -39 589.5 -43 c 128,-1,62
 574 -47 574 -47 554 -46 c 0,63,64
 515 -46 515 -46 491.5 -22.5 c 128,-1,65
 468 1 468 1 462 70 c 0,66,67
 458 136 458 136 469 299.5 c 128,-1,68
 480 463 480 463 480 554 c 0,69,70
 480 572 480 572 480 603 c 0,71,72
 480 757 480 757 473 804.5 c 128,-1,73
 466 852 466 852 434 852 c 0,74,75
 385 852 385 852 331 784.5 c 128,-1,76
 277 717 277 717 239 624 c 1,77,78
 237 558 237 558 241 383 c 0,79,80
 241 311 241 311 245.5 198.5 c 128,-1,81
 250 86 250 86 250 61 c 0,0,1
EndSplineSet
Validated: 33
EndChar

StartChar: n
Encoding: 110 110 81
Width: 1116
GlyphClass: 2
Flags: W
LayerCount: 2
Fore
SplineSet
328 61 m 0,0,1
 328 1 328 1 295.5 -24.5 c 128,-1,2
 263 -50 263 -50 216 -46 c 0,3,4
 179 -44 179 -44 154 -19 c 128,-1,5
 129 6 129 6 126 61 c 0,6,7
 126 78 126 78 116.5 161 c 128,-1,8
 107 244 107 244 105 302 c 0,9,10
 99 436 99 436 114.5 666 c 128,-1,11
 130 896 130 896 131 933 c 0,12,13
 132 997 132 997 167.5 1026.5 c 128,-1,14
 203 1056 203 1056 249 1054 c 0,15,16
 293 1054 293 1054 319 1026.5 c 128,-1,17
 345 999 345 999 339 935 c 0,18,19
 335 892 335 892 332 868 c 1,20,21
 381 943 381 943 470 994 c 128,-1,22
 559 1045 559 1045 683 1045 c 0,23,24
 825 1045 825 1045 897 941.5 c 128,-1,25
 969 838 969 838 974 651 c 0,26,27
 978 526 978 526 1005 332.5 c 128,-1,28
 1032 139 1032 139 1036 77 c 0,29,30
 1039 13 1039 13 1014 -16.5 c 128,-1,31
 989 -46 989 -46 948 -46 c 0,32,33
 903 -48 903 -48 869.5 -18.5 c 128,-1,34
 836 11 836 11 832 77 c 0,35,36
 830 96 830 96 810.5 271.5 c 128,-1,37
 791 447 791 447 786 559 c 0,38,39
 777 734 777 734 752.5 794 c 128,-1,40
 728 854 728 854 654 854 c 0,41,42
 603 854 603 854 555 837.5 c 128,-1,43
 507 821 507 821 471 795.5 c 128,-1,44
 435 770 435 770 402 734.5 c 128,-1,45
 369 699 369 699 348 667 c 128,-1,46
 327 635 327 635 308 600 c 1,47,48
 301 483 301 483 304 383 c 0,49,50
 304 312 304 312 316 202 c 128,-1,51
 328 92 328 92 328 61 c 0,0,1
273 502 m 1,52,-1
 273 506 l 1,53,-1
 273 502 l 1,52,-1
EndSplineSet
Validated: 33
EndChar

StartChar: o
Encoding: 111 111 82
Width: 1116
GlyphClass: 2
Flags: W
LayerCount: 2
Fore
SplineSet
515 -55 m 0,0,1
 415 -53 415 -53 331.5 -7 c 128,-1,2
 248 39 248 39 193.5 114.5 c 128,-1,3
 139 190 139 190 109 287.5 c 128,-1,4
 79 385 79 385 81 491 c 0,5,6
 81 614 81 614 113.5 719.5 c 128,-1,7
 146 825 146 825 207 903.5 c 128,-1,8
 268 982 268 982 362.5 1026.5 c 128,-1,9
 457 1071 457 1071 576 1071 c 0,10,11
 650 1071 650 1071 716.5 1050.5 c 128,-1,12
 783 1030 783 1030 843 983.5 c 128,-1,13
 903 937 903 937 944.5 867.5 c 128,-1,14
 986 798 986 798 1007.5 693 c 128,-1,15
 1029 588 1029 588 1021 458 c 0,16,17
 1013 333 1013 333 981.5 240 c 128,-1,18
 950 147 950 147 890.5 79 c 128,-1,19
 831 11 831 11 737 -22.5 c 128,-1,20
 643 -56 643 -56 515 -55 c 0,0,1
559 118 m 0,21,22
 621 115 621 115 669.5 142 c 128,-1,23
 718 169 718 169 748 221 c 128,-1,24
 778 273 778 273 795 341 c 128,-1,25
 812 409 812 409 815 493 c 0,26,27
 823 710 823 710 751.5 810.5 c 128,-1,28
 680 911 680 911 548 911 c 0,29,30
 428 911 428 911 365 801.5 c 128,-1,31
 302 692 302 692 291 495 c 0,32,33
 289 428 289 428 294.5 375 c 128,-1,34
 300 322 300 322 317.5 274 c 128,-1,35
 335 226 335 226 365 194 c 128,-1,36
 395 162 395 162 443.5 142 c 128,-1,37
 492 122 492 122 559 118 c 0,21,22
EndSplineSet
Validated: 33
EndChar

StartChar: p
Encoding: 112 112 83
Width: 1116
GlyphClass: 2
Flags: W
LayerCount: 2
Fore
SplineSet
329 -504 m 0,0,1
 330 -555 330 -555 303 -582 c 128,-1,2
 276 -609 276 -609 237 -609 c 0,3,4
 139 -604 139 -604 134 -502 c 0,5,6
 125 -316 125 -316 119.5 135 c 128,-1,7
 114 586 114 586 116 846 c 0,8,9
 116 1021 116 1021 136 1060 c 0,10,11
 152 1093 152 1093 185 1110 c 128,-1,12
 218 1127 218 1127 250 1122 c 0,13,14
 283 1118 283 1118 306.5 1091.5 c 128,-1,15
 330 1065 330 1065 322 1036 c 0,16,17
 313 1001 313 1001 309 942 c 1,18,19
 455 1043 455 1043 602 1043 c 0,20,21
 682 1043 682 1043 743 1027 c 128,-1,22
 804 1011 804 1011 857 970 c 128,-1,23
 910 929 910 929 945 862 c 128,-1,24
 980 795 980 795 1000.5 691 c 128,-1,25
 1021 587 1021 587 1023 447 c 0,26,27
 1024 379 1024 379 1007.5 308.5 c 128,-1,28
 991 238 991 238 955.5 172 c 128,-1,29
 920 106 920 106 870.5 54 c 128,-1,30
 821 2 821 2 751.5 -30 c 128,-1,31
 682 -62 682 -62 602 -64 c 0,32,33
 407 -67 407 -67 322 -39 c 1,34,35
 323 -137 323 -137 326 -299 c 128,-1,36
 329 -461 329 -461 329 -504 c 0,0,1
307 725 m 2,37,38
 307 689 307 689 309.5 576.5 c 128,-1,39
 312 464 312 464 314.5 345 c 128,-1,40
 317 226 317 226 318 120 c 1,41,42
 358 105 358 105 430.5 103.5 c 128,-1,43
 503 102 503 102 578 107 c 0,44,45
 642 110 642 110 690 147 c 128,-1,46
 738 184 738 184 764 243.5 c 128,-1,47
 790 303 790 303 801.5 371 c 128,-1,48
 813 439 813 439 811 513 c 0,49,50
 807 599 807 599 793.5 663 c 128,-1,51
 780 727 780 727 761 766 c 128,-1,52
 742 805 742 805 714.5 829 c 128,-1,53
 687 853 687 853 658.5 861.5 c 128,-1,54
 630 870 630 870 594 870 c 0,55,56
 525 870 525 870 445.5 835 c 128,-1,57
 366 800 366 800 307 749 c 1,58,-1
 307 725 l 2,37,38
EndSplineSet
Validated: 33
EndChar

StartChar: q
Encoding: 113 113 84
Width: 1116
GlyphClass: 2
Flags: W
LayerCount: 2
Fore
SplineSet
964 -491 m 0,0,1
 958 -547 958 -547 925 -577 c 128,-1,2
 892 -607 892 -607 852 -607 c 0,3,4
 814 -607 814 -607 787 -577 c 128,-1,5
 760 -547 760 -547 765 -491 c 0,6,7
 777 -338 777 -338 787 -26 c 1,8,9
 692 -67 692 -67 524 -64 c 0,10,11
 444 -62 444 -62 374.5 -31.5 c 128,-1,12
 305 -1 305 -1 255.5 48.5 c 128,-1,13
 206 98 206 98 170.5 161.5 c 128,-1,14
 135 225 135 225 118.5 292.5 c 128,-1,15
 102 360 102 360 103 425 c 0,16,17
 105 565 105 565 137.5 675.5 c 128,-1,18
 170 786 170 786 223 858 c 128,-1,19
 276 930 276 930 350.5 977.5 c 128,-1,20
 425 1025 425 1025 506 1045 c 128,-1,21
 587 1065 587 1065 679 1065 c 0,22,23
 788 1065 788 1065 877.5 1030 c 128,-1,24
 967 995 967 995 1012 942 c 0,25,26
 1032 918 1032 918 1040.5 892.5 c 128,-1,27
 1049 867 1049 867 1046.5 848 c 128,-1,28
 1044 829 1044 829 1034 817 c 0,29,30
 1018 798 1018 798 992 789 c 1,31,32
 992 765 992 765 991.5 544.5 c 128,-1,33
 991 324 991 324 989.5 235.5 c 128,-1,34
 988 147 988 147 985.5 -23.5 c 128,-1,35
 983 -194 983 -194 977.5 -304 c 128,-1,36
 972 -414 972 -414 964 -491 c 0,0,1
548 107 m 0,37,38
 699 101 699 101 793 151 c 1,39,40
 797 278 797 278 808 848 c 1,41,42
 772 869 772 869 737 875 c 128,-1,43
 702 881 702 881 633 881 c 0,44,45
 597 881 597 881 558.5 869.5 c 128,-1,46
 520 858 520 858 477 829.5 c 128,-1,47
 434 801 434 801 400.5 758.5 c 128,-1,48
 367 716 367 716 343 646.5 c 128,-1,49
 319 577 319 577 315 491 c 0,50,51
 313 422 313 422 324.5 357.5 c 128,-1,52
 336 293 336 293 362 236.5 c 128,-1,53
 388 180 388 180 436 145 c 128,-1,54
 484 110 484 110 548 107 c 0,37,38
EndSplineSet
Validated: 33
EndChar

StartChar: r
Encoding: 114 114 85
Width: 1116
GlyphClass: 2
Flags: W
LayerCount: 2
Fore
SplineSet
368 46 m 0,0,1
 371 -53 371 -53 265 -48 c 0,2,3
 224 -46 224 -46 199.5 -26 c 128,-1,4
 175 -6 175 -6 171 46 c 0,5,6
 170 53 170 53 158.5 147 c 128,-1,7
 147 241 147 241 145 302 c 0,8,9
 140 433 140 433 156 655 c 128,-1,10
 172 877 172 877 173 935 c 0,11,12
 176 998 176 998 209 1026 c 128,-1,13
 242 1054 242 1054 289 1054 c 0,14,15
 332 1054 332 1054 358 1027 c 128,-1,16
 384 1000 384 1000 381 938 c 2,17,-1
 368 813 l 1,18,19
 391 852 391 852 439.5 891 c 128,-1,20
 488 930 488 930 557.5 964.5 c 128,-1,21
 627 999 627 999 724 1019 c 128,-1,22
 821 1039 821 1039 927 1036 c 1,23,24
 949 1031 949 1031 966.5 992 c 128,-1,25
 984 953 984 953 991.5 902.5 c 128,-1,26
 999 852 999 852 1000.5 800 c 128,-1,27
 1002 748 1002 748 992 716 c 0,28,29
 985 679 985 679 963 659.5 c 128,-1,30
 941 640 941 640 907 631 c 0,31,32
 871 623 871 623 840 647 c 128,-1,33
 809 671 809 671 804 708 c 0,34,35
 800 729 800 729 799.5 763.5 c 128,-1,36
 799 798 799 798 794 820.5 c 128,-1,37
 789 843 789 843 773 861 c 1,38,39
 706 861 706 861 641 835 c 128,-1,40
 576 809 576 809 528 771.5 c 128,-1,41
 480 734 480 734 440 689 c 128,-1,42
 400 644 400 644 377.5 607.5 c 128,-1,43
 355 571 355 571 346 546 c 1,44,45
 342 439 342 439 344 383 c 0,46,47
 344 307 344 307 355.5 183 c 128,-1,48
 367 59 367 59 368 46 c 0,0,1
EndSplineSet
Validated: 33
EndChar

StartChar: s
Encoding: 115 115 86
Width: 1116
GlyphClass: 2
Flags: W
LayerCount: 2
Fore
SplineSet
114 136 m 0,0,1
 85 250 85 250 158 287 c 0,2,3
 187 298 187 298 217 298 c 128,-1,4
 247 298 247 298 275.5 277.5 c 128,-1,5
 304 257 304 257 320 219 c 0,6,7
 332 191 332 191 339 177.5 c 128,-1,8
 346 164 346 164 359 147.5 c 128,-1,9
 372 131 372 131 387.5 124 c 128,-1,10
 403 117 403 117 427.5 112 c 128,-1,11
 452 107 452 107 486 107 c 0,12,13
 544 107 544 107 622 135 c 128,-1,14
 700 163 700 163 763.5 212 c 128,-1,15
 827 261 827 261 833 311 c 0,16,17
 835 339 835 339 809 360.5 c 128,-1,18
 783 382 783 382 731.5 398 c 128,-1,19
 680 414 680 414 625 427 c 128,-1,20
 570 440 570 440 493.5 458.5 c 128,-1,21
 417 477 417 477 361 495 c 0,22,23
 243 534 243 534 201.5 579.5 c 128,-1,24
 160 625 160 625 160 712 c 0,25,26
 160 875 160 875 343 969 c 128,-1,27
 526 1063 526 1063 885 1063 c 0,28,29
 909 1063 909 1063 930 1004.5 c 128,-1,30
 951 946 951 946 960 893.5 c 128,-1,31
 969 841 969 841 971 815 c 0,32,33
 972 790 972 790 971 766.5 c 128,-1,34
 970 743 970 743 956 723 c 128,-1,35
 942 703 942 703 916 694 c 0,36,37
 875 681 875 681 841 700.5 c 128,-1,38
 807 720 807 720 795 749 c 0,39,40
 767 814 767 814 749 883 c 1,41,42
 690 883 690 883 624 872.5 c 128,-1,43
 558 862 558 862 497 842 c 128,-1,44
 436 822 436 822 398.5 788 c 128,-1,45
 361 754 361 754 366 712 c 0,46,47
 373 664 373 664 581 622 c 0,48,49
 664 606 664 606 729.5 588 c 128,-1,50
 795 570 795 570 858 543 c 128,-1,51
 921 516 921 516 961 484 c 128,-1,52
 1001 452 1001 452 1022 407 c 128,-1,53
 1043 362 1043 362 1036 309 c 0,54,55
 1021 192 1021 192 939.5 104 c 128,-1,56
 858 16 858 16 733.5 -28 c 128,-1,57
 609 -72 609 -72 460 -72 c 0,58,59
 381 -72 381 -72 311.5 -51 c 128,-1,60
 242 -30 242 -30 187 18.5 c 128,-1,61
 132 67 132 67 114 136 c 0,0,1
EndSplineSet
Validated: 33
EndChar

StartChar: t
Encoding: 116 116 87
Width: 1116
GlyphClass: 2
Flags: W
LayerCount: 2
Fore
SplineSet
905 -18 m 0,0,1
 792 -61 792 -61 631 -57 c 0,2,3
 553 -54 553 -54 486.5 -29.5 c 128,-1,4
 420 -5 420 -5 368 39.5 c 128,-1,5
 316 84 316 84 285 154 c 128,-1,6
 254 224 254 224 252 311 c 0,7,8
 249 343 249 343 250.5 412 c 128,-1,9
 252 481 252 481 251.5 505 c 128,-1,10
 251 529 251 529 255 591.5 c 128,-1,11
 259 654 259 654 260 673.5 c 128,-1,12
 261 693 261 693 265.5 752 c 128,-1,13
 270 811 270 811 272 828 c 1,14,-1
 171 828 l 2,15,16
 81 828 81 828 85 918 c 0,17,18
 85 1006 85 1006 173 1006 c 0,19,20
 239 1006 239 1006 280 1003 c 1,21,22
 287 1148 287 1148 272 1312 c 0,23,24
 268 1344 268 1344 288.5 1374 c 128,-1,25
 309 1404 309 1404 344 1404 c 0,26,27
 381 1404 381 1404 423.5 1378 c 128,-1,28
 466 1352 466 1352 471 1323 c 0,29,30
 479 1248 479 1248 471 999 c 1,31,32
 537 997 537 997 632.5 994 c 128,-1,33
 728 991 728 991 788 989.5 c 128,-1,34
 848 988 848 988 872 988 c 0,35,36
 960 988 960 988 960 898 c 0,37,38
 958 863 958 863 939 842.5 c 128,-1,39
 920 822 920 822 872 822 c 128,-1,40
 824 822 824 822 464 826 c 1,41,42
 463 789 463 789 459 702 c 128,-1,43
 455 615 455 615 454 584 c 128,-1,44
 453 553 453 553 450 478 c 128,-1,45
 447 403 447 403 448 390 c 128,-1,46
 449 377 449 377 449 326 c 0,47,48
 454 235 454 235 509.5 178.5 c 128,-1,49
 565 122 565 122 662 118 c 0,50,51
 790 114 790 114 905 164 c 0,52,53
 936 177 936 177 961 160 c 128,-1,54
 986 143 986 143 995 103 c 0,55,56
 1002 64 1002 64 975 31.5 c 128,-1,57
 948 -1 948 -1 905 -18 c 0,0,1
EndSplineSet
Validated: 33
EndChar

StartChar: u
Encoding: 117 117 88
Width: 1116
GlyphClass: 2
Flags: W
LayerCount: 2
Fore
SplineSet
929 -48 m 0,0,1
 880 -52 880 -52 847.5 -26 c 128,-1,2
 815 0 815 0 815 64 c 2,3,-1
 815 120 l 1,4,5
 763 77 763 77 701.5 42.5 c 128,-1,6
 640 8 640 8 554.5 -16 c 128,-1,7
 469 -40 469 -40 390 -33 c 0,8,9
 319 -27 319 -27 257 20.5 c 128,-1,10
 195 68 195 68 160.5 133 c 128,-1,11
 126 198 126 198 123 263 c 0,12,13
 112 405 112 405 112 592 c 0,14,15
 112 658 112 658 117 774 c 128,-1,16
 122 890 122 890 120 933 c 0,17,18
 120 983 120 983 147.5 1007.5 c 128,-1,19
 175 1032 175 1032 215 1032 c 0,20,21
 259 1032 259 1032 290.5 1007 c 128,-1,22
 322 982 322 982 322 933 c 0,23,24
 322 914 322 914 317 798.5 c 128,-1,25
 312 683 312 683 313 602 c 0,26,27
 313 392 313 392 329 280 c 0,28,29
 334 240 334 240 345 214.5 c 128,-1,30
 356 189 356 189 375 176.5 c 128,-1,31
 394 164 394 164 414.5 160 c 128,-1,32
 435 156 435 156 467 156 c 0,33,34
 555 156 555 156 647.5 197 c 128,-1,35
 740 238 740 238 817 296 c 1,36,37
 820 429 820 429 817 600 c 0,38,39
 817 827 817 827 808 935 c 0,40,41
 808 979 808 979 834.5 1004.5 c 128,-1,42
 861 1030 861 1030 898 1032 c 0,43,44
 940 1032 940 1032 973 1006 c 128,-1,45
 1006 980 1006 980 1006 935 c 1,46,47
 1011 904 1011 904 1013 802.5 c 128,-1,48
 1015 701 1015 701 1017 681 c 0,49,50
 1023 501 1023 501 1023 66 c 0,51,52
 1023 7 1023 7 996.5 -19.5 c 128,-1,53
 970 -46 970 -46 929 -48 c 0,0,1
EndSplineSet
Validated: 33
EndChar

StartChar: v
Encoding: 118 118 89
Width: 1116
GlyphClass: 2
Flags: W
LayerCount: 2
Fore
SplineSet
657 -15 m 0,0,1
 645 -42 645 -42 608.5 -51 c 128,-1,2
 572 -60 572 -60 535.5 -49 c 128,-1,3
 499 -38 499 -38 484 -13 c 0,4,5
 235 449 235 449 85 846 c 0,6,7
 73 880 73 880 72.5 909 c 128,-1,8
 72 938 72 938 81.5 958 c 128,-1,9
 91 978 91 978 104.5 991 c 128,-1,10
 118 1004 118 1004 136 1012 c 0,11,12
 154 1022 154 1022 175 1022.5 c 128,-1,13
 196 1023 196 1023 218 1013.5 c 128,-1,14
 240 1004 240 1004 260 979 c 128,-1,15
 280 954 280 954 291 916 c 0,16,17
 306 867 306 867 323.5 815.5 c 128,-1,18
 341 764 341 764 355.5 723.5 c 128,-1,19
 370 683 370 683 392 628.5 c 128,-1,20
 414 574 414 574 426 543.5 c 128,-1,21
 438 513 438 513 463 455.5 c 128,-1,22
 488 398 488 398 497 377 c 128,-1,23
 506 356 506 356 533 296 c 128,-1,24
 560 236 560 236 565 223 c 1,25,26
 775 629 775 629 870 931 c 0,27,28
 891 999 891 999 932 1020.5 c 128,-1,29
 973 1042 973 1042 1012 1025 c 0,30,31
 1034 1015 1034 1015 1047.5 994.5 c 128,-1,32
 1061 974 1061 974 1065.5 939 c 128,-1,33
 1070 904 1070 904 1054 857 c 0,34,35
 1028 775 1028 775 985.5 680.5 c 128,-1,36
 943 586 943 586 840.5 372.5 c 128,-1,37
 738 159 738 159 657 -15 c 0,0,1
EndSplineSet
Validated: 33
EndChar

StartChar: w
Encoding: 119 119 90
Width: 1116
GlyphClass: 2
Flags: W
LayerCount: 2
Fore
SplineSet
401 -7 m 0,0,1
 390 -39 390 -39 363 -56.5 c 128,-1,2
 336 -74 336 -74 309 -74 c 0,3,4
 277 -74 277 -74 248 -55.5 c 128,-1,5
 219 -37 219 -37 206 7 c 0,6,7
 48 524 48 524 18 905 c 0,8,9
 11 956 11 956 33.5 982.5 c 128,-1,10
 56 1009 56 1009 96 1014 c 0,11,12
 138 1020 138 1020 170.5 999 c 128,-1,13
 203 978 203 978 210 925 c 0,14,15
 235 667 235 667 322 164 c 1,16,17
 335 233 335 233 368.5 418 c 128,-1,18
 402 603 402 603 429 740 c 128,-1,19
 456 877 456 877 475 942 c 0,20,21
 498 1025 498 1025 583 1021 c 0,22,23
 616 1019 616 1019 641 1002 c 128,-1,24
 666 985 666 985 681 940 c 0,25,26
 684 931 684 931 706.5 790 c 128,-1,27
 729 649 729 649 763 462 c 128,-1,28
 797 275 797 275 826 160 c 1,29,30
 866 357 866 357 931 925 c 0,31,32
 937 981 937 981 968 1000.5 c 128,-1,33
 999 1020 999 1020 1038 1012 c 0,34,35
 1117 996 1117 996 1106 887 c 0,36,37
 1082 681 1082 681 1032.5 416.5 c 128,-1,38
 983 152 983 152 938 20 c 0,39,40
 912 -59 912 -59 808 -55 c 0,41,42
 767 -55 767 -55 738 -39.5 c 128,-1,43
 709 -24 709 -24 692 18 c 0,44,45
 659 104 659 104 636 226.5 c 128,-1,46
 613 349 613 349 593 518 c 128,-1,47
 573 687 573 687 567 723 c 1,48,49
 548 647 548 647 523 513 c 128,-1,50
 498 379 498 379 468.5 244.5 c 128,-1,51
 439 110 439 110 401 -7 c 0,0,1
EndSplineSet
Validated: 33
EndChar

StartChar: x
Encoding: 120 120 91
Width: 1116
GlyphClass: 2
Flags: W
LayerCount: 2
Fore
SplineSet
232 0 m 0,0,1
 207 -33 207 -33 180 -43.5 c 128,-1,2
 153 -54 153 -54 131.5 -46.5 c 128,-1,3
 110 -39 110 -39 90 -20 c 0,4,5
 30 36 30 36 85 129 c 0,6,7
 109 168 109 168 172 232.5 c 128,-1,8
 235 297 235 297 311.5 376.5 c 128,-1,9
 388 456 388 456 436 524 c 1,10,11
 373 604 373 604 268.5 710 c 128,-1,12
 164 816 164 816 136 852 c 0,13,14
 111 886 111 886 104 916.5 c 128,-1,15
 97 947 97 947 105.5 968 c 128,-1,16
 114 989 114 989 134 1006 c 0,17,18
 154 1022 154 1022 178.5 1027.5 c 128,-1,19
 203 1033 203 1033 235.5 1021 c 128,-1,20
 268 1009 268 1009 298 977 c 0,21,22
 343 930 343 930 426 830.5 c 128,-1,23
 509 731 509 731 574 646 c 1,24,25
 600 681 600 681 648 746 c 128,-1,26
 696 811 696 811 722 845.5 c 128,-1,27
 748 880 748 880 780 920.5 c 128,-1,28
 812 961 812 961 835 984 c 0,29,30
 876 1026 876 1026 914.5 1034 c 128,-1,31
 953 1042 953 1042 979 1019 c 0,32,33
 997 1004 997 1004 1008 983.5 c 128,-1,34
 1019 963 1019 963 1016.5 934.5 c 128,-1,35
 1014 906 1014 906 992 881 c 2,36,-1
 688 506 l 1,37,-1
 681 500 l 1,38,39
 734 429 734 429 798 360 c 128,-1,40
 862 291 862 291 918 233.5 c 128,-1,41
 974 176 974 176 1006 134 c 0,42,43
 1032 98 1032 98 1041.5 70 c 128,-1,44
 1051 42 1051 42 1047.5 24 c 128,-1,45
 1044 6 1044 6 1030 -11 c 0,46,47
 1012 -32 1012 -32 988.5 -40.5 c 128,-1,48
 965 -49 965 -49 930.5 -37.5 c 128,-1,49
 896 -26 896 -26 861 11 c 0,50,51
 679 207 679 207 548 375 c 1,52,53
 488 300 488 300 370.5 164 c 128,-1,54
 253 28 253 28 232 0 c 0,0,1
EndSplineSet
Validated: 33
EndChar

StartChar: y
Encoding: 121 121 92
Width: 1116
GlyphClass: 2
Flags: W
LayerCount: 2
Fore
SplineSet
361 -594 m 0,0,1
 342 -633 342 -633 302 -646 c 128,-1,2
 262 -659 262 -659 221 -631 c 0,3,4
 201 -616 201 -616 189.5 -596 c 128,-1,5
 178 -576 178 -576 176 -549 c 128,-1,6
 174 -522 174 -522 191 -493 c 2,7,-1
 456 26 l 1,8,9
 204 500 204 500 70 859 c 0,10,11
 52 906 52 906 56.5 940.5 c 128,-1,12
 61 975 61 975 75.5 995 c 128,-1,13
 90 1015 90 1015 114 1025 c 0,14,15
 132 1035 132 1035 153 1036.5 c 128,-1,16
 174 1038 174 1038 196 1030 c 128,-1,17
 218 1022 218 1022 238 998 c 128,-1,18
 258 974 258 974 269 935 c 0,19,20
 303 825 303 825 360 686 c 128,-1,21
 417 547 417 547 456.5 462.5 c 128,-1,22
 496 378 496 378 563 239 c 1,23,24
 777 671 777 671 885 949 c 0,25,26
 898 984 898 984 917 1007 c 128,-1,27
 936 1030 936 1030 956.5 1038 c 128,-1,28
 977 1046 977 1046 996.5 1046 c 128,-1,29
 1016 1046 1016 1046 1034 1038 c 0,30,31
 1050 1030 1050 1030 1063.5 1016.5 c 128,-1,32
 1077 1003 1077 1003 1086.5 982.5 c 128,-1,33
 1096 962 1096 962 1095 932.5 c 128,-1,34
 1094 903 1094 903 1080 870 c 0,35,36
 1031 753 1031 753 934 552 c 128,-1,37
 837 351 837 351 747 172 c 128,-1,38
 657 -7 657 -7 460 -399 c 0,39,40
 395 -526 395 -526 361 -594 c 0,0,1
EndSplineSet
Validated: 33
EndChar

StartChar: z
Encoding: 122 122 93
Width: 1116
GlyphClass: 2
Flags: W
LayerCount: 2
Fore
SplineSet
1014 77 m 0,0,1
 1016 36 1016 36 992.5 9 c 128,-1,2
 969 -18 969 -18 907 -18 c 0,3,4
 891 -18 891 -18 743 -13.5 c 128,-1,5
 595 -9 595 -9 470 -7.5 c 128,-1,6
 345 -6 345 -6 186 -11 c 0,7,8
 149 -12 149 -12 122.5 28.5 c 128,-1,9
 96 69 96 69 96 107 c 0,10,11
 96 122 96 122 101.5 136.5 c 128,-1,12
 107 151 107 151 133 185 c 128,-1,13
 159 219 159 219 208 269 c 0,14,15
 240 302 240 302 365.5 422 c 128,-1,16
 491 542 491 542 608 658.5 c 128,-1,17
 725 775 725 775 776 835 c 1,18,19
 363 818 363 818 213 843 c 0,20,21
 125 858 125 858 125 931 c 0,22,23
 123 973 123 973 144.5 1002.5 c 128,-1,24
 166 1032 166 1032 215 1027 c 0,25,26
 575 990 575 990 911 1010 c 0,27,28
 946 1012 946 1012 971.5 979.5 c 128,-1,29
 997 947 997 947 999 905 c 0,30,31
 1001 868 1001 868 931 760 c 0,32,33
 871 672 871 672 793 587 c 128,-1,34
 715 502 715 502 649.5 444.5 c 128,-1,35
 584 387 584 387 493 305.5 c 128,-1,36
 402 224 402 224 340 160 c 1,37,38
 738 185 738 185 911 160 c 0,39,40
 969 149 969 149 991 129 c 128,-1,41
 1013 109 1013 109 1014 77 c 0,0,1
EndSplineSet
Validated: 33
EndChar

StartChar: braceleft
Encoding: 123 123 94
Width: 1116
GlyphClass: 2
Flags: W
LayerCount: 2
Fore
SplineSet
1014 -112 m 0,0,1
 1014 -147 1014 -147 991 -175.5 c 128,-1,2
 968 -204 968 -204 918 -204 c 0,3,4
 820 -204 820 -204 731.5 -185 c 128,-1,5
 643 -166 643 -166 572.5 -130.5 c 128,-1,6
 502 -95 502 -95 460 -36 c 128,-1,7
 418 23 418 23 418 96 c 0,8,9
 418 153 418 153 430.5 206.5 c 128,-1,10
 443 260 443 260 461 302.5 c 128,-1,11
 479 345 479 345 496.5 385.5 c 128,-1,12
 514 426 514 426 526.5 471.5 c 128,-1,13
 539 517 539 517 539 561 c 0,14,15
 539 568 539 568 525 579.5 c 128,-1,16
 511 591 511 591 483 604.5 c 128,-1,17
 455 618 455 618 417.5 629 c 128,-1,18
 380 640 380 640 326.5 647.5 c 128,-1,19
 273 655 273 655 215 655 c 0,20,21
 173 655 173 655 142.5 689 c 128,-1,22
 112 723 112 723 112 765 c 256,23,24
 112 807 112 807 134 834 c 128,-1,25
 156 861 156 861 199 861 c 0,26,27
 254 861 254 861 297 863.5 c 128,-1,28
 340 866 340 866 384.5 873 c 128,-1,29
 429 880 429 880 458.5 892 c 128,-1,30
 488 904 488 904 507 924.5 c 128,-1,31
 526 945 526 945 526 973 c 0,32,33
 526 989 526 989 509 1020 c 128,-1,34
 492 1051 492 1051 472 1085.5 c 128,-1,35
 452 1120 452 1120 435 1184 c 128,-1,36
 418 1248 418 1248 418 1321 c 0,37,38
 418 1514 418 1514 551 1628 c 128,-1,39
 684 1742 684 1742 918 1742 c 0,40,41
 959 1742 959 1742 988 1719.5 c 128,-1,42
 1017 1697 1017 1697 1017 1667 c 0,43,44
 1017 1633 1017 1633 979.5 1601 c 128,-1,45
 942 1569 942 1569 909 1569 c 0,46,47
 769 1569 769 1569 690 1507 c 128,-1,48
 611 1445 611 1445 611 1343 c 0,49,50
 611 1293 611 1293 629.5 1232 c 128,-1,51
 648 1171 648 1171 670.5 1126 c 128,-1,52
 693 1081 693 1081 711.5 1039 c 128,-1,53
 730 997 730 997 730 979 c 0,54,55
 730 939 730 939 705.5 903 c 128,-1,56
 681 867 681 867 640 841 c 128,-1,57
 599 815 599 815 553.5 796.5 c 128,-1,58
 508 778 508 778 458 767 c 1,59,60
 574 733 574 733 652 678 c 128,-1,61
 730 623 730 623 730 576.5 c 128,-1,62
 730 530 730 530 718 483.5 c 128,-1,63
 706 437 706 437 688.5 396.5 c 128,-1,64
 671 356 671 356 654 314 c 128,-1,65
 637 272 637 272 625 219.5 c 128,-1,66
 613 167 613 167 613 112 c 0,67,68
 613 77 613 77 641.5 49 c 128,-1,69
 670 21 670 21 714 4 c 128,-1,70
 758 -13 758 -13 809 -22 c 128,-1,71
 860 -31 860 -31 909 -31 c 0,72,73
 951 -31 951 -31 982.5 -53.5 c 128,-1,74
 1014 -76 1014 -76 1014 -112 c 0,0,1
EndSplineSet
Validated: 1
EndChar

StartChar: bar
Encoding: 124 124 95
Width: 1116
GlyphClass: 2
Flags: W
LayerCount: 2
Fore
SplineSet
675 1610 m 0,0,1
 675 1594 675 1594 665.5 746 c 128,-1,2
 656 -102 656 -102 662 -289 c 1,3,4
 657 -334 657 -334 626.5 -359.5 c 128,-1,5
 596 -385 596 -385 554 -383 c 0,6,7
 516 -383 516 -383 496.5 -356.5 c 128,-1,8
 477 -330 477 -330 482 -278 c 0,9,10
 489 -197 489 -197 492 202.5 c 128,-1,11
 495 602 495 602 496.5 1057 c 128,-1,12
 498 1512 498 1512 500 1604 c 0,13,14
 503 1715 503 1715 583 1715 c 0,15,16
 675 1719 675 1719 675 1610 c 0,0,1
EndSplineSet
Validated: 33
EndChar

StartChar: braceright
Encoding: 125 125 96
Width: 1116
GlyphClass: 2
Flags: W
LayerCount: 2
Fore
SplineSet
710 217 m 0,0,1
 710 24 710 24 577 -90 c 128,-1,2
 444 -204 444 -204 210 -204 c 0,3,4
 170 -204 170 -204 141 -181.5 c 128,-1,5
 112 -159 112 -159 112 -129 c 0,6,7
 112 -95 112 -95 149 -63 c 128,-1,8
 186 -31 186 -31 219 -31 c 0,9,10
 360 -31 360 -31 438.5 31 c 128,-1,11
 517 93 517 93 517 195 c 0,12,13
 517 245 517 245 498.5 309 c 128,-1,14
 480 373 480 373 458 422.5 c 128,-1,15
 436 472 436 472 417.5 517.5 c 128,-1,16
 399 563 399 563 399 581 c 0,17,18
 399 621 399 621 423.5 656.5 c 128,-1,19
 448 692 448 692 488.5 718.5 c 128,-1,20
 529 745 529 745 575 763.5 c 128,-1,21
 621 782 621 782 670 793 c 1,22,23
 554 827 554 827 476.5 882 c 128,-1,24
 399 937 399 937 399 983.5 c 128,-1,25
 399 1030 399 1030 411 1074.5 c 128,-1,26
 423 1119 423 1119 440 1156 c 128,-1,27
 457 1193 457 1193 474 1232 c 128,-1,28
 491 1271 491 1271 503 1321 c 128,-1,29
 515 1371 515 1371 515 1426 c 0,30,31
 515 1461 515 1461 487 1489 c 128,-1,32
 459 1517 459 1517 414.5 1534 c 128,-1,33
 370 1551 370 1551 319.5 1560 c 128,-1,34
 269 1569 269 1569 219 1569 c 0,35,36
 177 1569 177 1569 145.5 1591.5 c 128,-1,37
 114 1614 114 1614 114 1650 c 0,38,39
 114 1685 114 1685 137 1713.5 c 128,-1,40
 160 1742 160 1742 210 1742 c 0,41,42
 309 1742 309 1742 397 1723 c 128,-1,43
 485 1704 485 1704 556 1668.5 c 128,-1,44
 627 1633 627 1633 668.5 1574 c 128,-1,45
 710 1515 710 1515 710 1442 c 0,46,47
 710 1385 710 1385 697.5 1333.5 c 128,-1,48
 685 1282 685 1282 667.5 1243 c 128,-1,49
 650 1204 650 1204 632 1166.5 c 128,-1,50
 614 1129 614 1129 601.5 1086 c 128,-1,51
 589 1043 589 1043 589 999 c 0,52,53
 589 991 589 991 603 980 c 128,-1,54
 617 969 617 969 645.5 955.5 c 128,-1,55
 674 942 674 942 711 931 c 128,-1,56
 748 920 748 920 802 912.5 c 128,-1,57
 856 905 856 905 914 905 c 0,58,59
 955 905 955 905 986 871 c 128,-1,60
 1017 837 1017 837 1017 795 c 256,61,62
 1017 753 1017 753 995 726 c 128,-1,63
 973 699 973 699 929 699 c 0,64,65
 874 699 874 699 831 696.5 c 128,-1,66
 788 694 788 694 743.5 687 c 128,-1,67
 699 680 699 680 669.5 668 c 128,-1,68
 640 656 640 656 621 635.5 c 128,-1,69
 602 615 602 615 602 587 c 0,70,71
 602 571 602 571 619 536.5 c 128,-1,72
 636 502 636 502 656 463.5 c 128,-1,73
 676 425 676 425 693 357.5 c 128,-1,74
 710 290 710 290 710 217 c 0,0,1
EndSplineSet
Validated: 1
EndChar

StartChar: asciitilde
Encoding: 126 126 97
Width: 1116
GlyphClass: 2
Flags: W
LayerCount: 2
Fore
SplineSet
1043 1047 m 0,0,1
 1062 1039 1062 1039 1070 1019.5 c 128,-1,2
 1078 1000 1078 1000 1074.5 971.5 c 128,-1,3
 1071 943 1071 943 1063.5 916 c 128,-1,4
 1056 889 1056 889 1043 854 c 0,5,6
 916 541 916 541 740 541 c 0,7,8
 697 541 697 541 660.5 554.5 c 128,-1,9
 624 568 624 568 594 597 c 128,-1,10
 564 626 564 626 541 658 c 128,-1,11
 518 690 518 690 491 738 c 0,12,13
 485 748 485 748 471.5 771.5 c 128,-1,14
 458 795 458 795 453.5 802 c 128,-1,15
 449 809 449 809 438.5 825 c 128,-1,16
 428 841 428 841 421.5 845.5 c 128,-1,17
 415 850 415 850 404.5 858 c 128,-1,18
 394 866 394 866 383.5 868 c 128,-1,19
 373 870 373 870 359 870 c 0,20,21
 343 870 343 870 330 865 c 128,-1,22
 317 860 317 860 304.5 845.5 c 128,-1,23
 292 831 292 831 283.5 818 c 128,-1,24
 275 805 275 805 262.5 774 c 128,-1,25
 250 743 250 743 241.5 720.5 c 128,-1,26
 233 698 233 698 217 651 c 0,27,28
 202 610 202 610 158.5 578 c 128,-1,29
 115 546 115 546 83 554 c 0,30,31
 61 560 61 560 45 593.5 c 128,-1,32
 29 627 29 627 39 666 c 0,33,34
 91 863 91 863 179.5 975 c 128,-1,35
 268 1087 268 1087 353 1087 c 0,36,37
 387 1087 387 1087 410 1084 c 128,-1,38
 433 1081 433 1081 459 1071.5 c 128,-1,39
 485 1062 485 1062 506 1043.5 c 128,-1,40
 527 1025 527 1025 550.5 993.5 c 128,-1,41
 574 962 574 962 598 916 c 0,42,43
 605 903 605 903 616.5 879.5 c 128,-1,44
 628 856 628 856 634 845 c 128,-1,45
 640 834 640 834 650.5 816.5 c 128,-1,46
 661 799 661 799 668.5 790.5 c 128,-1,47
 676 782 676 782 686.5 772.5 c 128,-1,48
 697 763 697 763 708 759.5 c 128,-1,49
 719 756 719 756 732 756 c 0,50,51
 735 756 735 756 741 756 c 0,52,53
 759 756 759 756 767.5 756.5 c 128,-1,54
 776 757 776 757 790 761.5 c 128,-1,55
 804 766 804 766 813 775.5 c 128,-1,56
 822 785 822 785 835 802.5 c 128,-1,57
 848 820 848 820 861.5 847 c 128,-1,58
 875 874 875 874 892 914 c 0,59,60
 902 939 902 939 916.5 964 c 128,-1,61
 931 989 931 989 951 1013 c 128,-1,62
 971 1037 971 1037 995.5 1047 c 128,-1,63
 1020 1057 1020 1057 1043 1047 c 0,0,1
EndSplineSet
Validated: 33
EndChar

StartChar: endash
Encoding: 8211 8211 98
Width: 1116
GlyphClass: 2
Flags: W
LayerCount: 2
Fore
SplineSet
245 688 m 0,0,1
 399 688 399 688 614.5 684.5 c 128,-1,2
 830 681 830 681 859 681 c 0,3,4
 907 681 907 681 925.5 660.5 c 128,-1,5
 944 640 944 640 946 605 c 0,6,7
 946 515 946 515 859 515 c 0,8,9
 824 515 824 515 584.5 512.5 c 128,-1,10
 345 510 345 510 248 510 c 0,11,12
 160 510 160 510 160 598 c 1,13,14
 155 688 155 688 245 688 c 0,0,1
EndSplineSet
Validated: 33
EndChar

StartChar: emdash
Encoding: 8212 8212 99
Width: 1116
GlyphClass: 2
Flags: W
LayerCount: 2
Fore
SplineSet
136 684 m 0,0,1
 357 681 357 681 491 681.5 c 128,-1,2
 625 682 625 682 789.5 684 c 128,-1,3
 954 686 954 686 990 686 c 0,4,5
 1038 686 1038 686 1057 664 c 128,-1,6
 1076 642 1076 642 1078 605 c 0,7,8
 1078 515 1078 515 990 515 c 0,9,10
 942 515 942 515 607.5 512.5 c 128,-1,11
 273 510 273 510 138 510 c 0,12,13
 50 510 50 510 50 598 c 0,14,15
 46 686 46 686 136 684 c 0,0,1
EndSplineSet
Validated: 33
EndChar

StartChar: quoteleft
Encoding: 8216 8216 100
Width: 1116
GlyphClass: 2
Flags: W
LayerCount: 2
Fore
SplineSet
515 1041 m 0,0,1
 480 1105 480 1105 430.5 1212 c 128,-1,2
 381 1319 381 1319 355 1391 c 0,3,4
 341 1431 341 1431 358 1462.5 c 128,-1,5
 375 1494 375 1494 405 1507 c 0,6,7
 429 1518 429 1518 454 1520 c 128,-1,8
 479 1522 479 1522 503.5 1510 c 128,-1,9
 528 1498 528 1498 539 1470 c 0,10,11
 578 1364 578 1364 714 1128 c 0,12,13
 756 1057 756 1057 648 1003 c 0,14,15
 632 995 632 995 616 991.5 c 128,-1,16
 600 988 600 988 581.5 990 c 128,-1,17
 563 992 563 992 545.5 1004.5 c 128,-1,18
 528 1017 528 1017 515 1041 c 0,0,1
EndSplineSet
Validated: 33
EndChar

StartChar: quoteright
Encoding: 8217 8217 101
Width: 1116
GlyphClass: 2
Flags: W
LayerCount: 2
Fore
SplineSet
727 1369 m 0,0,1
 631 1102 631 1102 578 1006 c 0,2,3
 552 958 552 958 512 941 c 128,-1,4
 472 924 472 924 440 940 c 0,5,6
 403 958 403 958 378.5 1004 c 128,-1,7
 354 1050 354 1050 379 1093 c 0,8,9
 414 1154 414 1154 466 1266.5 c 128,-1,10
 518 1379 518 1379 543 1448 c 0,11,12
 555 1476 555 1476 579 1488 c 128,-1,13
 603 1500 603 1500 628 1498 c 128,-1,14
 653 1496 653 1496 677 1485 c 0,15,16
 707 1472 707 1472 724 1440.5 c 128,-1,17
 741 1409 741 1409 727 1369 c 0,0,1
EndSplineSet
Validated: 33
EndChar

StartChar: quotesinglbase
Encoding: 8218 8218 102
Width: 1116
GlyphClass: 2
Flags: W
LayerCount: 2
Fore
SplineSet
570 1453 m 0,0,1
 596 1378 596 1378 629 1266.5 c 128,-1,2
 662 1155 662 1155 677 1082 c 0,3,4
 685 1041 685 1041 663 1012.5 c 128,-1,5
 641 984 641 984 609 975 c 0,6,7
 585 970 585 970 560 970.5 c 128,-1,8
 535 971 535 971 512.5 987 c 128,-1,9
 490 1003 490 1003 484 1032 c 0,10,11
 464 1126 464 1126 359 1396 c 0,12,13
 350 1415 350 1415 353.5 1432 c 128,-1,14
 357 1449 357 1449 365 1461 c 128,-1,15
 373 1473 373 1473 387.5 1482.5 c 128,-1,16
 402 1492 402 1492 415 1498 c 128,-1,17
 428 1504 428 1504 443 1507 c 0,18,19
 465 1514 465 1514 488 1515.5 c 128,-1,20
 511 1517 511 1517 534 1501 c 128,-1,21
 557 1485 557 1485 570 1453 c 0,0,1
EndSplineSet
Validated: 33
EndChar

StartChar: quotedblleft
Encoding: 8220 8220 103
Width: 1116
GlyphClass: 2
Flags: W
LayerCount: 2
Fore
SplineSet
686 1128 m 0,0,1
 651 1192 651 1192 601.5 1299.5 c 128,-1,2
 552 1407 552 1407 526 1479 c 0,3,4
 512 1518 512 1518 529 1550 c 128,-1,5
 546 1582 546 1582 576 1595 c 0,6,7
 600 1606 600 1606 625 1608 c 128,-1,8
 650 1610 650 1610 674.5 1597.5 c 128,-1,9
 699 1585 699 1585 710 1558 c 0,10,11
 749 1452 749 1452 885 1216 c 0,12,13
 927 1145 927 1145 819 1091 c 0,14,15
 803 1083 803 1083 786.5 1079.5 c 128,-1,16
 770 1076 770 1076 752 1077.5 c 128,-1,17
 734 1079 734 1079 716.5 1092 c 128,-1,18
 699 1105 699 1105 686 1128 c 0,0,1
379 1019 m 0,19,20
 344 1083 344 1083 294.5 1190 c 128,-1,21
 245 1297 245 1297 219 1369 c 0,22,23
 205 1409 205 1409 222 1440.5 c 128,-1,24
 239 1472 239 1472 269 1485 c 0,25,26
 293 1496 293 1496 318 1498 c 128,-1,27
 343 1500 343 1500 367.5 1488 c 128,-1,28
 392 1476 392 1476 403 1448 c 0,29,30
 442 1342 442 1342 578 1106 c 0,31,32
 620 1035 620 1035 513 981 c 0,33,34
 496 973 496 973 480 969.5 c 128,-1,35
 464 966 464 966 445.5 968 c 128,-1,36
 427 970 427 970 409.5 982.5 c 128,-1,37
 392 995 392 995 379 1019 c 0,19,20
EndSplineSet
Validated: 33
EndChar

StartChar: quotedblright
Encoding: 8221 8221 104
Width: 1116
GlyphClass: 2
Flags: W
LayerCount: 2
Fore
SplineSet
596 1479 m 0,0,1
 499 1211 499 1211 447 1115 c 0,2,3
 429 1084 429 1084 402 1067 c 128,-1,4
 375 1050 375 1050 350.5 1050 c 128,-1,5
 326 1050 326 1050 305 1058 c 0,6,7
 197 1112 197 1112 239 1183 c 0,8,9
 274 1244 274 1244 330.5 1366 c 128,-1,10
 387 1488 387 1488 412 1558 c 0,11,12
 423 1585 423 1585 447.5 1597.5 c 128,-1,13
 472 1610 472 1610 497 1608 c 128,-1,14
 522 1606 522 1606 546 1595 c 0,15,16
 576 1582 576 1582 593 1550 c 128,-1,17
 610 1518 610 1518 596 1479 c 0,0,1
903 1369 m 0,18,19
 806 1102 806 1102 754 1006 c 0,20,21
 727 958 727 958 687 941 c 128,-1,22
 647 924 647 924 616 940 c 0,23,24
 579 958 579 958 554 1004 c 128,-1,25
 529 1050 529 1050 554 1093 c 0,26,27
 590 1154 590 1154 641.5 1266.5 c 128,-1,28
 693 1379 693 1379 719 1448 c 0,29,30
 730 1476 730 1476 754.5 1488 c 128,-1,31
 779 1500 779 1500 803.5 1498 c 128,-1,32
 828 1496 828 1496 852 1485 c 0,33,34
 882 1472 882 1472 899 1440.5 c 128,-1,35
 916 1409 916 1409 903 1369 c 0,18,19
EndSplineSet
Validated: 33
EndChar

StartChar: bullet
Encoding: 8226 8226 105
Width: 1116
GlyphClass: 2
Flags: W
LayerCount: 2
Fore
SplineSet
565 688 m 0,0,1
 476 679 476 679 418.5 737.5 c 128,-1,2
 361 796 361 796 361 879 c 0,3,4
 361 952 361 952 424 1005.5 c 128,-1,5
 487 1059 487 1059 565 1063 c 0,6,7
 652 1066 652 1066 706 1012.5 c 128,-1,8
 760 959 760 959 760 881 c 256,9,10
 760 803 760 803 707 750.5 c 128,-1,11
 654 698 654 698 565 688 c 0,0,1
EndSplineSet
Validated: 33
EndChar

StartChar: uni0084
Encoding: 132 132 106
Width: 1116
Flags: W
LayerCount: 2
Fore
SplineSet
1018 -29 m 1024,0,1
180.5 847.5 m 0,2,3
 208 887 208 887 247.5 921.5 c 0,4,5
 282 952 282 952 336 978 c 128,-1,6
 390 1004 390 1004 468.5 1025 c 0,7,8
 548 1046 548 1046 650.5 1043.5 c 0,9,10
 844 1040 844 1040 905.5 947.5 c 0,11,12
 996 809 996 809 998.5 551.5 c 0,13,14
 999 491 999 491 995 290 c 0,15,16
 994 245 994 245 1014 92 c 0,17,18
 1037 -78 1037 -78 974 -78 c 0,19,20
 891 -78 891 -78 880 -36 c 0,21,22
 834 142 834 142 834 142 c 0,23,24
 766 30 766 30 689 -18 c 0,25,26
 626 -57 626 -57 483 -57 c 0,27,28
 419 -57 419 -57 343.5 -22 c 128,-1,29
 268 13 268 13 212.5 85.5 c 128,-1,30
 157 158 157 158 131 234 c 1,31,32
 131 287 131 287 144 348 c 0,33,34
 159 414 159 414 204 460 c 0,35,36
 267 525 267 525 294.5 539.5 c 0,37,38
 398 594 398 594 418.5 599.5 c 0,39,40
 574 642 574 642 580.5 643.5 c 0,41,42
 685 655 685 655 710.5 661.5 c 0,43,44
 720 664 720 664 809.5 695.5 c 1,45,46
 817 723 817 723 812 756.5 c 0,47,48
 810 770 810 770 793 792 c 4,49,50
 769 823 769 823 736.5 840 c 0,51,52
 707 856 707 856 638.5 860.5 c 0,53,54
 584 864 584 864 529 848 c 128,-1,55
 474 832 474 832 438 809 c 128,-1,56
 402 786 402 786 379.5 768 c 0,57,58
 358 750 358 750 349.5 740.5 c 0,59,60
 270 634 270 634 191.5 687.5 c 0,61,62
 108 745 108 745 180.5 847.5 c 0,2,3
526 103 m 0,63,64
 561 103 561 103 597 115 c 128,-1,65
 633 127 633 127 669.5 155.5 c 128,-1,66
 706 184 706 184 735 224.5 c 128,-1,67
 764 265 764 265 784.5 327 c 128,-1,68
 805 389 805 389 809 464 c 1,69,70
 408 430 408 430 312 270 c 1,71,72
 359 177 359 177 410.5 140 c 128,-1,73
 462 103 462 103 526 103 c 0,63,64
EndSplineSet
Validated: 33
EndChar

StartChar: uni0083
Encoding: 131 131 107
Width: 1116
Flags: W
LayerCount: 2
Fore
SplineSet
966 -81 m 4,0,1
 922 -85 922 -85 890 -64 c 132,-1,2
 858 -43 858 -43 841 20 c 4,3,4
 838 40 838 40 830.5 84.5 c 132,-1,5
 823 129 823 129 819 153 c 5,6,7
 690 -64 690 -64 489 -64 c 0,8,9
 418 -62 418 -62 354.5 -35 c 128,-1,10
 291 -8 291 -8 245 36.5 c 128,-1,11
 199 81 199 81 165 137 c 128,-1,12
 131 193 131 193 113.5 252.5 c 128,-1,13
 96 312 96 312 96 368 c 0,14,15
 96 481 96 481 113 576 c 128,-1,16
 130 671 130 671 159.5 742 c 128,-1,17
 189 813 189 813 231.5 868.5 c 128,-1,18
 274 924 274 924 323.5 960.5 c 128,-1,19
 373 997 373 997 432.5 1020.5 c 128,-1,20
 492 1044 492 1044 552.5 1054.5 c 128,-1,21
 613 1065 613 1065 679 1065 c 0,22,23
 789 1065 789 1065 866.5 1025.5 c 128,-1,24
 944 986 944 986 1025 894 c 1,25,26
 989 632 989 632 993 455.5 c 128,-1,27
 997 279 997 279 1049 42 c 4,28,29
 1064 -21 1064 -21 1038.5 -49 c 132,-1,30
 1013 -77 1013 -77 966 -81 c 4,0,1
309 434 m 0,31,32
 309 383 309 383 320.5 329.5 c 128,-1,33
 332 276 332 276 353.5 228 c 128,-1,34
 375 180 375 180 412.5 149 c 128,-1,35
 450 118 450 118 497 118 c 0,36,37
 547 118 547 118 595.5 146 c 128,-1,38
 644 174 644 174 682 218.5 c 128,-1,39
 720 263 720 263 749 313.5 c 128,-1,40
 778 364 778 364 797 416 c 1,41,42
 797 605 797 605 819 813 c 1,43,44
 773 850 773 850 735 865.5 c 128,-1,45
 697 881 697 881 633 881 c 0,46,47
 596 881 596 881 555.5 868 c 128,-1,48
 515 855 515 855 470 822 c 128,-1,49
 425 789 425 789 390 740.5 c 128,-1,50
 355 692 355 692 332 612 c 128,-1,51
 309 532 309 532 309 434 c 0,31,32
EndSplineSet
Validated: 33
EndChar
